{"glyphs":{"0":{"ha":1065,"x_min":0,"x_max":926,"o":"m 347 194 q 368 153 364 175 q 403 140 388 150 q 431 118 419 131 q 460 143 442 133 q 500 153 479 153 q 541 142 524 153 q 569 117 558 132 q 592 138 576 129 q 556 208 556 157 q 565 248 556 229 q 590 278 575 267 q 565 308 575 289 q 556 347 556 326 q 565 387 556 368 q 590 417 575 406 q 565 447 575 428 q 556 486 556 465 q 565 526 556 507 q 590 556 575 544 q 565 585 575 567 q 556 625 556 604 q 565 665 556 646 q 590 694 575 683 q 567 721 576 706 q 556 754 558 736 q 532 763 543 757 q 514 778 521 768 l 499 792 q 470 765 488 775 q 431 754 453 754 q 374 775 394 754 l 357 792 q 346 778 351 785 q 333 767 340 771 l 347 753 q 347 754 347 754 q 346 756 346 754 l 350 751 q 371 694 371 731 q 332 625 371 647 l 339 618 q 338 619 339 619 q 338 621 338 619 l 347 611 q 365 586 358 600 q 371 556 371 572 q 332 486 371 508 l 342 478 q 340 478 340 478 q 339 479 340 479 l 347 472 q 365 447 358 461 q 371 417 371 433 q 332 347 371 369 l 347 333 q 371 278 371 310 q 332 208 371 231 l 347 194 m 139 903 q 163 963 139 939 q 222 986 186 986 q 262 976 243 986 q 292 951 281 967 q 322 976 303 967 q 361 986 340 986 q 401 976 382 986 q 431 951 419 967 q 460 976 442 967 q 500 986 479 986 q 540 976 521 986 q 569 951 558 967 q 599 976 581 967 q 639 986 618 986 q 685 973 665 986 q 715 938 706 960 l 764 889 q 785 847 781 869 q 826 831 808 844 q 854 799 844 818 l 903 750 q 926 694 926 726 q 888 625 926 647 l 903 611 q 926 556 926 588 q 888 486 926 508 l 903 472 q 926 417 926 449 q 888 347 926 369 l 903 333 q 926 278 926 310 q 888 208 926 231 l 903 194 q 926 139 926 171 q 903 83 926 106 q 847 60 881 60 q 790 81 811 60 l 774 97 q 763 83 768 90 q 750 72 757 76 l 767 57 q 788 0 788 36 q 765 -56 788 -33 q 708 -79 742 -79 q 653 -56 676 -79 l 638 -40 q 609 -68 626 -57 q 569 -79 592 -79 q 514 -56 538 -79 l 499 -40 q 470 -68 488 -57 q 431 -79 453 -79 q 375 -56 399 -79 l 360 -40 q 331 -68 349 -57 q 292 -79 314 -79 q 235 -57 257 -79 l 182 -4 q 153 22 164 6 q 139 60 142 39 q 96 82 111 63 l 43 135 q 0 208 0 157 q 10 248 0 229 q 35 278 19 267 q 10 308 19 289 q 0 347 0 326 q 10 387 0 368 q 35 417 19 406 q 10 447 19 428 q 0 486 0 465 q 10 526 0 507 q 35 556 19 544 q 10 585 19 567 q 0 625 0 604 q 10 665 0 646 q 35 694 19 683 q 10 724 19 706 q 0 764 0 743 q 24 824 0 800 q 83 847 47 847 q 124 837 107 847 q 153 811 142 826 q 175 832 160 824 q 139 903 139 851 m 217 278 q 173 257 190 275 q 153 214 156 239 q 132 257 150 239 q 89 278 114 275 q 132 298 114 281 q 153 342 150 315 q 173 298 156 315 q 217 278 190 281 m 772 694 q 728 674 746 692 q 708 631 711 656 q 688 674 706 656 q 644 694 669 692 q 688 715 669 697 q 708 758 706 732 q 728 715 711 732 q 772 694 746 697 m 217 694 q 173 674 190 692 q 153 631 156 656 q 132 674 150 656 q 89 694 114 692 q 132 715 114 697 q 153 758 150 732 q 173 715 156 732 q 217 694 190 697 m 772 556 q 728 535 746 553 q 708 492 711 517 q 688 535 706 517 q 644 556 669 553 q 688 576 669 558 q 708 619 706 593 q 728 576 711 593 q 772 556 746 558 m 217 556 q 173 535 190 553 q 153 492 156 517 q 132 535 150 517 q 89 556 114 553 q 132 576 114 558 q 153 619 150 593 q 173 576 156 593 q 217 556 190 558 m 708 347 q 690 394 708 375 q 644 417 672 414 q 688 437 669 419 q 708 481 706 454 q 728 437 711 454 q 772 417 746 419 q 726 394 744 414 q 708 347 708 375 m 217 417 q 173 396 190 414 q 153 353 156 378 q 132 396 150 378 q 89 417 114 414 q 132 437 114 419 q 153 481 150 454 q 173 437 156 454 q 217 417 190 419 m 772 278 q 728 257 746 275 q 708 214 711 239 q 688 257 706 239 q 644 278 669 275 q 688 298 669 281 q 708 342 706 315 q 728 298 711 315 q 772 278 746 281 m 569 764 q 588 717 569 736 q 633 694 606 697 q 588 672 606 692 q 569 625 569 653 q 588 578 569 597 q 633 556 606 558 q 588 533 606 553 q 569 486 569 514 q 588 439 569 458 q 633 417 606 419 q 588 394 606 414 q 569 347 569 375 q 588 300 569 319 q 633 278 606 281 q 588 256 606 275 q 569 208 569 236 q 588 161 569 181 q 633 139 606 142 q 590 118 607 136 q 569 75 572 100 q 547 121 567 103 q 500 139 528 139 q 453 121 472 139 q 431 75 433 103 q 408 121 428 103 q 361 139 389 139 q 314 121 333 139 q 292 75 294 103 q 271 118 289 100 q 228 139 253 136 q 274 161 256 142 q 292 208 292 181 q 274 256 292 236 q 228 278 256 275 q 274 300 256 281 q 292 347 292 319 q 274 394 292 375 q 228 417 256 414 q 274 439 256 419 q 292 486 292 458 q 274 533 292 514 q 228 556 256 553 q 274 578 256 558 q 292 625 292 597 q 274 672 292 653 q 228 694 256 692 q 274 717 256 697 q 292 764 292 736 q 274 811 292 792 q 228 833 256 831 q 271 853 253 836 q 292 897 289 871 q 314 851 294 869 q 361 833 333 833 q 408 851 389 833 q 431 897 428 869 q 453 851 433 869 q 500 833 472 833 q 547 851 528 833 q 569 897 567 869 q 590 853 572 871 q 633 833 607 836 q 588 811 606 831 q 569 764 569 792 m 153 903 q 171 856 153 875 q 217 833 189 836 q 173 813 190 831 q 153 769 156 794 q 131 815 150 797 q 83 833 111 833 q 34 813 54 833 q 14 764 14 793 q 32 717 14 736 q 78 694 50 697 q 32 672 50 692 q 14 625 14 653 q 32 578 14 597 q 78 556 50 558 q 32 533 50 553 q 14 486 14 514 q 32 439 14 458 q 78 417 50 419 q 32 394 50 414 q 14 347 14 375 q 32 300 14 319 q 78 278 50 281 q 32 256 50 275 q 14 208 14 236 q 34 159 14 179 q 83 139 54 139 q 131 157 111 139 q 153 203 150 175 q 173 159 156 176 q 217 139 190 142 q 171 117 189 136 q 153 69 153 97 q 173 20 153 40 q 222 0 193 0 q 269 18 250 0 q 292 64 289 36 q 314 18 294 36 q 361 0 333 0 q 408 18 389 0 q 431 64 428 36 q 453 18 433 36 q 500 0 472 0 q 547 18 528 0 q 569 64 567 36 q 592 18 572 36 q 639 0 611 0 q 688 20 668 0 q 708 69 708 40 q 690 117 708 97 q 644 139 672 136 q 688 159 669 142 q 708 203 706 176 q 731 157 711 175 q 778 139 750 139 q 827 159 807 139 q 847 208 847 179 q 829 256 847 236 q 783 278 811 275 q 829 300 811 281 q 847 347 847 319 q 829 394 847 375 q 783 417 811 414 q 829 439 811 419 q 847 486 847 458 q 829 533 847 514 q 783 556 811 553 q 829 578 811 558 q 847 625 847 597 q 829 672 847 653 q 783 694 811 692 q 829 717 811 697 q 847 764 847 736 q 827 813 847 793 q 778 833 807 833 q 731 815 750 833 q 708 769 711 797 q 688 813 706 794 q 644 833 669 831 q 690 856 672 836 q 708 903 708 875 q 688 952 708 932 q 639 972 668 972 q 592 954 611 972 q 569 908 572 936 q 547 954 567 936 q 500 972 528 972 q 453 954 472 972 q 431 908 433 936 q 408 954 428 936 q 361 972 389 972 q 314 954 333 972 q 292 908 294 936 q 269 954 289 936 q 222 972 250 972 q 173 952 193 972 q 153 903 153 932 z "},"1":{"ha":788,"x_min":0,"x_max":649,"o":"m 43 -4 q 0 69 0 18 q 24 129 0 106 q 83 153 47 153 q 124 142 106 153 q 153 114 142 132 q 174 139 161 128 q 149 169 158 150 q 139 208 139 188 q 149 248 139 229 q 174 278 158 267 q 149 308 158 289 q 139 347 139 326 q 149 387 139 368 q 174 417 158 406 q 149 447 158 428 q 139 486 139 465 q 149 526 139 507 q 174 556 158 544 q 151 581 160 565 q 139 615 142 596 q 96 638 111 618 l 43 690 q 0 764 0 713 q 24 824 0 800 q 83 847 47 847 q 124 837 107 847 q 153 811 142 826 q 175 832 160 824 q 139 903 139 851 q 163 963 139 939 q 222 986 186 986 q 262 976 243 986 q 292 951 281 967 q 322 976 303 967 q 361 986 340 986 q 408 972 388 986 q 438 936 428 958 l 483 890 q 483 892 483 892 q 482 893 482 892 l 486 889 q 503 864 497 878 q 510 833 510 850 q 471 764 510 786 l 486 750 q 503 725 497 739 q 510 694 510 711 q 471 625 510 647 l 486 611 q 503 586 497 600 q 510 556 510 572 q 471 486 510 508 l 486 472 q 503 447 497 461 q 510 417 510 433 q 471 347 510 369 l 486 333 q 510 278 510 310 q 471 208 510 231 l 478 201 q 477 203 478 203 q 476 204 476 203 l 486 194 q 507 153 503 175 q 549 137 531 150 q 576 104 567 124 l 625 56 q 624 56 624 56 q 622 57 624 57 l 625 56 q 649 0 649 32 q 626 -56 649 -33 q 569 -79 603 -79 q 514 -56 538 -79 l 499 -40 q 470 -68 488 -57 q 431 -79 453 -79 q 375 -56 399 -79 l 360 -40 q 331 -68 349 -57 q 292 -79 314 -79 q 236 -56 260 -79 l 221 -40 q 192 -68 210 -57 q 153 -79 175 -79 q 96 -57 118 -79 l 43 -4 m 292 486 q 274 533 292 514 q 228 556 256 553 q 271 576 253 558 q 292 619 289 593 q 312 576 294 593 q 356 556 329 558 q 310 533 328 553 q 292 486 292 514 m 356 694 q 312 674 329 692 q 292 631 294 656 q 271 674 289 656 q 228 694 253 692 q 271 715 253 697 q 292 758 289 732 q 312 715 294 732 q 356 694 329 697 m 356 833 q 312 813 329 831 q 292 769 294 794 q 271 813 289 794 q 228 833 253 831 q 271 853 253 836 q 292 897 289 871 q 312 853 294 871 q 356 833 329 836 m 356 417 q 312 396 329 414 q 292 353 294 378 q 271 396 289 378 q 228 417 253 414 q 271 437 253 419 q 292 481 289 454 q 312 437 294 454 q 356 417 329 419 m 356 278 q 312 257 329 275 q 292 214 294 239 q 271 257 289 239 q 228 278 253 275 q 271 298 253 281 q 292 342 289 315 q 312 298 294 315 q 356 278 329 281 m 356 139 q 312 118 329 136 q 292 75 294 100 q 271 118 289 100 q 228 139 253 136 q 271 159 253 142 q 292 203 289 176 q 312 159 294 176 q 356 139 329 142 m 153 625 q 171 578 153 597 q 217 556 189 558 q 171 533 189 553 q 153 486 153 514 q 171 439 153 458 q 217 417 189 419 q 171 394 189 414 q 153 347 153 375 q 171 300 153 319 q 217 278 189 281 q 171 256 189 275 q 153 208 153 236 q 171 161 153 181 q 217 139 189 142 q 171 117 189 136 q 153 69 153 97 q 133 119 153 99 q 83 139 113 139 q 34 119 54 139 q 14 69 14 99 q 34 20 14 40 q 83 0 54 0 q 131 18 111 0 q 153 64 150 36 q 175 18 156 36 q 222 0 194 0 q 269 18 250 0 q 292 64 289 36 q 314 18 294 36 q 361 0 333 0 q 408 18 389 0 q 431 64 428 36 q 453 18 433 36 q 500 0 472 0 q 549 20 529 0 q 569 69 569 40 q 549 119 569 99 q 500 139 529 139 q 451 119 471 139 q 431 69 431 99 q 413 117 431 97 q 367 139 394 136 q 413 161 394 142 q 431 208 431 181 q 413 256 431 236 q 367 278 394 275 q 413 300 394 281 q 431 347 431 319 q 413 394 431 375 q 367 417 394 414 q 413 439 394 419 q 431 486 431 458 q 413 533 431 514 q 367 556 394 553 q 413 578 394 558 q 431 625 431 597 q 413 672 431 653 q 367 694 394 692 q 413 717 394 697 q 431 764 431 736 q 413 811 431 792 q 367 833 394 831 q 413 856 394 836 q 431 903 431 875 q 410 952 431 932 q 361 972 390 972 q 314 954 333 972 q 292 908 294 936 q 269 954 289 936 q 222 972 250 972 q 173 952 193 972 q 153 903 153 932 q 171 856 153 875 q 217 833 189 836 q 173 813 190 831 q 153 769 156 794 q 131 815 150 797 q 83 833 111 833 q 34 813 54 833 q 14 764 14 793 q 34 715 14 735 q 83 694 54 694 q 131 713 111 694 q 153 758 150 731 q 173 715 156 732 q 217 694 190 697 q 171 672 189 692 q 153 625 153 653 z "},"2":{"ha":1065,"x_min":0,"x_max":926,"o":"m 764 889 q 785 847 781 869 q 826 831 808 844 q 854 799 844 818 l 903 750 q 926 694 926 726 q 888 625 926 647 l 903 611 q 926 556 926 588 q 903 499 926 522 q 847 476 881 476 q 790 497 811 476 l 774 514 q 763 500 768 507 q 750 489 757 493 l 764 475 q 763 476 764 476 q 763 478 763 476 l 767 474 q 788 417 788 453 q 765 360 788 383 q 708 338 742 338 q 653 361 676 338 l 638 375 q 609 348 626 358 q 569 338 592 338 q 513 358 533 338 l 496 375 q 485 361 490 368 q 472 350 479 354 l 489 335 q 510 278 510 314 q 487 222 510 244 q 431 199 464 199 q 374 219 394 199 l 357 236 q 346 222 351 229 q 333 211 340 215 l 350 196 q 363 176 357 186 q 371 151 368 165 q 404 140 389 149 q 431 118 419 131 q 460 143 442 133 q 500 153 479 153 q 540 143 521 153 q 569 118 558 133 q 599 143 581 133 q 639 153 618 153 q 678 143 660 153 q 708 118 697 133 q 738 143 719 133 q 778 153 757 153 q 824 140 804 153 q 854 104 844 126 l 903 56 q 926 0 926 32 q 903 -56 926 -33 q 847 -79 881 -79 q 792 -56 815 -79 l 776 -40 q 748 -68 765 -57 q 708 -79 731 -79 q 653 -56 676 -79 l 638 -40 q 609 -68 626 -57 q 569 -79 592 -79 q 514 -56 538 -79 l 499 -40 q 470 -68 488 -57 q 431 -79 453 -79 q 375 -56 399 -79 l 360 -40 q 331 -68 349 -57 q 292 -79 314 -79 q 236 -56 260 -79 l 221 -40 q 192 -68 210 -57 q 153 -79 175 -79 q 96 -57 118 -79 l 43 -4 q 0 69 0 18 q 10 109 0 90 q 35 139 19 128 q 10 169 19 150 q 0 208 0 188 q 24 268 0 244 q 83 292 47 292 q 124 281 107 292 q 153 256 142 271 q 175 276 160 268 q 139 347 139 296 q 163 407 139 383 q 222 431 186 431 q 263 420 246 431 q 292 394 281 410 q 314 415 299 407 q 278 486 278 435 q 301 546 278 522 q 361 569 325 569 q 401 559 383 569 q 431 531 419 549 q 500 569 453 569 q 541 559 524 569 q 569 533 558 549 q 592 554 576 546 q 556 625 556 574 q 565 665 556 646 q 590 694 575 683 q 567 721 576 706 q 556 754 558 736 q 532 763 543 757 q 514 778 521 768 l 499 792 q 470 765 488 775 q 431 754 453 754 q 400 760 414 754 q 375 778 386 767 l 360 792 q 331 765 349 775 q 292 754 314 754 q 261 760 275 754 q 236 778 247 767 l 221 792 q 192 765 210 775 q 153 754 175 754 q 96 776 118 754 l 43 829 q 0 903 0 851 q 24 963 0 939 q 83 986 47 986 q 123 976 104 986 q 153 951 142 967 q 183 976 164 967 q 222 986 201 986 q 262 976 243 986 q 292 951 281 967 q 322 976 303 967 q 361 986 340 986 q 401 976 382 986 q 431 951 419 967 q 460 976 442 967 q 500 986 479 986 q 540 976 521 986 q 569 951 558 967 q 599 976 581 967 q 639 986 618 986 q 685 973 665 986 q 715 938 706 960 l 764 889 m 153 69 q 135 117 153 97 q 89 139 117 136 q 132 159 114 142 q 153 203 150 176 q 173 159 156 176 q 217 139 190 142 q 171 117 189 136 q 153 69 153 97 m 708 625 q 690 672 708 653 q 644 694 672 692 q 688 715 669 697 q 708 758 706 732 q 728 715 711 732 q 772 694 746 697 q 726 672 744 692 q 708 625 708 653 m 292 208 q 274 256 292 236 q 228 278 256 275 q 271 298 253 281 q 292 342 289 315 q 314 296 294 314 q 361 278 333 278 q 410 298 390 278 q 431 347 431 318 q 413 394 431 375 q 367 417 394 414 q 410 437 392 419 q 431 481 428 454 q 453 435 433 453 q 500 417 472 417 q 547 435 528 417 q 569 481 567 453 q 592 435 572 453 q 639 417 611 417 q 688 437 668 417 q 708 486 708 457 q 690 533 708 514 q 644 556 672 553 q 688 576 669 558 q 708 619 706 593 q 731 574 711 592 q 778 556 750 556 q 827 576 807 556 q 847 625 847 596 q 829 672 847 653 q 783 694 811 692 q 829 717 811 697 q 847 764 847 736 q 827 813 847 793 q 778 833 807 833 q 731 815 750 833 q 708 769 711 797 q 688 813 706 794 q 644 833 669 831 q 690 856 672 836 q 708 903 708 875 q 688 952 708 932 q 639 972 668 972 q 592 954 611 972 q 569 908 572 936 q 547 954 567 936 q 500 972 528 972 q 453 954 472 972 q 431 908 433 936 q 408 954 428 936 q 361 972 389 972 q 314 954 333 972 q 292 908 294 936 q 269 954 289 936 q 222 972 250 972 q 175 954 194 972 q 153 908 156 936 q 131 954 150 936 q 83 972 111 972 q 34 952 54 972 q 14 903 14 932 q 34 853 14 874 q 83 833 54 833 q 131 851 111 833 q 153 897 150 869 q 175 851 156 869 q 222 833 194 833 q 269 851 250 833 q 292 897 289 869 q 314 851 294 869 q 361 833 333 833 q 408 851 389 833 q 431 897 428 869 q 453 851 433 869 q 500 833 472 833 q 547 851 528 833 q 569 897 567 869 q 590 853 572 871 q 633 833 607 836 q 588 811 606 831 q 569 764 569 792 q 588 717 569 736 q 633 694 606 697 q 588 672 606 692 q 569 625 569 653 q 588 578 569 597 q 633 556 606 558 q 590 535 607 553 q 569 492 572 517 q 547 538 567 519 q 500 556 528 556 q 451 535 471 556 q 431 486 431 515 q 410 535 431 515 q 361 556 390 556 q 312 535 332 556 q 292 486 292 515 q 310 439 292 458 q 356 417 328 419 q 312 396 329 414 q 292 353 294 378 q 269 399 289 381 q 222 417 250 417 q 173 397 193 417 q 153 347 153 376 q 171 300 153 319 q 217 278 189 281 q 173 257 190 275 q 153 214 156 239 q 131 260 150 242 q 83 278 111 278 q 34 258 54 278 q 14 208 14 238 q 32 161 14 181 q 78 139 50 142 q 32 117 50 136 q 14 69 14 97 q 34 20 14 40 q 83 0 54 0 q 131 18 111 0 q 153 64 150 36 q 175 18 156 36 q 222 0 194 0 q 269 18 250 0 q 292 64 289 36 q 314 18 294 36 q 361 0 333 0 q 408 18 389 0 q 431 64 428 36 q 453 18 433 36 q 500 0 472 0 q 547 18 528 0 q 569 64 567 36 q 592 18 572 36 q 639 0 611 0 q 686 18 667 0 q 708 64 706 36 q 731 18 711 36 q 778 0 750 0 q 827 20 807 0 q 847 69 847 40 q 827 119 847 99 q 778 139 807 139 q 731 121 750 139 q 708 75 711 103 q 686 121 706 103 q 639 139 667 139 q 592 121 611 139 q 569 75 572 103 q 547 121 567 103 q 500 139 528 139 q 453 121 472 139 q 431 75 433 103 q 408 121 428 103 q 361 139 389 139 q 312 119 332 139 q 292 69 292 99 q 274 117 292 97 q 228 139 256 136 q 274 161 256 142 q 292 208 292 181 z "},"3":{"ha":1065,"x_min":0,"x_max":926,"o":"m 767 474 q 779 454 774 465 q 786 431 785 443 q 827 415 810 428 q 854 382 844 401 l 903 333 q 926 278 926 310 q 888 208 926 231 l 899 197 q 897 200 897 199 l 903 194 q 926 139 926 171 q 903 83 926 106 q 847 60 881 60 q 790 81 811 60 l 774 97 q 763 83 768 90 q 750 72 757 76 l 764 58 q 763 60 764 60 q 763 61 763 60 l 767 57 q 788 0 788 36 q 765 -56 788 -33 q 708 -79 742 -79 q 653 -56 676 -79 l 638 -40 q 609 -68 626 -57 q 569 -79 592 -79 q 514 -56 538 -79 l 499 -40 q 470 -68 488 -57 q 431 -79 453 -79 q 375 -56 399 -79 l 360 -40 q 331 -68 349 -57 q 292 -79 314 -79 q 236 -56 260 -79 l 221 -40 q 192 -68 210 -57 q 153 -79 175 -79 q 96 -57 118 -79 l 43 -4 q 0 69 0 18 q 24 129 0 106 q 83 153 47 153 q 123 143 104 153 q 153 118 142 133 q 183 143 164 133 q 222 153 201 153 q 263 142 244 153 q 292 114 281 132 q 361 153 314 153 q 401 143 382 153 q 431 118 419 133 q 460 143 442 133 q 500 153 479 153 q 541 142 524 153 q 569 117 558 132 q 592 138 576 129 q 556 208 556 157 q 565 248 556 229 q 590 278 575 267 q 567 304 576 289 q 556 338 558 319 q 532 346 543 340 q 514 361 521 351 l 499 375 q 470 348 488 358 q 431 338 453 338 q 374 360 396 338 l 321 413 q 278 486 278 435 q 301 546 278 522 q 361 569 325 569 q 401 560 382 569 q 431 535 419 550 q 460 560 442 550 q 500 569 479 569 q 540 559 522 569 q 569 531 558 549 q 590 556 578 544 q 565 585 575 567 q 556 625 556 604 q 565 665 556 646 q 590 694 575 683 q 567 721 576 706 q 556 754 558 736 q 532 763 543 757 q 514 778 521 768 l 499 792 q 470 765 488 775 q 431 754 453 754 q 400 760 414 754 q 375 778 386 767 l 360 792 q 331 765 349 775 q 292 754 314 754 q 261 760 275 754 q 236 778 247 767 l 221 792 q 192 765 210 775 q 153 754 175 754 q 96 776 118 754 l 43 829 q 0 903 0 851 q 24 963 0 939 q 83 986 47 986 q 124 976 106 986 q 153 947 142 965 q 222 986 175 986 q 262 976 243 986 q 292 951 281 967 q 322 976 303 967 q 361 986 340 986 q 401 976 383 986 q 431 947 419 965 q 500 986 453 986 q 540 976 521 986 q 569 951 558 967 q 599 976 581 967 q 639 986 618 986 q 685 973 665 986 q 715 938 706 960 l 764 889 q 785 847 781 869 q 826 831 808 844 q 854 799 844 818 l 903 750 q 926 694 926 726 q 888 625 926 647 l 894 618 q 894 619 894 619 q 893 621 893 619 l 903 611 q 926 556 926 588 q 903 499 926 522 q 847 476 881 476 q 790 497 811 476 l 774 514 q 763 500 768 507 q 750 489 757 493 l 767 474 m 708 208 q 690 256 708 236 q 644 278 672 275 q 688 298 669 281 q 708 342 706 315 q 728 298 711 315 q 772 278 746 281 q 726 256 744 275 q 708 208 708 236 m 708 631 q 688 674 706 656 q 644 694 669 692 q 688 715 669 697 q 708 758 706 732 q 728 715 711 732 q 772 694 746 697 q 728 674 746 692 q 708 631 711 656 m 708 69 q 690 117 708 97 q 644 139 672 136 q 688 159 669 142 q 708 203 706 176 q 731 157 711 175 q 778 139 750 139 q 827 159 807 139 q 847 208 847 179 q 829 256 847 236 q 783 278 811 275 q 829 300 811 281 q 847 347 847 319 q 827 397 847 376 q 778 417 807 417 q 731 399 750 417 q 708 353 711 381 q 688 396 706 378 q 644 417 669 414 q 690 439 672 419 q 708 486 708 458 q 690 533 708 514 q 644 556 672 553 q 688 576 669 558 q 708 619 706 593 q 731 574 711 592 q 778 556 750 556 q 827 576 807 556 q 847 625 847 596 q 829 672 847 653 q 783 694 811 692 q 829 717 811 697 q 847 764 847 736 q 827 813 847 793 q 778 833 807 833 q 728 813 749 833 q 708 764 708 793 q 690 811 708 792 q 644 833 672 831 q 690 856 672 836 q 708 903 708 875 q 688 952 708 932 q 639 972 668 972 q 592 954 611 972 q 569 908 572 936 q 547 954 567 936 q 500 972 528 972 q 451 952 471 972 q 431 903 431 932 q 410 952 431 932 q 361 972 390 972 q 314 954 333 972 q 292 908 294 936 q 269 954 289 936 q 222 972 250 972 q 173 952 193 972 q 153 903 153 932 q 133 952 153 932 q 83 972 113 972 q 34 952 54 972 q 14 903 14 932 q 34 853 14 874 q 83 833 54 833 q 131 851 111 833 q 153 897 150 869 q 175 851 156 869 q 222 833 194 833 q 269 851 250 833 q 292 897 289 869 q 314 851 294 869 q 361 833 333 833 q 408 851 389 833 q 431 897 428 869 q 453 851 433 869 q 500 833 472 833 q 547 851 528 833 q 569 897 567 869 q 590 853 572 871 q 633 833 607 836 q 588 811 606 831 q 569 764 569 792 q 588 717 569 736 q 633 694 606 697 q 588 672 606 692 q 569 625 569 653 q 588 578 569 597 q 633 556 606 558 q 588 533 606 553 q 569 486 569 514 q 549 535 569 515 q 500 556 529 556 q 453 538 472 556 q 431 492 433 519 q 408 538 428 519 q 361 556 389 556 q 312 535 332 556 q 292 486 292 515 q 312 437 292 457 q 361 417 332 417 q 408 435 389 417 q 431 481 428 453 q 453 435 433 453 q 500 417 472 417 q 547 435 528 417 q 569 481 567 453 q 590 437 572 454 q 633 417 607 419 q 588 394 606 414 q 569 347 569 375 q 588 300 569 319 q 633 278 606 281 q 588 256 606 275 q 569 208 569 236 q 588 161 569 181 q 633 139 606 142 q 590 118 607 136 q 569 75 572 100 q 547 121 567 103 q 500 139 528 139 q 453 121 472 139 q 431 75 433 103 q 408 121 428 103 q 361 139 389 139 q 312 119 332 139 q 292 69 292 99 q 272 119 292 99 q 222 139 251 139 q 175 121 194 139 q 153 75 156 103 q 131 121 150 103 q 83 139 111 139 q 34 119 54 139 q 14 69 14 99 q 34 20 14 40 q 83 0 54 0 q 131 18 111 0 q 153 64 150 36 q 175 18 156 36 q 222 0 194 0 q 269 18 250 0 q 292 64 289 36 q 314 18 294 36 q 361 0 333 0 q 408 18 389 0 q 431 64 428 36 q 453 18 433 36 q 500 0 472 0 q 547 18 528 0 q 569 64 567 36 q 592 18 572 36 q 639 0 611 0 q 688 20 668 0 q 708 69 708 40 z "},"4":{"ha":1204,"x_min":0,"x_max":1065,"o":"m 350 474 q 363 454 357 465 q 369 431 368 443 q 404 418 389 428 q 431 396 419 408 q 460 421 442 411 q 500 431 479 431 q 541 420 524 431 q 569 394 558 410 q 592 415 576 407 q 556 486 556 435 q 565 526 556 507 q 590 556 575 544 q 567 581 576 565 q 556 615 558 596 q 513 636 526 618 l 496 653 q 485 639 490 646 q 472 628 479 632 l 486 614 q 485 615 486 615 q 485 617 485 615 l 489 613 q 510 556 510 592 q 487 499 510 522 q 431 476 464 476 q 374 497 394 476 l 357 514 q 346 500 351 507 q 333 489 340 493 l 350 474 m 417 903 q 440 963 417 939 q 500 986 464 986 q 540 976 521 986 q 569 951 558 967 q 599 976 581 967 q 639 986 618 986 q 678 976 660 986 q 708 951 697 967 q 738 976 719 967 q 778 986 757 986 q 824 972 804 986 q 854 936 844 958 l 900 890 q 899 892 900 892 q 899 893 899 892 l 903 889 q 926 833 926 865 q 888 764 926 786 l 897 756 q 896 756 896 756 q 894 757 896 757 l 903 750 q 926 694 926 726 q 888 625 926 647 l 903 611 q 926 556 926 588 q 888 486 926 508 l 903 472 q 924 431 919 453 q 965 415 947 428 q 993 381 983 401 l 1039 335 q 1038 336 1039 336 q 1038 338 1038 336 l 1042 333 q 1065 278 1065 310 q 1042 222 1065 244 q 986 199 1019 199 q 929 219 950 199 l 913 236 q 901 222 907 229 q 889 211 896 215 l 903 197 q 902 199 903 199 q 901 200 901 199 l 906 196 q 926 139 926 175 q 888 69 926 92 l 899 58 q 897 61 897 60 l 903 56 q 926 0 926 32 q 903 -56 926 -33 q 847 -79 881 -79 q 792 -56 815 -79 l 776 -40 q 748 -68 765 -57 q 708 -79 731 -79 q 651 -57 674 -79 l 599 -4 q 556 69 556 18 q 565 109 556 90 q 590 139 575 128 q 567 165 576 150 q 556 199 558 181 q 532 207 543 201 q 514 222 521 213 l 499 236 q 470 209 488 219 q 431 199 453 199 q 375 222 399 199 l 360 236 q 331 209 349 219 q 292 199 314 199 q 236 222 260 199 l 221 236 q 192 209 210 219 q 153 199 175 199 q 96 221 118 199 l 43 274 q 0 347 0 296 q 10 387 0 368 q 35 417 19 406 q 10 447 19 428 q 0 486 0 465 q 24 546 0 522 q 83 569 47 569 q 124 559 107 569 q 153 533 142 549 q 175 554 160 546 q 139 625 139 574 q 163 685 139 661 q 222 708 186 708 q 263 698 246 708 q 292 672 281 688 q 314 693 299 685 q 278 764 278 713 q 301 824 278 800 q 361 847 325 847 q 401 837 383 847 q 431 808 419 826 q 451 833 439 822 q 426 863 436 844 q 417 903 417 882 m 708 203 q 728 159 711 176 q 772 139 746 142 q 728 118 746 136 q 708 75 711 100 q 688 118 706 100 q 644 139 669 136 q 688 159 669 142 q 708 203 706 176 m 569 764 q 551 811 569 792 q 506 833 533 831 q 549 853 531 836 q 569 897 567 871 q 590 853 572 871 q 633 833 607 836 q 588 811 606 831 q 569 764 569 792 m 708 897 q 728 853 711 871 q 772 833 746 836 q 728 813 746 831 q 708 769 711 794 q 688 813 706 794 q 644 833 669 831 q 688 853 669 836 q 708 897 706 871 m 708 758 q 728 715 711 732 q 772 694 746 697 q 728 674 746 692 q 708 631 711 656 q 688 674 706 656 q 644 694 669 692 q 688 715 669 697 q 708 758 706 732 m 708 619 q 728 576 711 593 q 772 556 746 558 q 728 535 746 553 q 708 492 711 517 q 688 535 706 517 q 644 556 669 553 q 688 576 669 558 q 708 619 706 593 m 153 481 q 173 437 156 454 q 217 417 190 419 q 173 396 190 414 q 153 353 156 378 q 132 396 150 378 q 89 417 114 414 q 132 437 114 419 q 153 481 150 454 m 708 347 q 690 394 708 375 q 644 417 672 414 q 688 437 669 419 q 708 481 706 454 q 728 437 711 454 q 772 417 746 419 q 726 394 744 414 q 708 347 708 375 m 708 342 q 728 298 711 315 q 772 278 746 281 q 728 257 746 275 q 708 214 711 239 q 688 257 706 239 q 644 278 669 275 q 688 298 669 281 q 708 342 706 315 m 569 625 q 588 578 569 597 q 633 556 606 558 q 588 533 606 553 q 569 486 569 514 q 588 439 569 458 q 633 417 606 419 q 590 396 607 414 q 569 353 572 378 q 547 399 567 381 q 500 417 528 417 q 453 399 472 417 q 431 353 433 381 q 408 399 428 381 q 361 417 389 417 q 314 399 333 417 q 292 353 294 381 q 271 396 289 378 q 228 417 253 414 q 274 439 256 419 q 292 486 292 458 q 274 533 292 514 q 228 556 256 553 q 271 576 253 558 q 292 619 289 593 q 314 574 294 592 q 361 556 333 556 q 410 576 390 556 q 431 625 431 596 q 413 672 431 653 q 367 694 394 692 q 410 715 392 697 q 431 758 428 732 q 453 713 433 731 q 500 694 472 694 q 547 713 528 694 q 569 758 567 731 q 590 715 572 732 q 633 694 607 697 q 588 672 606 692 q 569 625 569 653 m 431 903 q 449 856 431 875 q 494 833 467 836 q 449 811 467 831 q 431 764 431 792 q 410 813 431 793 q 361 833 390 833 q 312 813 332 833 q 292 764 292 793 q 310 717 292 736 q 356 694 328 697 q 312 674 329 692 q 292 631 294 656 q 269 676 289 658 q 222 694 250 694 q 173 674 193 694 q 153 625 153 654 q 171 578 153 597 q 217 556 189 558 q 173 535 190 553 q 153 492 156 517 q 131 538 150 519 q 83 556 111 556 q 34 535 54 556 q 14 486 14 515 q 32 439 14 458 q 78 417 50 419 q 32 394 50 414 q 14 347 14 375 q 34 298 14 318 q 83 278 54 278 q 131 296 111 278 q 153 342 150 314 q 175 296 156 314 q 222 278 194 278 q 269 296 250 278 q 292 342 289 314 q 314 296 294 314 q 361 278 333 278 q 408 296 389 278 q 431 342 428 314 q 453 296 433 314 q 500 278 472 278 q 547 296 528 278 q 569 342 567 314 q 590 298 572 315 q 633 278 607 281 q 588 256 606 275 q 569 208 569 236 q 588 161 569 181 q 633 139 606 142 q 588 117 606 136 q 569 69 569 97 q 590 20 569 40 q 639 0 610 0 q 686 18 667 0 q 708 64 706 36 q 731 18 711 36 q 778 0 750 0 q 827 20 807 0 q 847 69 847 40 q 829 117 847 97 q 783 139 811 136 q 829 161 811 142 q 847 208 847 181 q 829 256 847 236 q 783 278 811 275 q 826 298 808 281 q 847 342 844 315 q 869 296 850 314 q 917 278 889 278 q 966 298 946 278 q 986 347 986 318 q 966 397 986 376 q 917 417 946 417 q 869 399 889 417 q 847 353 850 381 q 826 396 844 378 q 783 417 808 414 q 829 439 811 419 q 847 486 847 458 q 829 533 847 514 q 783 556 811 553 q 829 578 811 558 q 847 625 847 597 q 829 672 847 653 q 783 694 811 692 q 829 717 811 697 q 847 764 847 736 q 829 811 847 792 q 783 833 811 831 q 829 856 811 836 q 847 903 847 875 q 827 952 847 932 q 778 972 807 972 q 731 954 750 972 q 708 908 711 936 q 686 954 706 936 q 639 972 667 972 q 592 954 611 972 q 569 908 572 936 q 547 954 567 936 q 500 972 528 972 q 451 952 471 972 q 431 903 431 932 z "},"5":{"ha":1065,"x_min":0,"x_max":926,"o":"m 0 764 q 10 803 0 785 q 35 833 19 822 q 10 863 19 844 q 0 903 0 882 q 24 963 0 939 q 83 986 47 986 q 123 976 104 986 q 153 951 142 967 q 183 976 164 967 q 222 986 201 986 q 262 976 243 986 q 292 951 281 967 q 322 976 303 967 q 361 986 340 986 q 401 976 382 986 q 431 951 419 967 q 460 976 442 967 q 500 986 479 986 q 540 976 522 986 q 569 947 558 965 q 639 986 592 986 q 678 976 660 986 q 708 951 697 967 q 738 976 719 967 q 778 986 757 986 q 824 973 804 986 q 854 938 844 960 l 903 889 q 926 833 926 865 q 903 777 926 800 q 847 754 881 754 q 792 778 815 754 l 776 792 q 748 765 765 775 q 708 754 731 754 q 653 778 676 754 l 638 792 q 609 765 626 775 q 569 754 592 754 q 539 760 553 754 q 514 778 525 767 l 499 792 q 470 765 488 775 q 431 754 453 754 q 374 775 394 754 l 357 792 q 346 778 351 785 q 333 767 340 771 l 350 751 q 363 732 357 743 q 369 707 368 721 q 404 695 389 704 q 431 674 419 686 q 460 699 442 689 q 500 708 479 708 q 540 699 521 708 q 569 674 558 689 q 599 699 581 689 q 639 708 618 708 q 685 694 665 708 q 715 658 706 681 l 761 613 q 760 614 761 614 q 760 615 760 614 l 764 611 q 785 569 781 592 q 826 553 808 567 q 854 519 844 540 l 900 474 q 899 475 900 475 q 899 476 899 475 l 903 472 q 926 417 926 449 q 888 347 926 369 l 903 333 q 926 278 926 310 q 888 208 926 231 l 903 194 q 926 139 926 171 q 903 83 926 106 q 847 60 881 60 q 790 81 811 60 l 774 97 q 763 83 768 90 q 750 72 757 76 l 764 58 q 763 60 764 60 q 763 61 763 60 l 767 57 q 788 0 788 36 q 765 -56 788 -33 q 708 -79 742 -79 q 653 -56 676 -79 l 638 -40 q 609 -68 626 -57 q 569 -79 592 -79 q 514 -56 538 -79 l 499 -40 q 470 -68 488 -57 q 431 -79 453 -79 q 375 -56 399 -79 l 360 -40 q 331 -68 349 -57 q 292 -79 314 -79 q 236 -56 260 -79 l 221 -40 q 192 -68 210 -57 q 153 -79 175 -79 q 96 -57 118 -79 l 43 -4 q 0 69 0 18 q 24 129 0 106 q 83 153 47 153 q 124 142 106 153 q 153 114 142 132 q 222 153 175 153 q 262 143 243 153 q 292 118 281 133 q 322 143 303 133 q 361 153 340 153 q 401 142 383 153 q 431 114 419 132 q 500 153 453 153 q 541 142 524 153 q 569 117 558 132 q 592 138 576 129 q 556 208 556 157 q 565 248 556 229 q 590 278 575 267 q 565 308 575 289 q 556 347 556 326 q 565 387 556 368 q 590 417 575 406 q 567 443 576 428 q 556 476 558 458 q 532 485 543 479 q 514 500 521 490 l 499 514 q 470 487 488 497 q 431 476 453 476 q 400 483 414 476 q 375 500 386 489 l 360 514 q 331 487 349 497 q 292 476 314 476 q 261 483 275 476 q 236 500 247 489 l 221 514 q 192 487 210 497 q 153 476 175 476 q 96 499 118 476 l 43 551 q 0 625 0 574 q 10 665 0 646 q 35 694 19 683 q 10 724 19 706 q 0 764 0 743 m 153 897 q 173 853 156 871 q 217 833 190 836 q 173 813 190 831 q 153 769 156 794 q 132 813 150 794 q 89 833 114 831 q 132 853 114 836 q 153 897 150 871 m 153 758 q 173 715 156 732 q 217 694 190 697 q 173 674 190 692 q 153 631 156 656 q 132 674 150 656 q 89 694 114 692 q 132 715 114 697 q 153 758 150 732 m 708 481 q 728 437 711 454 q 772 417 746 419 q 728 396 746 414 q 708 353 711 378 q 688 396 706 378 q 644 417 669 414 q 688 437 669 419 q 708 481 706 454 m 644 278 q 688 298 669 281 q 708 342 706 315 q 728 298 711 315 q 772 278 746 281 q 728 257 746 275 q 708 214 711 239 q 688 257 706 239 q 644 278 669 275 m 14 764 q 32 717 14 736 q 78 694 50 697 q 32 672 50 692 q 14 625 14 653 q 34 576 14 596 q 83 556 54 556 q 131 574 111 556 q 153 619 150 592 q 175 574 156 592 q 222 556 194 556 q 269 574 250 556 q 292 619 289 592 q 314 574 294 592 q 361 556 333 556 q 408 574 389 556 q 431 619 428 592 q 453 574 433 592 q 500 556 472 556 q 547 574 528 556 q 569 619 567 592 q 590 576 572 593 q 633 556 607 558 q 588 533 606 553 q 569 486 569 514 q 588 439 569 458 q 633 417 606 419 q 588 394 606 414 q 569 347 569 375 q 588 300 569 319 q 633 278 606 281 q 588 256 606 275 q 569 208 569 236 q 588 161 569 181 q 633 139 606 142 q 590 118 607 136 q 569 75 572 100 q 547 121 567 103 q 500 139 528 139 q 451 119 471 139 q 431 69 431 99 q 410 119 431 99 q 361 139 390 139 q 314 121 333 139 q 292 75 294 103 q 269 121 289 103 q 222 139 250 139 q 173 119 193 139 q 153 69 153 99 q 133 119 153 99 q 83 139 113 139 q 34 119 54 139 q 14 69 14 99 q 34 20 14 40 q 83 0 54 0 q 131 18 111 0 q 153 64 150 36 q 175 18 156 36 q 222 0 194 0 q 269 18 250 0 q 292 64 289 36 q 314 18 294 36 q 361 0 333 0 q 408 18 389 0 q 431 64 428 36 q 453 18 433 36 q 500 0 472 0 q 547 18 528 0 q 569 64 567 36 q 592 18 572 36 q 639 0 611 0 q 688 20 668 0 q 708 69 708 40 q 690 117 708 97 q 644 139 672 136 q 688 159 669 142 q 708 203 706 176 q 731 157 711 175 q 778 139 750 139 q 827 159 807 139 q 847 208 847 179 q 829 256 847 236 q 783 278 811 275 q 829 300 811 281 q 847 347 847 319 q 829 394 847 375 q 783 417 811 414 q 829 439 811 419 q 847 486 847 458 q 827 535 847 515 q 778 556 807 556 q 728 535 749 556 q 708 486 708 515 q 690 533 708 514 q 644 556 672 553 q 690 578 672 558 q 708 625 708 597 q 688 674 708 654 q 639 694 668 694 q 592 676 611 694 q 569 631 572 658 q 547 676 567 658 q 500 694 528 694 q 453 676 472 694 q 431 631 433 658 q 408 676 428 658 q 361 694 389 694 q 314 676 333 694 q 292 631 294 658 q 271 674 289 656 q 228 694 253 692 q 274 717 256 697 q 292 764 292 736 q 274 811 292 792 q 228 833 256 831 q 271 853 253 836 q 292 897 289 871 q 314 851 294 869 q 361 833 333 833 q 408 851 389 833 q 431 897 428 869 q 453 851 433 869 q 500 833 472 833 q 547 851 528 833 q 569 897 567 869 q 592 851 572 869 q 639 833 611 833 q 686 851 667 833 q 708 897 706 869 q 731 851 711 869 q 778 833 750 833 q 827 853 807 833 q 847 903 847 874 q 827 952 847 932 q 778 972 807 972 q 731 954 750 972 q 708 908 711 936 q 686 954 706 936 q 639 972 667 972 q 590 952 610 972 q 569 903 569 932 q 549 952 569 932 q 500 972 529 972 q 453 954 472 972 q 431 908 433 936 q 408 954 428 936 q 361 972 389 972 q 314 954 333 972 q 292 908 294 936 q 269 954 289 936 q 222 972 250 972 q 175 954 194 972 q 153 908 156 936 q 131 954 150 936 q 83 972 111 972 q 34 952 54 972 q 14 903 14 932 q 32 856 14 875 q 78 833 50 836 q 32 811 50 831 q 14 764 14 792 z "},"6":{"ha":1065,"x_min":0,"x_max":926,"o":"m 347 194 q 368 153 364 175 q 403 140 388 150 q 431 118 419 131 q 460 143 442 133 q 500 153 479 153 q 541 142 524 153 q 569 117 558 132 q 592 138 576 129 q 556 208 556 157 q 565 248 556 229 q 590 278 575 267 q 567 304 576 289 q 556 338 558 319 q 532 346 543 340 q 514 361 521 351 l 499 375 q 470 348 488 358 q 431 338 453 338 q 374 358 394 338 l 357 375 q 346 361 351 368 q 333 350 340 354 l 350 335 q 371 278 371 314 q 332 208 371 231 l 347 194 m 278 903 q 301 963 278 939 q 361 986 325 986 q 401 976 383 986 q 431 947 419 965 q 500 986 453 986 q 540 976 521 986 q 569 951 558 967 q 599 976 581 967 q 639 986 618 986 q 678 976 660 986 q 708 951 697 967 q 738 976 719 967 q 778 986 757 986 q 824 973 804 986 q 854 938 844 960 l 903 889 q 926 833 926 865 q 903 777 926 800 q 847 754 881 754 q 792 778 815 754 l 776 792 q 748 765 765 775 q 708 754 731 754 q 653 778 676 754 l 638 792 q 609 765 626 775 q 569 754 592 754 q 513 775 533 754 l 496 792 q 485 778 490 785 q 472 767 479 771 l 489 751 q 510 694 510 731 q 487 638 510 661 q 431 615 464 615 q 374 636 394 615 l 357 653 q 346 639 351 646 q 333 628 340 632 l 347 614 q 347 615 347 615 q 346 617 346 615 l 350 613 q 363 593 357 604 q 369 568 368 582 q 404 556 389 565 q 431 535 419 547 q 460 560 442 550 q 500 569 479 569 q 540 560 521 569 q 569 535 558 550 q 599 560 581 550 q 639 569 618 569 q 685 556 665 569 q 715 519 706 542 l 761 474 q 760 475 761 475 q 760 476 760 475 l 764 472 q 785 431 781 453 q 826 415 808 428 q 854 381 844 401 l 900 335 q 899 336 900 336 q 899 338 899 336 l 903 333 q 926 278 926 310 q 888 208 926 231 l 894 201 q 894 203 894 203 q 893 204 893 203 l 903 194 q 926 139 926 171 q 903 83 926 106 q 847 60 881 60 q 790 81 811 60 l 774 97 q 763 83 768 90 q 750 72 757 76 l 764 58 q 763 60 764 60 q 763 61 763 60 l 767 57 q 788 0 788 36 q 765 -56 788 -33 q 708 -79 742 -79 q 653 -56 676 -79 l 638 -40 q 609 -68 626 -57 q 569 -79 592 -79 q 514 -56 538 -79 l 499 -40 q 470 -68 488 -57 q 431 -79 453 -79 q 375 -56 399 -79 l 360 -40 q 331 -68 349 -57 q 292 -79 314 -79 q 235 -57 257 -79 l 182 -4 q 153 22 164 6 q 139 60 142 39 q 96 82 111 63 l 43 135 q 0 208 0 157 q 10 248 0 229 q 35 278 19 267 q 10 308 19 289 q 0 347 0 326 q 10 387 0 368 q 35 417 19 406 q 10 447 19 428 q 0 486 0 465 q 10 526 0 507 q 35 556 19 544 q 10 585 19 567 q 0 625 0 604 q 24 685 0 661 q 83 708 47 708 q 124 698 107 708 q 153 672 142 688 q 175 693 160 685 q 139 764 139 713 q 163 824 139 800 q 222 847 186 847 q 263 837 244 847 q 292 808 281 826 q 313 833 300 822 q 288 863 297 844 q 278 903 278 882 m 153 347 q 135 394 153 375 q 89 417 117 414 q 132 437 114 419 q 153 481 150 454 q 173 437 156 454 q 217 417 190 419 q 171 394 189 414 q 153 347 153 375 m 708 342 q 728 298 711 315 q 772 278 746 281 q 728 257 746 275 q 708 214 711 239 q 688 257 706 239 q 644 278 669 275 q 688 298 669 281 q 708 342 706 315 m 153 619 q 173 576 156 593 q 217 556 190 558 q 173 535 190 553 q 153 492 156 517 q 132 535 150 517 q 89 556 114 553 q 132 576 114 558 q 153 619 150 593 m 153 342 q 173 298 156 315 q 217 278 190 281 q 173 257 190 275 q 153 214 156 239 q 132 257 150 239 q 89 278 114 275 q 132 298 114 281 q 153 342 150 315 m 569 347 q 588 300 569 319 q 633 278 606 281 q 588 256 606 275 q 569 208 569 236 q 588 161 569 181 q 633 139 606 142 q 590 118 607 136 q 569 75 572 100 q 547 121 567 103 q 500 139 528 139 q 453 121 472 139 q 431 75 433 103 q 408 121 428 103 q 361 139 389 139 q 314 121 333 139 q 292 75 294 103 q 271 118 289 100 q 228 139 253 136 q 274 161 256 142 q 292 208 292 181 q 274 256 292 236 q 228 278 256 275 q 274 300 256 281 q 292 347 292 319 q 274 394 292 375 q 228 417 256 414 q 271 437 253 419 q 292 481 289 454 q 314 435 294 453 q 361 417 333 417 q 408 435 389 417 q 431 481 428 453 q 453 435 433 453 q 500 417 472 417 q 547 435 528 417 q 569 481 567 453 q 590 437 572 454 q 633 417 607 419 q 588 394 606 414 q 569 347 569 375 m 292 903 q 310 856 292 875 q 356 833 328 836 q 310 811 328 831 q 292 764 292 792 q 272 813 292 793 q 222 833 251 833 q 173 813 193 833 q 153 764 153 793 q 171 717 153 736 q 217 694 189 697 q 173 674 190 692 q 153 631 156 656 q 131 676 150 658 q 83 694 111 694 q 34 674 54 694 q 14 625 14 654 q 32 578 14 597 q 78 556 50 558 q 32 533 50 553 q 14 486 14 514 q 32 439 14 458 q 78 417 50 419 q 32 394 50 414 q 14 347 14 375 q 32 300 14 319 q 78 278 50 281 q 32 256 50 275 q 14 208 14 236 q 34 159 14 179 q 83 139 54 139 q 131 157 111 139 q 153 203 150 175 q 173 159 156 176 q 217 139 190 142 q 171 117 189 136 q 153 69 153 97 q 173 20 153 40 q 222 0 193 0 q 269 18 250 0 q 292 64 289 36 q 314 18 294 36 q 361 0 333 0 q 408 18 389 0 q 431 64 428 36 q 453 18 433 36 q 500 0 472 0 q 547 18 528 0 q 569 64 567 36 q 592 18 572 36 q 639 0 611 0 q 688 20 668 0 q 708 69 708 40 q 690 117 708 97 q 644 139 672 136 q 688 159 669 142 q 708 203 706 176 q 731 157 711 175 q 778 139 750 139 q 827 159 807 139 q 847 208 847 179 q 829 256 847 236 q 783 278 811 275 q 829 300 811 281 q 847 347 847 319 q 827 397 847 376 q 778 417 807 417 q 731 399 750 417 q 708 353 711 381 q 688 396 706 378 q 644 417 669 414 q 690 439 672 419 q 708 486 708 458 q 688 535 708 515 q 639 556 668 556 q 592 538 611 556 q 569 492 572 519 q 547 538 567 519 q 500 556 528 556 q 453 538 472 556 q 431 492 433 519 q 408 538 428 519 q 361 556 389 556 q 314 538 333 556 q 292 492 294 519 q 271 535 289 517 q 228 556 253 553 q 274 578 256 558 q 292 625 292 597 q 274 672 292 653 q 228 694 256 692 q 271 715 253 697 q 292 758 289 732 q 314 713 294 731 q 361 694 333 694 q 410 715 390 694 q 431 764 431 735 q 413 811 431 792 q 367 833 394 831 q 410 853 392 836 q 431 897 428 871 q 453 851 433 869 q 500 833 472 833 q 547 851 528 833 q 569 897 567 869 q 592 851 572 869 q 639 833 611 833 q 686 851 667 833 q 708 897 706 869 q 731 851 711 869 q 778 833 750 833 q 827 853 807 833 q 847 903 847 874 q 827 952 847 932 q 778 972 807 972 q 731 954 750 972 q 708 908 711 936 q 686 954 706 936 q 639 972 667 972 q 592 954 611 972 q 569 908 572 936 q 547 954 567 936 q 500 972 528 972 q 451 952 471 972 q 431 903 431 932 q 410 952 431 932 q 361 972 390 972 q 312 952 332 972 q 292 903 292 932 z "},"7":{"ha":1065,"x_min":0,"x_max":926,"o":"m 43 -4 q 0 69 0 18 q 10 109 0 90 q 35 139 19 128 q 10 169 19 150 q 0 208 0 188 q 24 268 0 244 q 83 292 47 292 q 124 281 107 292 q 153 256 142 271 q 175 276 160 268 q 139 347 139 296 q 163 407 139 383 q 222 431 186 431 q 263 420 246 431 q 292 394 281 410 q 314 415 299 407 q 278 486 278 435 q 301 546 278 522 q 361 569 325 569 q 401 559 383 569 q 431 531 419 549 q 451 556 439 544 q 426 585 436 567 q 417 625 417 604 q 440 685 417 661 q 500 708 464 708 q 540 698 522 708 q 569 669 558 688 q 590 694 578 683 q 567 721 576 706 q 556 754 558 736 q 532 763 543 757 q 514 778 521 768 l 499 792 q 470 765 488 775 q 431 754 453 754 q 400 760 414 754 q 375 778 386 767 l 360 792 q 331 765 349 775 q 292 754 314 754 q 261 760 275 754 q 236 778 247 767 l 221 792 q 192 765 210 775 q 153 754 175 754 q 96 776 118 754 l 43 829 q 0 903 0 851 q 24 963 0 939 q 83 986 47 986 q 123 976 104 986 q 153 951 142 967 q 183 976 164 967 q 222 986 201 986 q 262 976 243 986 q 292 951 281 967 q 322 976 303 967 q 361 986 340 986 q 401 976 382 986 q 431 951 419 967 q 460 976 442 967 q 500 986 479 986 q 540 976 521 986 q 569 951 558 967 q 599 976 581 967 q 639 986 618 986 q 679 976 661 986 q 708 947 697 965 q 778 986 731 986 q 824 973 804 986 q 854 938 844 960 l 903 889 q 926 833 926 865 q 888 764 926 786 l 903 750 q 926 694 926 726 q 903 638 926 661 q 847 615 881 615 q 790 636 811 615 l 774 653 q 763 639 768 646 q 750 628 757 632 l 767 613 q 788 556 788 592 q 765 499 788 522 q 708 476 742 476 q 651 497 672 476 l 635 514 q 624 500 629 507 q 611 489 618 493 l 625 475 q 624 476 625 476 q 624 478 624 476 l 628 474 q 649 417 649 453 q 626 360 649 383 q 569 338 603 338 q 513 358 533 338 l 496 375 q 485 361 490 368 q 472 350 479 354 l 489 335 q 510 278 510 314 q 487 222 510 244 q 431 199 464 199 q 374 219 394 199 l 357 236 q 346 222 351 229 q 333 211 340 215 l 350 196 q 371 139 371 175 q 332 69 371 92 l 347 56 q 371 0 371 32 q 348 -56 371 -33 q 292 -79 325 -79 q 236 -56 260 -79 l 221 -40 q 192 -68 210 -57 q 153 -79 175 -79 q 96 -57 118 -79 l 43 -4 m 708 897 q 728 853 711 871 q 772 833 746 836 q 728 813 746 831 q 708 769 711 794 q 688 813 706 794 q 644 833 669 831 q 688 853 669 836 q 708 897 706 871 m 153 203 q 173 159 156 176 q 217 139 190 142 q 173 118 190 136 q 153 75 156 100 q 132 118 150 100 q 89 139 114 136 q 132 159 114 142 q 153 203 150 176 m 569 764 q 588 717 569 736 q 633 694 606 697 q 588 672 606 692 q 569 625 569 653 q 549 674 569 654 q 500 694 529 694 q 451 674 471 694 q 431 625 431 654 q 449 578 431 597 q 494 556 467 558 q 449 533 467 553 q 431 486 431 514 q 410 535 431 515 q 361 556 390 556 q 312 535 332 556 q 292 486 292 515 q 310 439 292 458 q 356 417 328 419 q 312 396 329 414 q 292 353 294 378 q 269 399 289 381 q 222 417 250 417 q 173 397 193 417 q 153 347 153 376 q 171 300 153 319 q 217 278 189 281 q 173 257 190 275 q 153 214 156 239 q 131 260 150 242 q 83 278 111 278 q 34 258 54 278 q 14 208 14 238 q 32 161 14 181 q 78 139 50 142 q 32 117 50 136 q 14 69 14 97 q 34 20 14 40 q 83 0 54 0 q 131 18 111 0 q 153 64 150 36 q 175 18 156 36 q 222 0 194 0 q 272 20 251 0 q 292 69 292 40 q 274 117 292 97 q 228 139 256 136 q 274 161 256 142 q 292 208 292 181 q 274 256 292 236 q 228 278 256 275 q 271 298 253 281 q 292 342 289 315 q 314 296 294 314 q 361 278 333 278 q 410 298 390 278 q 431 347 431 318 q 413 394 431 375 q 367 417 394 414 q 410 437 392 419 q 431 481 428 454 q 453 435 433 453 q 500 417 472 417 q 549 437 529 417 q 569 486 569 457 q 551 533 569 514 q 506 556 533 553 q 549 576 531 558 q 569 619 567 593 q 592 574 572 592 q 639 556 611 556 q 688 576 668 556 q 708 625 708 596 q 690 672 708 653 q 644 694 672 692 q 688 715 669 697 q 708 758 706 732 q 731 713 711 731 q 778 694 750 694 q 827 715 807 694 q 847 764 847 735 q 829 811 847 792 q 783 833 811 831 q 829 856 811 836 q 847 903 847 875 q 827 952 847 932 q 778 972 807 972 q 728 952 749 972 q 708 903 708 932 q 688 952 708 932 q 639 972 668 972 q 592 954 611 972 q 569 908 572 936 q 547 954 567 936 q 500 972 528 972 q 453 954 472 972 q 431 908 433 936 q 408 954 428 936 q 361 972 389 972 q 314 954 333 972 q 292 908 294 936 q 269 954 289 936 q 222 972 250 972 q 175 954 194 972 q 153 908 156 936 q 131 954 150 936 q 83 972 111 972 q 34 952 54 972 q 14 903 14 932 q 34 853 14 874 q 83 833 54 833 q 131 851 111 833 q 153 897 150 869 q 175 851 156 869 q 222 833 194 833 q 269 851 250 833 q 292 897 289 869 q 314 851 294 869 q 361 833 333 833 q 408 851 389 833 q 431 897 428 869 q 453 851 433 869 q 500 833 472 833 q 547 851 528 833 q 569 897 567 869 q 590 853 572 871 q 633 833 607 836 q 588 811 606 831 q 569 764 569 792 z "},"8":{"ha":1065,"x_min":0,"x_max":926,"o":"m 347 611 q 368 569 364 592 q 403 557 388 567 q 431 535 419 547 q 460 560 442 550 q 500 569 479 569 q 541 559 524 569 q 569 533 558 549 q 592 554 576 546 q 556 625 556 574 q 565 665 556 646 q 590 694 575 683 q 567 721 576 706 q 556 754 558 736 q 532 763 543 757 q 514 778 521 768 l 499 792 q 470 765 488 775 q 431 754 453 754 q 374 775 394 754 l 357 792 q 346 778 351 785 q 333 767 340 771 l 350 751 q 371 694 371 731 q 332 625 371 647 l 347 611 m 347 194 q 368 153 364 175 q 403 140 388 150 q 431 118 419 131 q 460 143 442 133 q 500 153 479 153 q 540 142 522 153 q 569 114 558 132 q 590 139 578 128 q 565 169 575 150 q 556 208 556 188 q 565 248 556 229 q 590 278 575 267 q 567 304 576 289 q 556 338 558 319 q 532 346 543 340 q 514 361 521 351 l 499 375 q 470 348 488 358 q 431 338 453 338 q 374 358 394 338 l 357 375 q 346 361 351 368 q 333 350 340 354 l 350 335 q 371 278 371 314 q 332 208 371 231 l 347 194 m 139 903 q 163 963 139 939 q 222 986 186 986 q 262 976 243 986 q 292 951 281 967 q 322 976 303 967 q 361 986 340 986 q 401 976 382 986 q 431 951 419 967 q 460 976 442 967 q 500 986 479 986 q 540 976 522 986 q 569 947 558 965 q 639 986 592 986 q 685 973 665 986 q 715 938 706 960 l 764 889 q 785 847 781 869 q 826 831 808 844 q 854 799 844 818 l 903 750 q 926 694 926 726 q 888 625 926 647 l 894 618 q 894 619 894 619 q 893 621 893 619 l 903 611 q 926 556 926 588 q 903 499 926 522 q 847 476 881 476 q 790 497 811 476 l 774 514 q 763 500 768 507 q 750 489 757 493 l 767 474 q 765 474 765 474 q 764 475 765 475 l 767 474 q 779 454 774 465 q 786 431 785 443 q 827 415 810 428 q 854 381 844 401 l 900 335 q 899 336 900 336 q 899 338 899 336 l 903 333 q 926 278 926 310 q 888 208 926 231 l 894 201 q 894 203 894 203 q 893 204 893 203 l 903 194 q 926 139 926 171 q 903 83 926 106 q 847 60 881 60 q 790 81 811 60 l 774 97 q 763 83 768 90 q 750 72 757 76 l 764 58 q 763 60 764 60 q 763 61 763 60 l 767 57 q 788 0 788 36 q 765 -56 788 -33 q 708 -79 742 -79 q 653 -56 676 -79 l 638 -40 q 609 -68 626 -57 q 569 -79 592 -79 q 514 -56 538 -79 l 499 -40 q 470 -68 488 -57 q 431 -79 453 -79 q 375 -56 399 -79 l 360 -40 q 331 -68 349 -57 q 292 -79 314 -79 q 235 -57 257 -79 l 182 -4 q 153 22 164 6 q 139 60 142 39 q 96 82 111 63 l 43 135 q 0 208 0 157 q 10 248 0 229 q 35 278 19 267 q 10 308 19 289 q 0 347 0 326 q 24 407 0 383 q 83 431 47 431 q 124 420 107 431 q 153 394 142 410 q 175 415 160 407 q 139 476 142 435 q 96 499 111 479 l 43 551 q 0 625 0 574 q 10 665 0 646 q 35 694 19 683 q 10 724 19 706 q 0 764 0 743 q 24 824 0 800 q 83 847 47 847 q 124 837 107 847 q 153 811 142 826 q 175 832 160 824 q 139 903 139 851 m 772 278 q 728 257 746 275 q 708 214 711 239 q 688 257 706 239 q 644 278 669 275 q 688 298 669 281 q 708 342 706 315 q 728 298 711 315 q 772 278 746 281 m 772 694 q 728 674 746 692 q 708 631 711 656 q 688 674 706 656 q 644 694 669 692 q 688 715 669 697 q 708 758 706 732 q 728 715 711 732 q 772 694 746 697 m 217 278 q 173 257 190 275 q 153 214 156 239 q 132 257 150 239 q 89 278 114 275 q 132 298 114 281 q 153 342 150 315 q 173 298 156 315 q 217 278 190 281 m 217 694 q 173 674 190 692 q 153 631 156 656 q 132 674 150 656 q 89 694 114 692 q 132 715 114 697 q 153 758 150 732 q 173 715 156 732 q 217 694 190 697 m 569 347 q 588 300 569 319 q 633 278 606 281 q 588 256 606 275 q 569 208 569 236 q 588 161 569 181 q 633 139 606 142 q 588 117 606 136 q 569 69 569 97 q 549 119 569 99 q 500 139 529 139 q 453 121 472 139 q 431 75 433 103 q 408 121 428 103 q 361 139 389 139 q 312 119 332 139 q 292 69 292 99 q 274 117 292 97 q 228 139 256 136 q 274 161 256 142 q 292 208 292 181 q 274 256 292 236 q 228 278 256 275 q 274 300 256 281 q 292 347 292 319 q 274 394 292 375 q 228 417 256 414 q 271 437 253 419 q 292 481 289 454 q 314 435 294 453 q 361 417 333 417 q 408 435 389 417 q 431 481 428 453 q 453 435 433 453 q 500 417 472 417 q 547 435 528 417 q 569 481 567 453 q 590 437 572 454 q 633 417 607 419 q 588 394 606 414 q 569 347 569 375 m 569 764 q 588 717 569 736 q 633 694 606 697 q 588 672 606 692 q 569 625 569 653 q 588 578 569 597 q 633 556 606 558 q 590 535 607 553 q 569 492 572 517 q 547 538 567 519 q 500 556 528 556 q 453 538 472 556 q 431 492 433 519 q 408 538 428 519 q 361 556 389 556 q 314 538 333 556 q 292 492 294 519 q 271 535 289 517 q 228 556 253 553 q 274 578 256 558 q 292 625 292 597 q 274 672 292 653 q 228 694 256 692 q 274 717 256 697 q 292 764 292 736 q 274 811 292 792 q 228 833 256 831 q 271 853 253 836 q 292 897 289 871 q 314 851 294 869 q 361 833 333 833 q 408 851 389 833 q 431 897 428 869 q 453 851 433 869 q 500 833 472 833 q 547 851 528 833 q 569 897 567 869 q 590 853 572 871 q 633 833 607 836 q 588 811 606 831 q 569 764 569 792 m 153 903 q 171 856 153 875 q 217 833 189 836 q 173 813 190 831 q 153 769 156 794 q 131 815 150 797 q 83 833 111 833 q 34 813 54 833 q 14 764 14 793 q 32 717 14 736 q 78 694 50 697 q 32 672 50 692 q 14 625 14 653 q 34 576 14 596 q 83 556 54 556 q 131 574 111 556 q 153 619 150 592 q 173 576 156 593 q 217 556 190 558 q 171 533 189 553 q 153 486 153 514 q 171 439 153 458 q 217 417 189 419 q 173 396 190 414 q 153 353 156 378 q 131 399 150 381 q 83 417 111 417 q 34 397 54 417 q 14 347 14 376 q 32 300 14 319 q 78 278 50 281 q 32 256 50 275 q 14 208 14 236 q 34 159 14 179 q 83 139 54 139 q 131 157 111 139 q 153 203 150 175 q 173 159 156 176 q 217 139 190 142 q 171 117 189 136 q 153 69 153 97 q 173 20 153 40 q 222 0 193 0 q 269 18 250 0 q 292 64 289 36 q 314 18 294 36 q 361 0 333 0 q 408 18 389 0 q 431 64 428 36 q 453 18 433 36 q 500 0 472 0 q 547 18 528 0 q 569 64 567 36 q 592 18 572 36 q 639 0 611 0 q 688 20 668 0 q 708 69 708 40 q 690 117 708 97 q 644 139 672 136 q 688 159 669 142 q 708 203 706 176 q 731 157 711 175 q 778 139 750 139 q 827 159 807 139 q 847 208 847 179 q 829 256 847 236 q 783 278 811 275 q 829 300 811 281 q 847 347 847 319 q 827 397 847 376 q 778 417 807 417 q 728 397 749 417 q 708 347 708 376 q 690 394 708 375 q 644 417 672 414 q 690 439 672 419 q 708 486 708 458 q 690 533 708 514 q 644 556 672 553 q 688 576 669 558 q 708 619 706 593 q 731 574 711 592 q 778 556 750 556 q 827 576 807 556 q 847 625 847 596 q 829 672 847 653 q 783 694 811 692 q 829 717 811 697 q 847 764 847 736 q 827 813 847 793 q 778 833 807 833 q 731 815 750 833 q 708 769 711 797 q 688 813 706 794 q 644 833 669 831 q 690 856 672 836 q 708 903 708 875 q 688 952 708 932 q 639 972 668 972 q 590 952 610 972 q 569 903 569 932 q 549 952 569 932 q 500 972 529 972 q 453 954 472 972 q 431 908 433 936 q 408 954 428 936 q 361 972 389 972 q 314 954 333 972 q 292 908 294 936 q 269 954 289 936 q 222 972 250 972 q 173 952 193 972 q 153 903 153 932 z "},"9":{"ha":1065,"x_min":0,"x_max":926,"o":"m 347 611 q 368 569 364 592 q 403 557 388 567 q 431 535 419 547 q 460 560 442 550 q 500 569 479 569 q 541 559 524 569 q 569 533 558 549 q 592 554 576 546 q 556 625 556 574 q 565 665 556 646 q 590 694 575 683 q 567 721 576 706 q 556 754 558 736 q 532 763 543 757 q 514 778 521 768 l 499 792 q 470 765 488 775 q 431 754 453 754 q 374 775 394 754 l 357 792 q 346 778 351 785 q 333 767 340 771 l 350 751 q 371 694 371 731 q 332 625 371 647 l 339 618 q 338 619 339 619 q 338 621 338 619 l 347 611 m 139 903 q 163 963 139 939 q 222 986 186 986 q 262 976 243 986 q 292 951 281 967 q 322 976 303 967 q 361 986 340 986 q 401 976 382 986 q 431 951 419 967 q 460 976 442 967 q 500 986 479 986 q 540 976 521 986 q 569 951 558 967 q 599 976 581 967 q 639 986 618 986 q 685 973 665 986 q 715 938 706 960 l 764 889 q 785 847 781 869 q 826 831 808 844 q 854 797 844 818 l 900 751 q 899 753 900 753 q 899 754 899 753 l 903 750 q 926 694 926 726 q 888 625 926 647 l 903 611 q 926 556 926 588 q 888 486 926 508 l 894 479 q 894 481 894 481 q 893 482 893 481 l 903 472 q 926 417 926 449 q 888 347 926 369 l 897 339 q 896 340 896 339 q 894 340 896 340 l 903 333 q 926 278 926 310 q 888 208 926 231 l 903 194 q 926 139 926 171 q 903 83 926 106 q 847 60 881 60 q 790 81 811 60 l 774 97 q 763 83 768 90 q 750 72 757 76 l 767 57 q 788 0 788 36 q 765 -56 788 -33 q 708 -79 742 -79 q 653 -56 676 -79 l 638 -40 q 609 -68 626 -57 q 569 -79 592 -79 q 514 -56 538 -79 l 499 -40 q 470 -68 488 -57 q 431 -79 453 -79 q 375 -56 399 -79 l 360 -40 q 331 -68 349 -57 q 292 -79 314 -79 q 235 -57 257 -79 l 182 -4 q 139 69 139 18 q 163 129 139 106 q 222 153 186 153 q 262 143 243 153 q 292 118 281 133 q 322 143 303 133 q 361 153 340 153 q 401 143 382 153 q 431 118 419 133 q 460 143 442 133 q 500 153 479 153 q 540 142 522 153 q 569 114 558 132 q 590 139 578 128 q 565 169 575 150 q 556 208 556 188 q 565 248 556 229 q 590 278 575 267 q 567 304 576 289 q 556 338 558 319 q 532 346 543 340 q 514 361 521 351 l 499 375 q 470 348 488 358 q 431 338 453 338 q 375 361 399 338 l 360 375 q 331 348 349 358 q 292 338 314 338 q 235 360 257 338 l 182 413 q 153 439 164 422 q 139 476 142 456 q 96 499 111 479 l 43 551 q 0 625 0 574 q 10 665 0 646 q 35 694 19 683 q 10 724 19 706 q 0 764 0 743 q 24 824 0 800 q 83 847 47 847 q 124 837 106 847 q 153 808 142 826 q 174 833 161 822 q 149 863 158 844 q 139 903 139 882 m 772 278 q 728 257 746 275 q 708 214 711 239 q 688 257 706 239 q 644 278 669 275 q 688 298 669 281 q 708 342 706 315 q 728 298 711 315 q 772 278 746 281 m 772 694 q 728 674 746 692 q 708 631 711 656 q 688 674 706 656 q 644 694 669 692 q 688 715 669 697 q 708 758 706 732 q 728 715 711 732 q 772 694 746 697 m 217 694 q 173 674 190 692 q 153 631 156 656 q 132 674 150 656 q 89 694 114 692 q 132 715 114 697 q 153 758 150 732 q 173 715 156 732 q 217 694 190 697 m 772 556 q 728 535 746 553 q 708 492 711 517 q 688 535 706 517 q 644 556 669 553 q 688 576 669 558 q 708 619 706 593 q 728 576 711 593 q 772 556 746 558 m 772 417 q 728 396 746 414 q 708 353 711 378 q 688 396 706 378 q 644 417 669 414 q 688 437 669 419 q 708 481 706 454 q 728 437 711 454 q 772 417 746 419 m 569 764 q 588 717 569 736 q 633 694 606 697 q 588 672 606 692 q 569 625 569 653 q 588 578 569 597 q 633 556 606 558 q 590 535 607 553 q 569 492 572 517 q 547 538 567 519 q 500 556 528 556 q 453 538 472 556 q 431 492 433 519 q 408 538 428 519 q 361 556 389 556 q 314 538 333 556 q 292 492 294 519 q 271 535 289 517 q 228 556 253 553 q 274 578 256 558 q 292 625 292 597 q 274 672 292 653 q 228 694 256 692 q 274 717 256 697 q 292 764 292 736 q 274 811 292 792 q 228 833 256 831 q 271 853 253 836 q 292 897 289 871 q 314 851 294 869 q 361 833 333 833 q 408 851 389 833 q 431 897 428 869 q 453 851 433 869 q 500 833 472 833 q 547 851 528 833 q 569 897 567 869 q 590 853 572 871 q 633 833 607 836 q 588 811 606 831 q 569 764 569 792 m 153 903 q 171 856 153 875 q 217 833 189 836 q 171 811 189 831 q 153 764 153 792 q 133 813 153 793 q 83 833 113 833 q 34 813 54 833 q 14 764 14 793 q 32 717 14 736 q 78 694 50 697 q 32 672 50 692 q 14 625 14 653 q 34 576 14 596 q 83 556 54 556 q 131 574 111 556 q 153 619 150 592 q 173 576 156 593 q 217 556 190 558 q 171 533 189 553 q 153 486 153 514 q 173 437 153 457 q 222 417 193 417 q 269 435 250 417 q 292 481 289 453 q 314 435 294 453 q 361 417 333 417 q 408 435 389 417 q 431 481 428 453 q 453 435 433 453 q 500 417 472 417 q 547 435 528 417 q 569 481 567 453 q 590 437 572 454 q 633 417 607 419 q 588 394 606 414 q 569 347 569 375 q 588 300 569 319 q 633 278 606 281 q 588 256 606 275 q 569 208 569 236 q 588 161 569 181 q 633 139 606 142 q 588 117 606 136 q 569 69 569 97 q 549 119 569 99 q 500 139 529 139 q 453 121 472 139 q 431 75 433 103 q 408 121 428 103 q 361 139 389 139 q 314 121 333 139 q 292 75 294 103 q 269 121 289 103 q 222 139 250 139 q 173 119 193 139 q 153 69 153 99 q 173 20 153 40 q 222 0 193 0 q 269 18 250 0 q 292 64 289 36 q 314 18 294 36 q 361 0 333 0 q 408 18 389 0 q 431 64 428 36 q 453 18 433 36 q 500 0 472 0 q 547 18 528 0 q 569 64 567 36 q 592 18 572 36 q 639 0 611 0 q 688 20 668 0 q 708 69 708 40 q 690 117 708 97 q 644 139 672 136 q 688 159 669 142 q 708 203 706 176 q 731 157 711 175 q 778 139 750 139 q 827 159 807 139 q 847 208 847 179 q 829 256 847 236 q 783 278 811 275 q 829 300 811 281 q 847 347 847 319 q 829 394 847 375 q 783 417 811 414 q 829 439 811 419 q 847 486 847 458 q 829 533 847 514 q 783 556 811 553 q 829 578 811 558 q 847 625 847 597 q 829 672 847 653 q 783 694 811 692 q 829 717 811 697 q 847 764 847 736 q 827 813 847 793 q 778 833 807 833 q 731 815 750 833 q 708 769 711 797 q 688 813 706 794 q 644 833 669 831 q 690 856 672 836 q 708 903 708 875 q 688 952 708 932 q 639 972 668 972 q 592 954 611 972 q 569 908 572 936 q 547 954 567 936 q 500 972 528 972 q 453 954 472 972 q 431 908 433 936 q 408 954 428 936 q 361 972 389 972 q 314 954 333 972 q 292 908 294 936 q 269 954 289 936 q 222 972 250 972 q 173 952 193 972 q 153 903 153 932 z "}," ":{"ha":417,"x_min":0,"x_max":0,"o":""},"!":{"ha":510,"x_min":0,"x_max":371,"o":"m 0 69 q 24 129 0 106 q 83 153 47 153 q 123 143 104 153 q 153 118 142 133 q 183 143 164 133 q 222 153 201 153 q 269 140 249 153 q 299 104 289 126 l 347 56 q 371 0 371 32 q 348 -56 371 -33 q 292 -79 325 -79 q 236 -56 260 -79 l 221 -40 q 192 -68 210 -57 q 153 -79 175 -79 q 96 -57 118 -79 l 43 -4 q 0 69 0 18 m 0 903 q 24 963 0 939 q 83 986 47 986 q 123 976 104 986 q 153 951 142 967 q 183 976 164 967 q 222 986 201 986 q 269 973 249 986 q 299 938 289 960 l 347 889 q 365 864 358 878 q 371 833 371 850 q 332 764 371 786 l 347 750 q 365 725 358 739 q 371 694 371 711 q 332 625 371 647 l 347 611 q 365 586 358 600 q 371 556 371 572 q 332 486 371 508 l 339 479 q 338 481 339 481 q 338 482 338 481 l 347 472 q 365 447 358 461 q 371 417 371 433 q 332 347 371 369 l 343 336 q 342 339 342 338 l 347 333 q 371 278 371 310 q 348 222 371 244 q 292 199 325 199 q 236 222 260 199 l 221 236 q 192 209 210 219 q 153 199 175 199 q 96 221 118 199 l 43 274 q 0 347 0 296 q 10 387 0 368 q 35 417 19 406 q 10 447 19 428 q 0 486 0 465 q 10 526 0 507 q 35 556 19 544 q 10 585 19 567 q 0 625 0 604 q 10 665 0 646 q 35 694 19 683 q 10 724 19 706 q 0 764 0 743 q 10 803 0 785 q 35 833 19 822 q 10 863 19 844 q 0 903 0 882 m 153 764 q 135 811 153 792 q 89 833 117 831 q 132 853 114 836 q 153 897 150 871 q 173 853 156 871 q 217 833 190 836 q 171 811 189 831 q 153 764 153 792 m 217 694 q 173 674 190 692 q 153 631 156 656 q 132 674 150 656 q 89 694 114 692 q 132 715 114 697 q 153 758 150 732 q 173 715 156 732 q 217 694 190 697 m 217 556 q 173 535 190 553 q 153 492 156 517 q 132 535 150 517 q 89 556 114 553 q 132 576 114 558 q 153 619 150 593 q 173 576 156 593 q 217 556 190 558 m 153 347 q 135 394 153 375 q 89 417 117 414 q 132 437 114 419 q 153 481 150 454 q 173 437 156 454 q 217 417 190 419 q 171 394 189 414 q 153 347 153 375 m 14 69 q 34 20 14 40 q 83 0 54 0 q 131 18 111 0 q 153 64 150 36 q 175 18 156 36 q 222 0 194 0 q 272 20 251 0 q 292 69 292 40 q 272 119 292 99 q 222 139 251 139 q 175 121 194 139 q 153 75 156 103 q 131 121 150 103 q 83 139 111 139 q 34 119 54 139 q 14 69 14 99 m 14 903 q 32 856 14 875 q 78 833 50 836 q 32 811 50 831 q 14 764 14 792 q 32 717 14 736 q 78 694 50 697 q 32 672 50 692 q 14 625 14 653 q 32 578 14 597 q 78 556 50 558 q 32 533 50 553 q 14 486 14 514 q 32 439 14 458 q 78 417 50 419 q 32 394 50 414 q 14 347 14 375 q 34 298 14 318 q 83 278 54 278 q 131 296 111 278 q 153 342 150 314 q 175 296 156 314 q 222 278 194 278 q 272 298 251 278 q 292 347 292 318 q 274 394 292 375 q 228 417 256 414 q 274 439 256 419 q 292 486 292 458 q 274 533 292 514 q 228 556 256 553 q 274 578 256 558 q 292 625 292 597 q 274 672 292 653 q 228 694 256 692 q 274 717 256 697 q 292 764 292 736 q 274 811 292 792 q 228 833 256 831 q 274 856 256 836 q 292 903 292 875 q 272 952 292 932 q 222 972 251 972 q 175 954 194 972 q 153 908 156 936 q 131 954 150 936 q 83 972 111 972 q 34 952 54 972 q 14 903 14 932 z "},"\"":{"ha":926,"x_min":0,"x_max":788,"o":"m 0 903 q 24 963 0 939 q 83 986 47 986 q 123 976 104 986 q 153 951 142 967 q 183 976 164 967 q 222 986 201 986 q 269 973 249 986 q 299 938 289 960 l 347 889 q 365 864 358 878 q 371 833 371 850 q 332 764 371 786 l 339 757 q 338 758 339 758 q 338 760 338 758 l 347 750 q 365 725 358 739 q 371 694 371 711 q 348 638 371 661 q 292 615 325 615 q 261 622 275 615 q 236 639 247 628 l 221 653 q 192 626 210 636 q 153 615 175 615 q 96 638 118 615 l 43 690 q 0 764 0 713 q 10 803 0 785 q 35 833 19 822 q 10 863 19 844 q 0 903 0 882 m 417 903 q 440 963 417 939 q 500 986 464 986 q 540 976 521 986 q 569 951 558 967 q 599 976 581 967 q 639 986 618 986 q 685 973 665 986 q 715 938 706 960 l 764 889 q 788 833 788 865 q 749 764 788 786 l 756 757 q 755 758 756 758 q 754 760 754 758 l 764 750 q 788 694 788 726 q 765 638 788 661 q 708 615 742 615 q 653 639 676 615 l 638 653 q 609 626 626 636 q 569 615 592 615 q 513 638 535 615 l 460 690 q 417 764 417 713 q 426 803 417 785 q 451 833 436 822 q 426 863 436 844 q 417 903 417 882 m 217 833 q 173 813 190 831 q 153 769 156 794 q 132 813 150 794 q 89 833 114 831 q 132 853 114 836 q 153 897 150 871 q 173 853 156 871 q 217 833 190 836 m 633 833 q 590 813 607 831 q 569 769 572 794 q 549 813 567 794 q 506 833 531 831 q 549 853 531 836 q 569 897 567 871 q 590 853 572 871 q 633 833 607 836 m 431 903 q 449 856 431 875 q 494 833 467 836 q 449 811 467 831 q 431 764 431 792 q 451 715 431 735 q 500 694 471 694 q 547 713 528 694 q 569 758 567 731 q 592 713 572 731 q 639 694 611 694 q 688 715 668 694 q 708 764 708 735 q 690 811 708 792 q 644 833 672 831 q 690 856 672 836 q 708 903 708 875 q 688 952 708 932 q 639 972 668 972 q 592 954 611 972 q 569 908 572 936 q 547 954 567 936 q 500 972 528 972 q 451 952 471 972 q 431 903 431 932 m 14 903 q 32 856 14 875 q 78 833 50 836 q 32 811 50 831 q 14 764 14 792 q 34 715 14 735 q 83 694 54 694 q 131 713 111 694 q 153 758 150 731 q 175 713 156 731 q 222 694 194 694 q 272 715 251 694 q 292 764 292 735 q 274 811 292 792 q 228 833 256 831 q 274 856 256 836 q 292 903 292 875 q 272 952 292 932 q 222 972 251 972 q 175 954 194 972 q 153 908 156 936 q 131 954 150 936 q 83 972 111 972 q 34 952 54 972 q 14 903 14 932 z "},"#":{"ha":1204,"x_min":0,"x_max":1065,"o":"m 489 476 q 501 457 496 468 q 508 433 507 446 q 544 421 528 431 q 569 397 560 411 q 592 418 576 410 q 556 479 558 438 q 513 500 526 482 l 496 517 q 485 503 490 510 q 472 492 479 496 l 486 478 q 485 479 486 479 q 485 481 485 479 l 489 476 m 182 -4 q 139 69 139 18 q 149 109 139 90 q 174 139 158 128 q 150 166 160 150 q 139 201 140 182 q 96 224 111 204 l 43 276 q 0 350 0 299 q 24 410 0 386 q 83 433 47 433 q 124 423 107 433 q 153 397 142 413 q 175 418 160 410 q 139 479 142 438 q 96 501 111 482 l 43 554 q 0 628 0 576 q 24 688 0 664 q 83 711 47 711 q 123 701 104 711 q 153 676 142 692 q 175 696 160 688 q 150 726 161 707 q 139 764 139 744 q 149 803 139 785 q 174 833 158 822 q 149 863 158 844 q 139 903 139 882 q 163 963 139 939 q 222 986 186 986 q 262 976 243 986 q 292 951 281 967 q 322 976 303 967 q 361 986 340 986 q 408 973 388 986 q 438 938 428 960 l 486 889 q 503 864 497 878 q 510 833 510 850 q 471 764 510 786 l 478 757 q 477 758 478 758 q 476 760 476 758 l 486 750 q 507 711 503 733 q 542 699 526 708 q 569 676 558 689 q 592 696 576 688 q 567 726 578 707 q 556 764 556 744 q 565 803 556 785 q 590 833 575 822 q 565 863 575 844 q 556 903 556 882 q 579 963 556 939 q 639 986 603 986 q 678 976 660 986 q 708 951 697 967 q 738 976 719 967 q 778 986 757 986 q 824 973 804 986 q 854 938 844 960 l 903 889 q 926 833 926 865 q 888 764 926 786 l 903 750 q 924 711 919 733 q 965 695 947 708 q 993 661 983 682 l 1039 615 q 1038 617 1039 617 q 1038 618 1038 617 l 1042 614 q 1065 558 1065 590 q 1042 502 1065 525 q 986 479 1019 479 q 929 500 950 479 l 913 517 q 901 503 907 510 q 889 492 896 496 l 906 476 q 904 477 904 476 q 903 478 904 478 l 906 476 q 918 457 913 468 q 925 433 924 446 q 966 417 949 431 q 993 383 983 404 l 1039 338 q 1038 339 1039 339 q 1038 340 1038 339 l 1042 336 q 1065 281 1065 313 q 1042 224 1065 247 q 986 201 1019 201 q 931 225 954 201 l 915 239 q 886 211 906 224 l 900 196 q 899 197 900 197 q 899 199 899 197 l 903 194 q 926 139 926 171 q 888 69 926 92 l 903 56 q 926 0 926 32 q 903 -56 926 -33 q 847 -79 881 -79 q 792 -56 815 -79 l 776 -40 q 748 -68 765 -57 q 708 -79 731 -79 q 651 -57 674 -79 l 599 -4 q 556 69 556 18 q 565 109 556 90 q 590 139 575 128 q 567 166 576 150 q 556 201 557 182 q 532 210 543 204 q 514 225 521 215 l 499 240 q 485 224 492 231 q 469 211 479 217 l 486 194 q 510 139 510 171 q 471 69 510 92 l 481 61 q 479 62 479 61 q 478 63 479 63 l 486 56 q 510 0 510 32 q 487 -56 510 -33 q 431 -79 464 -79 q 375 -56 399 -79 l 360 -40 q 331 -68 349 -57 q 292 -79 314 -79 q 235 -57 257 -79 l 182 -4 m 347 696 q 309 674 324 690 q 292 633 294 657 q 274 674 289 657 q 236 696 258 690 q 274 717 258 700 q 292 758 289 735 q 309 717 294 735 q 347 696 324 700 m 764 696 q 726 674 740 690 q 708 633 711 657 q 690 674 706 657 q 653 696 675 690 q 690 717 675 700 q 708 758 706 735 q 726 717 711 735 q 764 696 740 700 m 292 489 q 274 536 292 517 q 228 558 256 556 q 271 578 253 561 q 292 622 289 596 q 312 578 294 596 q 356 558 329 561 q 310 536 328 556 q 292 489 292 517 m 356 139 q 312 118 329 136 q 292 75 294 100 q 271 118 289 100 q 228 139 253 136 q 271 159 253 142 q 292 203 289 176 q 312 159 294 176 q 356 139 329 142 m 772 139 q 728 118 746 136 q 708 75 711 100 q 688 118 706 100 q 644 139 669 136 q 688 159 669 142 q 708 203 706 176 q 728 159 711 176 q 772 139 746 142 m 708 494 q 688 538 706 519 q 644 558 669 556 q 688 578 669 561 q 708 622 706 596 q 728 578 711 596 q 772 558 746 561 q 728 538 746 556 q 708 494 711 519 m 356 833 q 312 813 329 831 q 292 769 294 794 q 271 813 289 794 q 228 833 253 831 q 271 853 253 836 q 292 897 289 871 q 312 853 294 871 q 356 833 329 836 m 772 833 q 728 813 746 831 q 708 769 711 794 q 688 813 706 794 q 644 833 669 831 q 688 853 669 836 q 708 897 706 871 q 728 853 711 871 q 772 833 746 836 m 772 419 q 728 399 746 417 q 708 356 711 381 q 688 399 706 381 q 644 419 669 417 q 688 440 669 422 q 708 483 706 457 q 728 440 711 457 q 772 419 746 422 m 356 419 q 312 399 329 417 q 292 356 294 381 q 271 399 289 381 q 228 419 253 417 q 271 440 253 422 q 292 483 289 457 q 312 440 294 457 q 356 419 329 422 m 569 489 q 588 442 569 461 q 633 419 606 422 q 590 399 607 417 q 569 356 572 381 q 547 401 567 383 q 500 419 528 419 q 453 401 472 419 q 431 356 433 383 q 410 399 428 381 q 367 419 392 417 q 413 442 394 422 q 431 489 431 461 q 413 536 431 517 q 367 558 394 556 q 410 578 392 561 q 431 622 428 596 q 453 576 433 594 q 500 558 472 558 q 547 576 528 558 q 569 622 567 594 q 590 578 572 596 q 633 558 607 561 q 588 536 606 556 q 569 489 569 517 m 153 208 q 171 161 153 181 q 217 139 189 142 q 171 117 189 136 q 153 69 153 97 q 173 20 153 40 q 222 0 193 0 q 269 18 250 0 q 292 64 289 36 q 314 18 294 36 q 361 0 333 0 q 410 20 390 0 q 431 69 431 40 q 413 117 431 97 q 367 139 394 136 q 413 161 394 142 q 431 208 431 181 q 410 258 431 238 q 361 278 390 278 q 314 260 333 278 q 292 214 294 242 q 269 260 289 242 q 222 278 250 278 q 173 258 193 278 q 153 208 153 238 m 569 208 q 588 161 569 181 q 633 139 606 142 q 588 117 606 136 q 569 69 569 97 q 590 20 569 40 q 639 0 610 0 q 686 18 667 0 q 708 64 706 36 q 731 18 711 36 q 778 0 750 0 q 827 20 807 0 q 847 69 847 40 q 829 117 847 97 q 783 139 811 136 q 829 161 811 142 q 847 208 847 181 q 827 258 847 238 q 778 278 807 278 q 728 258 749 278 q 708 208 708 238 q 688 258 708 238 q 639 278 668 278 q 590 258 610 278 q 569 208 569 238 m 153 903 q 171 856 153 875 q 217 833 189 836 q 171 811 189 831 q 153 764 153 792 q 169 719 153 738 q 208 696 185 700 q 170 674 185 690 q 153 633 156 657 q 131 679 150 661 q 83 697 111 697 q 34 677 54 697 q 14 628 14 657 q 34 578 14 599 q 83 558 54 558 q 131 576 111 558 q 153 622 150 594 q 173 578 156 596 q 217 558 190 561 q 171 536 189 556 q 153 489 153 517 q 171 442 153 461 q 217 419 189 422 q 173 399 190 417 q 153 356 156 381 q 131 401 150 383 q 83 419 111 419 q 34 399 54 419 q 14 350 14 379 q 34 301 14 321 q 83 281 54 281 q 131 299 111 281 q 153 344 150 317 q 175 299 156 317 q 222 281 194 281 q 269 299 250 281 q 292 344 289 317 q 314 299 294 317 q 361 281 333 281 q 408 299 389 281 q 431 344 428 317 q 453 299 433 317 q 500 281 472 281 q 547 299 528 281 q 569 344 567 317 q 592 299 572 317 q 639 281 611 281 q 686 299 667 281 q 708 344 706 317 q 731 299 711 317 q 778 281 750 281 q 825 299 806 281 q 847 344 844 317 q 869 299 850 317 q 917 281 889 281 q 966 301 946 281 q 986 350 986 321 q 966 399 986 379 q 917 419 946 419 q 869 401 889 419 q 847 356 850 383 q 826 399 844 381 q 783 419 808 417 q 829 442 811 422 q 847 489 847 461 q 829 536 847 517 q 783 558 811 556 q 826 578 808 561 q 847 622 844 596 q 869 576 850 594 q 917 558 889 558 q 966 578 946 558 q 986 628 986 599 q 966 677 986 657 q 917 697 946 697 q 869 679 889 697 q 847 633 850 661 q 829 674 844 657 q 792 696 814 690 q 831 719 815 700 q 847 764 847 738 q 829 811 847 792 q 783 833 811 831 q 829 856 811 836 q 847 903 847 875 q 827 952 847 932 q 778 972 807 972 q 731 954 750 972 q 708 908 711 936 q 686 954 706 936 q 639 972 667 972 q 590 952 610 972 q 569 903 569 932 q 588 856 569 875 q 633 833 606 836 q 588 811 606 831 q 569 764 569 792 q 585 719 569 738 q 625 696 601 700 q 587 674 601 690 q 569 633 572 657 q 547 679 567 661 q 500 697 528 697 q 453 679 472 697 q 431 633 433 661 q 413 674 428 657 q 375 696 397 690 q 415 719 399 700 q 431 764 431 738 q 413 811 431 792 q 367 833 394 831 q 413 856 394 836 q 431 903 431 875 q 410 952 431 932 q 361 972 390 972 q 314 954 333 972 q 292 908 294 936 q 269 954 289 936 q 222 972 250 972 q 173 952 193 972 q 153 903 153 932 z "},"$":{"ha":1065,"x_min":0,"x_max":926,"o":"m 278 903 q 301 963 278 939 q 361 986 325 986 q 401 976 382 986 q 431 951 419 967 q 460 976 442 967 q 500 986 479 986 q 547 972 526 986 q 576 936 567 958 l 622 890 q 622 892 622 892 q 621 893 621 892 l 625 889 q 646 847 642 869 q 681 835 665 844 q 708 813 697 825 q 738 838 719 828 q 778 847 757 847 q 824 834 804 847 q 854 799 844 821 l 903 750 q 901 751 901 750 q 900 751 901 751 l 903 750 q 926 694 926 726 q 903 638 926 661 q 847 615 881 615 q 792 639 815 615 l 776 653 q 748 626 765 636 q 708 615 731 615 q 653 639 676 615 l 638 653 q 609 626 626 636 q 569 615 592 615 q 539 622 553 615 q 514 639 525 628 l 499 653 q 470 626 488 636 q 431 615 453 615 q 374 636 394 615 l 357 653 q 346 639 351 646 q 333 628 340 632 l 350 613 q 363 593 357 604 q 369 568 368 582 q 404 556 389 565 q 431 535 419 547 q 460 560 442 550 q 500 569 479 569 q 540 559 522 569 q 569 531 558 549 q 639 569 592 569 q 685 556 665 569 q 715 521 706 543 l 764 472 q 785 431 781 453 q 826 415 808 428 q 854 381 844 401 l 900 335 q 899 336 900 336 q 899 338 899 336 l 903 333 q 926 278 926 310 q 903 222 926 244 q 847 199 881 199 q 790 219 811 199 l 774 236 q 763 222 768 229 q 750 211 757 215 l 764 197 q 763 199 764 199 q 763 200 763 199 l 767 196 q 788 139 788 175 q 765 83 788 106 q 708 60 742 60 q 651 81 672 60 l 635 97 q 624 83 629 90 q 611 72 618 76 l 628 57 q 649 0 649 36 q 626 -56 649 -33 q 569 -79 603 -79 q 514 -56 538 -79 l 499 -40 q 470 -68 488 -57 q 431 -79 453 -79 q 374 -57 396 -79 l 321 -4 q 292 22 303 6 q 278 60 281 39 q 254 68 265 63 q 236 83 243 74 l 221 97 q 192 70 210 81 q 153 60 175 60 q 96 82 118 60 l 43 135 q 0 208 0 157 q 24 268 0 244 q 83 292 47 292 q 123 282 104 292 q 153 257 142 272 q 183 282 164 272 q 222 292 201 292 q 262 282 243 292 q 292 257 281 272 q 322 282 303 272 q 361 292 340 292 q 401 281 383 292 q 431 253 419 271 q 500 292 453 292 q 541 281 524 292 q 569 256 558 271 q 592 276 576 268 q 556 338 558 296 q 532 346 543 340 q 514 361 521 351 l 499 375 q 470 348 488 358 q 431 338 453 338 q 375 361 399 338 l 360 375 q 331 348 349 358 q 292 338 314 338 q 235 360 257 338 l 182 413 q 153 439 164 422 q 139 476 142 456 q 96 499 111 479 l 43 551 q 0 625 0 574 q 24 685 0 661 q 83 708 47 708 q 124 698 107 708 q 153 672 142 688 q 175 693 160 685 q 139 764 139 713 q 163 824 139 800 q 222 847 186 847 q 263 837 246 847 q 292 811 281 826 q 314 832 299 824 q 278 903 278 851 m 431 764 q 413 811 431 792 q 367 833 394 831 q 410 853 392 836 q 431 897 428 871 q 451 853 433 871 q 494 833 468 836 q 449 811 467 831 q 431 764 431 792 m 431 203 q 451 159 433 176 q 494 139 468 142 q 451 118 468 136 q 431 75 433 100 q 410 118 428 100 q 367 139 392 136 q 410 159 392 142 q 431 203 428 176 m 292 903 q 310 856 292 875 q 356 833 328 836 q 312 813 329 831 q 292 769 294 794 q 269 815 289 797 q 222 833 250 833 q 173 813 193 833 q 153 764 153 793 q 171 717 153 736 q 217 694 189 697 q 173 674 190 692 q 153 631 156 656 q 131 676 150 658 q 83 694 111 694 q 34 674 54 694 q 14 625 14 654 q 34 576 14 596 q 83 556 54 556 q 131 574 111 556 q 153 619 150 592 q 173 576 156 593 q 217 556 190 558 q 171 533 189 553 q 153 486 153 514 q 173 437 153 457 q 222 417 193 417 q 269 435 250 417 q 292 481 289 453 q 314 435 294 453 q 361 417 333 417 q 408 435 389 417 q 431 481 428 453 q 453 435 433 453 q 500 417 472 417 q 547 435 528 417 q 569 481 567 453 q 590 437 572 454 q 633 417 607 419 q 588 394 606 414 q 569 347 569 375 q 588 300 569 319 q 633 278 606 281 q 590 257 607 275 q 569 214 572 239 q 547 260 567 242 q 500 278 528 278 q 451 258 471 278 q 431 208 431 238 q 410 258 431 238 q 361 278 390 278 q 314 260 333 278 q 292 214 294 242 q 269 260 289 242 q 222 278 250 278 q 175 260 194 278 q 153 214 156 242 q 131 260 150 242 q 83 278 111 278 q 34 258 54 278 q 14 208 14 238 q 34 159 14 179 q 83 139 54 139 q 131 157 111 139 q 153 203 150 175 q 175 157 156 175 q 222 139 194 139 q 269 157 250 139 q 292 203 289 175 q 312 159 294 176 q 356 139 329 142 q 310 117 328 136 q 292 69 292 97 q 312 20 292 40 q 361 0 332 0 q 408 18 389 0 q 431 64 428 36 q 453 18 433 36 q 500 0 472 0 q 549 20 529 0 q 569 69 569 40 q 551 117 569 97 q 506 139 533 136 q 549 159 531 142 q 569 203 567 176 q 592 157 572 175 q 639 139 611 139 q 688 159 668 139 q 708 208 708 179 q 690 256 708 236 q 644 278 672 275 q 688 298 669 281 q 708 342 706 315 q 731 296 711 314 q 778 278 750 278 q 827 298 807 278 q 847 347 847 318 q 827 397 847 376 q 778 417 807 417 q 731 399 750 417 q 708 353 711 381 q 688 396 706 378 q 644 417 669 414 q 690 439 672 419 q 708 486 708 458 q 688 535 708 515 q 639 556 668 556 q 590 535 610 556 q 569 486 569 515 q 549 535 569 515 q 500 556 529 556 q 453 538 472 556 q 431 492 433 519 q 408 538 428 519 q 361 556 389 556 q 314 538 333 556 q 292 492 294 519 q 271 535 289 517 q 228 556 253 553 q 274 578 256 558 q 292 625 292 597 q 274 672 292 653 q 228 694 256 692 q 271 715 253 697 q 292 758 289 732 q 314 713 294 731 q 361 694 333 694 q 408 713 389 694 q 431 758 428 731 q 453 713 433 731 q 500 694 472 694 q 547 713 528 694 q 569 758 567 731 q 592 713 572 731 q 639 694 611 694 q 686 713 667 694 q 708 758 706 731 q 731 713 711 731 q 778 694 750 694 q 827 715 807 694 q 847 764 847 735 q 827 813 847 793 q 778 833 807 833 q 731 815 750 833 q 708 769 711 797 q 686 815 706 797 q 639 833 667 833 q 592 815 611 833 q 569 769 572 797 q 549 813 567 794 q 506 833 531 831 q 551 856 533 836 q 569 903 569 875 q 549 952 569 932 q 500 972 529 972 q 453 954 472 972 q 431 908 433 936 q 408 954 428 936 q 361 972 389 972 q 312 952 332 972 q 292 903 292 932 z "},"%":{"ha":1204,"x_min":0,"x_max":1065,"o":"m 694 208 q 718 268 694 244 q 778 292 742 292 q 817 282 799 292 q 847 257 836 272 q 877 282 858 272 q 917 292 896 292 q 963 278 943 292 q 993 242 983 264 l 1039 196 q 1038 197 1039 197 q 1038 199 1038 197 l 1042 194 q 1065 139 1065 171 q 1026 69 1065 92 l 1036 61 q 1035 62 1035 61 q 1033 63 1035 63 l 1042 56 q 1065 0 1065 32 q 1042 -56 1065 -33 q 986 -79 1019 -79 q 931 -56 954 -79 l 915 -40 q 887 -68 904 -57 q 847 -79 869 -79 q 790 -57 813 -79 l 738 -4 q 694 69 694 18 q 704 109 694 90 q 729 139 714 128 q 704 169 714 150 q 694 208 694 188 m 0 903 q 24 963 0 939 q 83 986 47 986 q 123 976 104 986 q 153 951 142 967 q 183 976 164 967 q 222 986 201 986 q 269 972 249 986 q 299 936 289 958 l 344 890 q 344 892 344 892 q 343 893 343 892 l 347 889 q 365 864 358 878 q 371 833 371 850 q 332 764 371 786 l 343 753 q 342 756 342 754 l 347 750 q 365 725 358 739 q 371 694 371 711 q 348 638 371 661 q 292 615 325 615 q 261 622 275 615 q 236 639 247 628 l 221 653 q 192 626 210 636 q 153 615 175 615 q 96 638 118 615 l 43 690 q 0 764 0 713 q 10 803 0 785 q 35 833 19 822 q 10 863 19 844 q 0 903 0 882 m 694 903 q 718 963 694 939 q 778 986 742 986 q 817 976 799 986 q 847 951 836 967 q 877 976 858 967 q 917 986 896 986 q 963 973 943 986 q 993 938 983 960 l 1042 889 q 1065 833 1065 865 q 1042 777 1065 800 q 986 754 1019 754 q 929 775 950 754 l 913 792 q 901 778 907 785 q 889 767 896 771 l 906 751 q 926 694 926 731 q 903 638 926 661 q 847 615 881 615 q 790 636 811 615 l 774 653 q 763 639 768 646 q 750 628 757 632 l 764 614 q 763 615 764 615 q 763 617 763 615 l 767 613 q 788 556 788 592 q 765 499 788 522 q 708 476 742 476 q 651 497 672 476 l 635 514 q 624 500 629 507 q 611 489 618 493 l 628 474 q 649 417 649 453 q 626 360 649 383 q 569 338 603 338 q 513 358 533 338 l 496 375 q 485 361 490 368 q 472 350 479 354 l 486 336 q 485 338 486 338 q 485 339 485 338 l 489 335 q 510 278 510 314 q 487 222 510 244 q 431 199 464 199 q 374 219 394 199 l 357 236 q 346 222 351 229 q 333 211 340 215 l 350 196 q 371 139 371 175 q 348 83 371 106 q 292 60 325 60 q 235 81 256 60 l 218 97 q 207 83 213 90 q 194 72 201 76 l 211 57 q 232 0 232 36 q 209 -56 232 -33 q 153 -79 186 -79 q 96 -57 118 -79 l 43 -4 q 0 69 0 18 q 10 109 0 90 q 35 139 19 128 q 10 169 19 150 q 0 208 0 188 q 24 268 0 244 q 83 292 47 292 q 124 281 107 292 q 153 256 142 271 q 175 276 160 268 q 139 347 139 296 q 163 407 139 383 q 222 431 186 431 q 263 420 246 431 q 292 394 281 410 q 314 415 299 407 q 278 486 278 435 q 301 546 278 522 q 361 569 325 569 q 402 559 385 569 q 431 533 419 549 q 453 554 438 546 q 417 625 417 574 q 440 685 417 661 q 500 708 464 708 q 540 698 522 708 q 569 669 558 688 q 590 694 578 683 q 565 724 575 706 q 556 764 556 743 q 579 824 556 800 q 639 847 603 847 q 679 837 661 847 q 708 808 697 826 q 729 833 717 822 q 704 863 714 844 q 694 903 694 882 m 911 139 q 867 118 885 136 q 847 75 850 100 q 826 118 844 100 q 783 139 808 136 q 826 159 808 142 q 847 203 844 176 q 867 159 850 176 q 911 139 885 142 m 217 833 q 173 813 190 831 q 153 769 156 794 q 132 813 150 794 q 89 833 114 831 q 132 853 114 836 q 153 897 150 871 q 173 853 156 871 q 217 833 190 836 m 14 903 q 32 856 14 875 q 78 833 50 836 q 32 811 50 831 q 14 764 14 792 q 34 715 14 735 q 83 694 54 694 q 131 713 111 694 q 153 758 150 731 q 175 713 156 731 q 222 694 194 694 q 272 715 251 694 q 292 764 292 735 q 274 811 292 792 q 228 833 256 831 q 274 856 256 836 q 292 903 292 875 q 272 952 292 932 q 222 972 251 972 q 175 954 194 972 q 153 908 156 936 q 131 954 150 936 q 83 972 111 972 q 34 952 54 972 q 14 903 14 932 m 708 208 q 726 161 708 181 q 772 139 744 142 q 726 117 744 136 q 708 69 708 97 q 728 20 708 40 q 778 0 749 0 q 825 18 806 0 q 847 64 844 36 q 869 18 850 36 q 917 0 889 0 q 966 20 946 0 q 986 69 986 40 q 968 117 986 97 q 922 139 950 136 q 968 161 950 142 q 986 208 986 181 q 966 258 986 238 q 917 278 946 278 q 869 260 889 278 q 847 214 850 242 q 825 260 844 242 q 778 278 806 278 q 728 258 749 278 q 708 208 708 238 m 708 903 q 726 856 708 875 q 772 833 744 836 q 726 811 744 831 q 708 764 708 792 q 688 813 708 793 q 639 833 668 833 q 590 813 610 833 q 569 764 569 793 q 588 717 569 736 q 633 694 606 697 q 588 672 606 692 q 569 625 569 653 q 549 674 569 654 q 500 694 529 694 q 451 674 471 694 q 431 625 431 654 q 449 578 431 597 q 494 556 467 558 q 451 535 468 553 q 431 492 433 517 q 408 538 428 519 q 361 556 389 556 q 312 535 332 556 q 292 486 292 515 q 310 439 292 458 q 356 417 328 419 q 312 396 329 414 q 292 353 294 378 q 269 399 289 381 q 222 417 250 417 q 173 397 193 417 q 153 347 153 376 q 171 300 153 319 q 217 278 189 281 q 173 257 190 275 q 153 214 156 239 q 131 260 150 242 q 83 278 111 278 q 34 258 54 278 q 14 208 14 238 q 32 161 14 181 q 78 139 50 142 q 32 117 50 136 q 14 69 14 97 q 34 20 14 40 q 83 0 54 0 q 133 20 113 0 q 153 69 153 40 q 135 117 153 97 q 89 139 117 136 q 132 159 114 142 q 153 203 150 176 q 175 157 156 175 q 222 139 194 139 q 272 159 251 139 q 292 208 292 179 q 274 256 292 236 q 228 278 256 275 q 271 298 253 281 q 292 342 289 315 q 314 296 294 314 q 361 278 333 278 q 410 298 390 278 q 431 347 431 318 q 413 394 431 375 q 367 417 394 414 q 410 437 392 419 q 431 481 428 454 q 453 435 433 453 q 500 417 472 417 q 549 437 529 417 q 569 486 569 457 q 551 533 569 514 q 506 556 533 553 q 549 576 531 558 q 569 619 567 593 q 592 574 572 592 q 639 556 611 556 q 688 576 668 556 q 708 625 708 596 q 690 672 708 653 q 644 694 672 692 q 688 715 669 697 q 708 758 706 732 q 731 713 711 731 q 778 694 750 694 q 827 715 807 694 q 847 764 847 735 q 829 811 847 792 q 783 833 811 831 q 826 853 808 836 q 847 897 844 871 q 869 851 850 869 q 917 833 889 833 q 966 853 946 833 q 986 903 986 874 q 966 952 986 932 q 917 972 946 972 q 869 954 889 972 q 847 908 850 936 q 825 954 844 936 q 778 972 806 972 q 728 952 749 972 q 708 903 708 932 z "},"&":{"ha":1204,"x_min":0,"x_max":1065,"o":"m 489 751 q 501 732 496 743 q 508 708 507 721 q 544 696 528 706 q 569 672 560 686 q 592 693 576 685 q 556 754 558 713 q 513 775 526 757 l 496 792 q 485 778 490 785 q 472 767 479 771 l 489 751 m 628 474 q 640 454 635 465 q 647 431 646 443 q 683 418 667 428 q 708 394 699 408 q 731 415 715 407 q 694 476 697 435 q 651 497 665 479 l 635 514 q 624 500 629 507 q 611 489 618 493 l 625 475 q 624 476 625 476 q 624 478 624 476 l 628 474 m 278 903 q 301 963 278 939 q 361 986 325 986 q 401 976 383 986 q 431 947 419 965 q 500 986 453 986 q 540 976 521 986 q 569 951 558 967 q 599 976 581 967 q 639 986 618 986 q 685 973 665 986 q 715 938 706 960 l 764 889 q 785 847 781 869 q 826 831 808 844 q 854 799 844 818 l 903 750 q 901 751 901 750 q 900 751 901 751 l 903 750 q 926 694 926 726 q 903 638 926 661 q 847 615 881 615 q 790 636 811 615 l 774 653 q 763 639 768 646 q 750 628 757 632 l 764 614 q 763 615 764 615 q 763 617 763 615 l 767 613 q 779 592 774 603 q 788 568 785 582 q 821 556 806 565 q 847 535 836 547 q 877 560 858 550 q 917 569 896 569 q 963 556 943 569 q 993 519 983 542 l 1039 474 q 1038 475 1039 475 q 1038 476 1038 475 l 1042 472 q 1065 417 1065 449 q 1042 360 1065 383 q 986 338 1019 338 q 929 358 950 338 l 913 375 q 901 361 907 368 q 889 350 896 354 l 906 335 q 926 278 926 314 q 888 208 926 231 l 903 194 q 924 153 919 175 q 965 137 947 150 q 993 103 983 124 l 1039 57 q 1038 58 1039 58 q 1038 60 1038 58 l 1042 56 q 1065 0 1065 32 q 1042 -56 1065 -33 q 986 -79 1019 -79 q 931 -56 954 -79 l 915 -40 q 887 -68 904 -57 q 847 -79 869 -79 q 790 -57 813 -79 l 738 -4 q 708 22 719 6 q 694 60 697 39 q 651 82 667 63 l 599 135 q 569 161 581 144 q 556 199 558 178 q 513 221 528 201 l 460 274 q 431 300 442 283 q 417 338 419 317 q 374 358 388 340 l 357 375 q 346 361 351 368 q 333 350 340 354 l 350 335 q 371 278 371 314 q 332 208 371 231 l 342 200 q 340 201 340 200 q 339 201 340 201 l 347 194 q 368 153 364 175 q 403 140 388 150 q 431 118 419 131 q 460 143 442 133 q 500 153 479 153 q 547 139 526 153 q 576 103 567 125 l 622 57 q 622 58 622 58 q 621 60 621 58 l 625 56 q 649 0 649 32 q 626 -56 649 -33 q 569 -79 603 -79 q 514 -56 538 -79 l 499 -40 q 470 -68 488 -57 q 431 -79 453 -79 q 375 -56 399 -79 l 360 -40 q 331 -68 349 -57 q 292 -79 314 -79 q 235 -57 257 -79 l 182 -4 q 153 22 164 6 q 139 60 142 39 q 96 82 111 63 l 43 135 q 0 208 0 157 q 10 248 0 229 q 35 278 19 267 q 10 308 19 289 q 0 347 0 326 q 24 407 0 383 q 83 431 47 431 q 124 420 107 431 q 153 394 142 410 q 175 415 160 407 q 139 486 139 435 q 163 546 139 522 q 222 569 186 569 q 263 559 246 569 q 292 533 281 549 q 314 554 299 546 q 278 615 281 574 q 235 638 250 618 l 182 690 q 139 764 139 713 q 163 824 139 800 q 222 847 186 847 q 263 837 246 847 q 292 811 281 826 q 314 832 299 824 q 278 903 278 851 m 431 486 q 413 533 431 514 q 367 556 394 553 q 410 576 392 558 q 431 619 428 593 q 451 576 433 593 q 494 556 468 558 q 449 533 467 553 q 431 486 431 514 m 708 342 q 728 298 711 315 q 772 278 746 281 q 728 257 746 275 q 708 214 711 239 q 688 257 706 239 q 644 278 669 275 q 688 298 669 281 q 708 342 706 315 m 217 278 q 173 257 190 275 q 153 214 156 239 q 132 257 150 239 q 89 278 114 275 q 132 298 114 281 q 153 342 150 315 q 173 298 156 315 q 217 278 190 281 m 569 764 q 588 717 569 736 q 633 694 606 697 q 590 674 607 692 q 569 631 572 656 q 547 676 567 658 q 500 694 528 694 q 453 676 472 694 q 431 631 433 658 q 410 674 428 656 q 367 694 392 692 q 413 717 394 697 q 431 764 431 736 q 413 811 431 792 q 367 833 394 831 q 410 853 392 836 q 431 897 428 871 q 453 851 433 869 q 500 833 472 833 q 547 851 528 833 q 569 897 567 869 q 590 853 572 871 q 633 833 607 836 q 588 811 606 831 q 569 764 569 792 m 292 903 q 310 856 292 875 q 356 833 328 836 q 312 813 329 831 q 292 769 294 794 q 269 815 289 797 q 222 833 250 833 q 173 813 193 833 q 153 764 153 793 q 173 715 153 735 q 222 694 193 694 q 269 713 250 694 q 292 758 289 731 q 312 715 294 732 q 356 694 329 697 q 310 672 328 692 q 292 625 292 653 q 310 578 292 597 q 356 556 328 558 q 312 535 329 553 q 292 492 294 517 q 269 538 289 519 q 222 556 250 556 q 173 535 193 556 q 153 486 153 515 q 171 439 153 458 q 217 417 189 419 q 173 396 190 414 q 153 353 156 378 q 131 399 150 381 q 83 417 111 417 q 34 397 54 417 q 14 347 14 376 q 32 300 14 319 q 78 278 50 281 q 32 256 50 275 q 14 208 14 236 q 34 159 14 179 q 83 139 54 139 q 131 157 111 139 q 153 203 150 175 q 173 159 156 176 q 217 139 190 142 q 171 117 189 136 q 153 69 153 97 q 173 20 153 40 q 222 0 193 0 q 269 18 250 0 q 292 64 289 36 q 314 18 294 36 q 361 0 333 0 q 408 18 389 0 q 431 64 428 36 q 453 18 433 36 q 500 0 472 0 q 549 20 529 0 q 569 69 569 40 q 549 119 569 99 q 500 139 529 139 q 453 121 472 139 q 431 75 433 103 q 408 121 428 103 q 361 139 389 139 q 314 121 333 139 q 292 75 294 103 q 271 118 289 100 q 228 139 253 136 q 274 161 256 142 q 292 208 292 181 q 274 256 292 236 q 228 278 256 275 q 274 300 256 281 q 292 347 292 319 q 274 394 292 375 q 228 417 256 414 q 271 437 253 419 q 292 481 289 454 q 314 435 294 453 q 361 417 333 417 q 408 435 389 417 q 431 481 428 453 q 451 437 433 454 q 494 417 468 419 q 449 394 467 414 q 431 347 431 375 q 451 298 431 318 q 500 278 471 278 q 547 296 528 278 q 569 342 567 314 q 590 298 572 315 q 633 278 607 281 q 588 256 606 275 q 569 208 569 236 q 590 159 569 179 q 639 139 610 139 q 686 157 667 139 q 708 203 706 175 q 728 159 711 176 q 772 139 746 142 q 726 117 744 136 q 708 69 708 97 q 728 20 708 40 q 778 0 749 0 q 825 18 806 0 q 847 64 844 36 q 869 18 850 36 q 917 0 889 0 q 966 20 946 0 q 986 69 986 40 q 966 119 986 99 q 917 139 946 139 q 869 121 889 139 q 847 75 850 103 q 826 118 844 100 q 783 139 808 136 q 829 161 811 142 q 847 208 847 181 q 829 256 847 236 q 783 278 811 275 q 829 300 811 281 q 847 347 847 319 q 829 394 847 375 q 783 417 811 414 q 826 437 808 419 q 847 481 844 454 q 869 435 850 453 q 917 417 889 417 q 966 437 946 417 q 986 486 986 457 q 966 535 986 515 q 917 556 946 556 q 869 538 889 556 q 847 492 850 519 q 825 538 844 519 q 778 556 806 556 q 728 535 749 556 q 708 486 708 515 q 726 439 708 458 q 772 417 744 419 q 728 396 746 414 q 708 353 711 378 q 686 399 706 381 q 639 417 667 417 q 592 399 611 417 q 569 353 572 381 q 549 396 567 378 q 506 417 531 414 q 551 439 533 419 q 569 486 569 458 q 551 533 569 514 q 506 556 533 553 q 549 576 531 558 q 569 619 567 593 q 592 574 572 592 q 639 556 611 556 q 688 576 668 556 q 708 625 708 596 q 690 672 708 653 q 644 694 672 692 q 688 715 669 697 q 708 758 706 732 q 731 713 711 731 q 778 694 750 694 q 827 715 807 694 q 847 764 847 735 q 827 813 847 793 q 778 833 807 833 q 731 815 750 833 q 708 769 711 797 q 688 813 706 794 q 644 833 669 831 q 690 856 672 836 q 708 903 708 875 q 688 952 708 932 q 639 972 668 972 q 592 954 611 972 q 569 908 572 936 q 547 954 567 936 q 500 972 528 972 q 451 952 471 972 q 431 903 431 932 q 410 952 431 932 q 361 972 390 972 q 312 952 332 972 q 292 903 292 932 z "},"'":{"ha":649,"x_min":0,"x_max":510,"o":"m 139 903 q 163 963 139 939 q 222 986 186 986 q 262 976 243 986 q 292 951 281 967 q 322 976 303 967 q 361 986 340 986 q 408 973 388 986 q 438 938 428 960 l 486 889 q 503 864 497 878 q 510 833 510 850 q 471 764 510 786 l 486 750 q 503 725 497 739 q 510 694 510 711 q 487 638 510 661 q 431 615 464 615 q 374 636 394 615 l 357 653 q 346 639 351 646 q 333 628 340 632 l 347 614 q 347 615 347 615 q 346 617 346 615 l 350 613 q 371 556 371 592 q 348 499 371 522 q 292 476 325 476 q 261 483 275 476 q 236 500 247 489 l 221 514 q 192 487 210 497 q 153 476 175 476 q 96 499 118 476 l 43 551 q 0 625 0 574 q 24 685 0 661 q 83 708 47 708 q 124 698 107 708 q 153 672 142 688 q 175 693 160 685 q 139 764 139 713 q 149 803 139 785 q 174 833 158 822 q 149 863 158 844 q 139 903 139 882 m 356 833 q 312 813 329 831 q 292 769 294 794 q 271 813 289 794 q 228 833 253 831 q 271 853 253 836 q 292 897 289 871 q 312 853 294 871 q 356 833 329 836 m 153 903 q 171 856 153 875 q 217 833 189 836 q 171 811 189 831 q 153 764 153 792 q 171 717 153 736 q 217 694 189 697 q 173 674 190 692 q 153 631 156 656 q 131 676 150 658 q 83 694 111 694 q 34 674 54 694 q 14 625 14 654 q 34 576 14 596 q 83 556 54 556 q 131 574 111 556 q 153 619 150 592 q 175 574 156 592 q 222 556 194 556 q 272 576 251 556 q 292 625 292 596 q 274 672 292 653 q 228 694 256 692 q 271 715 253 697 q 292 758 289 732 q 314 713 294 731 q 361 694 333 694 q 410 715 390 694 q 431 764 431 735 q 413 811 431 792 q 367 833 394 831 q 413 856 394 836 q 431 903 431 875 q 410 952 431 932 q 361 972 390 972 q 314 954 333 972 q 292 908 294 936 q 269 954 289 936 q 222 972 250 972 q 173 952 193 972 q 153 903 153 932 z "},"(":{"ha":788,"x_min":0,"x_max":649,"o":"m 278 903 q 301 963 278 939 q 361 986 325 986 q 401 976 382 986 q 431 951 419 967 q 460 976 442 967 q 500 986 479 986 q 547 972 526 986 q 576 936 567 958 l 622 890 q 622 892 622 892 q 621 893 621 892 l 625 889 q 649 833 649 865 q 626 777 649 800 q 569 754 603 754 q 513 775 533 754 l 496 792 q 485 778 490 785 q 472 767 479 771 l 486 753 q 485 754 486 754 q 485 756 485 754 l 489 751 q 510 694 510 731 q 487 638 510 661 q 431 615 464 615 q 374 636 394 615 l 357 653 q 346 639 351 646 q 333 628 340 632 l 347 614 q 347 615 347 615 q 346 617 346 615 l 350 613 q 371 556 371 592 q 332 486 371 508 l 339 479 q 338 481 339 481 q 338 482 338 481 l 347 472 q 365 447 358 461 q 371 417 371 433 q 332 347 371 369 l 342 339 q 340 340 340 339 q 339 340 340 340 l 347 333 q 368 292 364 314 q 410 276 392 289 q 438 243 428 263 l 486 194 q 507 153 503 175 q 549 137 531 150 q 576 104 567 124 l 625 56 q 649 0 649 32 q 626 -56 649 -33 q 569 -79 603 -79 q 514 -56 538 -79 l 499 -40 q 470 -68 488 -57 q 431 -79 453 -79 q 374 -57 396 -79 l 321 -4 q 292 22 303 6 q 278 60 281 39 q 235 82 250 63 l 182 135 q 153 161 164 144 q 139 199 142 178 q 96 221 111 201 l 43 274 q 0 347 0 296 q 10 387 0 368 q 35 417 19 406 q 10 447 19 428 q 0 486 0 465 q 10 526 0 507 q 35 556 19 544 q 10 585 19 567 q 0 625 0 604 q 24 685 0 661 q 83 708 47 708 q 124 698 106 708 q 153 669 142 688 q 174 694 161 683 q 149 724 158 706 q 139 764 139 743 q 163 824 139 800 q 222 847 186 847 q 263 837 244 847 q 292 808 281 826 q 313 833 300 822 q 288 863 297 844 q 278 903 278 882 m 217 556 q 173 535 190 553 q 153 492 156 517 q 132 535 150 517 q 89 556 114 553 q 132 576 114 558 q 153 619 150 593 q 173 576 156 593 q 217 556 190 558 m 217 417 q 173 396 190 414 q 153 353 156 378 q 132 396 150 378 q 89 417 114 414 q 132 437 114 419 q 153 481 150 454 q 173 437 156 454 q 217 417 190 419 m 292 903 q 310 856 292 875 q 356 833 328 836 q 310 811 328 831 q 292 764 292 792 q 272 813 292 793 q 222 833 251 833 q 173 813 193 833 q 153 764 153 793 q 171 717 153 736 q 217 694 189 697 q 171 672 189 692 q 153 625 153 653 q 133 674 153 654 q 83 694 113 694 q 34 674 54 694 q 14 625 14 654 q 32 578 14 597 q 78 556 50 558 q 32 533 50 553 q 14 486 14 514 q 32 439 14 458 q 78 417 50 419 q 32 394 50 414 q 14 347 14 375 q 34 298 14 318 q 83 278 54 278 q 131 296 111 278 q 153 342 150 314 q 173 298 156 315 q 217 278 190 281 q 171 256 189 275 q 153 208 153 236 q 173 159 153 179 q 222 139 193 139 q 269 157 250 139 q 292 203 289 175 q 312 159 294 176 q 356 139 329 142 q 310 117 328 136 q 292 69 292 97 q 312 20 292 40 q 361 0 332 0 q 408 18 389 0 q 431 64 428 36 q 453 18 433 36 q 500 0 472 0 q 549 20 529 0 q 569 69 569 40 q 549 119 569 99 q 500 139 529 139 q 451 119 471 139 q 431 69 431 99 q 413 117 431 97 q 367 139 394 136 q 413 161 394 142 q 431 208 431 181 q 410 258 431 238 q 361 278 390 278 q 314 260 333 278 q 292 214 294 242 q 271 257 289 239 q 228 278 253 275 q 274 300 256 281 q 292 347 292 319 q 274 394 292 375 q 228 417 256 414 q 274 439 256 419 q 292 486 292 458 q 274 533 292 514 q 228 556 256 553 q 274 578 256 558 q 292 625 292 597 q 274 672 292 653 q 228 694 256 692 q 271 715 253 697 q 292 758 289 732 q 314 713 294 731 q 361 694 333 694 q 410 715 390 694 q 431 764 431 735 q 413 811 431 792 q 367 833 394 831 q 410 853 392 836 q 431 897 428 871 q 453 851 433 869 q 500 833 472 833 q 549 853 529 833 q 569 903 569 874 q 549 952 569 932 q 500 972 529 972 q 453 954 472 972 q 431 908 433 936 q 408 954 428 936 q 361 972 389 972 q 312 952 332 972 q 292 903 292 932 z "},")":{"ha":788,"x_min":0,"x_max":649,"o":"m 486 750 q 507 708 503 731 q 549 692 531 706 q 576 658 567 679 l 622 613 q 622 614 622 614 q 621 615 621 614 l 625 611 q 649 556 649 588 q 610 486 649 508 l 625 472 q 649 417 649 449 q 610 347 649 369 l 625 333 q 649 278 649 310 q 626 222 649 244 q 569 199 603 199 q 513 219 533 199 l 496 236 q 485 222 490 229 q 472 211 479 215 l 486 197 q 485 199 486 199 q 485 200 485 199 l 489 196 q 510 139 510 175 q 487 83 510 106 q 431 60 464 60 q 374 81 394 60 l 357 97 q 346 83 351 90 q 333 72 340 76 l 350 57 q 371 0 371 36 q 348 -56 371 -33 q 292 -79 325 -79 q 236 -56 260 -79 l 221 -40 q 192 -68 210 -57 q 153 -79 175 -79 q 96 -57 118 -79 l 43 -4 q 0 69 0 18 q 24 129 0 106 q 83 153 47 153 q 124 142 107 153 q 153 117 142 132 q 175 138 160 129 q 139 208 139 157 q 163 268 139 244 q 222 292 186 292 q 263 281 246 292 q 292 256 281 271 q 314 276 299 268 q 278 347 278 296 q 288 387 278 368 q 313 417 297 406 q 288 447 297 428 q 278 486 278 465 q 288 526 278 507 q 313 556 297 544 q 290 581 299 565 q 278 615 281 596 q 235 638 250 618 l 182 690 q 153 717 164 700 q 139 754 142 733 q 96 776 111 757 l 43 829 q 0 903 0 851 q 24 963 0 939 q 83 986 47 986 q 123 976 104 986 q 153 951 142 967 q 183 976 164 967 q 222 986 201 986 q 269 972 249 986 q 299 936 289 958 l 344 890 q 344 892 344 892 q 343 893 343 892 l 347 889 q 368 847 364 869 q 410 831 392 844 q 438 797 428 818 l 483 751 q 483 753 483 753 q 482 754 482 753 l 486 750 m 431 353 q 410 396 428 378 q 367 417 392 414 q 410 437 392 419 q 431 481 428 454 q 451 437 433 454 q 494 417 468 419 q 451 396 468 414 q 431 353 433 378 m 431 492 q 410 535 428 517 q 367 556 392 553 q 410 576 392 558 q 431 619 428 593 q 451 576 433 593 q 494 556 468 558 q 451 535 468 553 q 431 492 433 517 m 431 208 q 413 256 431 236 q 367 278 394 275 q 410 298 392 281 q 431 342 428 315 q 453 296 433 314 q 500 278 472 278 q 549 298 529 278 q 569 347 569 318 q 551 394 569 375 q 506 417 533 414 q 551 439 533 419 q 569 486 569 458 q 551 533 569 514 q 506 556 533 553 q 551 578 533 558 q 569 625 569 597 q 549 674 569 654 q 500 694 529 694 q 451 674 471 694 q 431 625 431 654 q 413 672 431 653 q 367 694 394 692 q 413 717 394 697 q 431 764 431 736 q 410 813 431 793 q 361 833 390 833 q 314 815 333 833 q 292 769 294 797 q 271 813 289 794 q 228 833 253 831 q 274 856 256 836 q 292 903 292 875 q 272 952 292 932 q 222 972 251 972 q 175 954 194 972 q 153 908 156 936 q 131 954 150 936 q 83 972 111 972 q 34 952 54 972 q 14 903 14 932 q 34 853 14 874 q 83 833 54 833 q 131 851 111 833 q 153 897 150 869 q 173 853 156 871 q 217 833 190 836 q 171 811 189 831 q 153 764 153 792 q 173 715 153 735 q 222 694 193 694 q 269 713 250 694 q 292 758 289 731 q 312 715 294 732 q 356 694 329 697 q 310 672 328 692 q 292 625 292 653 q 310 578 292 597 q 356 556 328 558 q 310 533 328 553 q 292 486 292 514 q 310 439 292 458 q 356 417 328 419 q 310 394 328 414 q 292 347 292 375 q 310 300 292 319 q 356 278 328 281 q 312 257 329 275 q 292 214 294 239 q 269 260 289 242 q 222 278 250 278 q 173 258 193 278 q 153 208 153 238 q 171 161 153 181 q 217 139 189 142 q 173 118 190 136 q 153 75 156 100 q 131 121 150 103 q 83 139 111 139 q 34 119 54 139 q 14 69 14 99 q 34 20 14 40 q 83 0 54 0 q 131 18 111 0 q 153 64 150 36 q 175 18 156 36 q 222 0 194 0 q 272 20 251 0 q 292 69 292 40 q 274 117 292 97 q 228 139 256 136 q 271 159 253 142 q 292 203 289 176 q 314 157 294 175 q 361 139 333 139 q 410 159 390 139 q 431 208 431 179 z "},"*":{"ha":1343,"x_min":0,"x_max":1204,"o":"m 903 333 q 924 292 919 314 q 965 276 947 289 q 993 243 983 263 l 1042 194 q 1065 139 1065 171 q 1042 83 1065 106 q 986 60 1019 60 q 931 83 954 60 l 915 97 q 887 70 904 81 q 847 60 869 60 q 790 82 813 60 l 738 135 q 708 161 719 144 q 694 199 697 178 q 671 207 682 201 q 653 222 660 213 l 638 236 q 609 209 626 219 q 569 199 592 199 q 513 219 533 199 l 496 236 q 485 222 490 229 q 472 211 479 215 l 489 196 q 510 139 510 175 q 487 83 510 106 q 431 60 464 60 q 375 83 399 60 l 360 97 q 331 70 349 81 q 292 60 314 60 q 235 82 257 60 l 182 135 q 139 208 139 157 q 163 268 139 244 q 222 292 186 292 q 263 281 246 292 q 292 256 281 271 q 314 276 299 268 q 288 303 296 286 q 278 340 279 319 q 254 349 265 343 q 236 364 243 354 l 221 378 q 192 351 210 361 q 153 340 175 340 q 96 363 118 340 l 43 415 q 0 489 0 438 q 24 549 0 525 q 83 572 47 572 q 123 563 104 572 q 153 538 142 553 q 183 563 164 553 q 222 572 201 572 q 262 563 243 572 q 292 538 281 553 q 314 557 299 549 q 291 582 301 567 q 278 615 281 597 q 235 638 250 618 l 182 690 q 139 764 139 713 q 163 824 139 800 q 222 847 186 847 q 262 838 243 847 q 292 813 281 828 q 322 838 303 828 q 361 847 340 847 q 408 834 388 847 q 438 799 428 821 l 486 750 q 507 708 503 731 q 542 696 526 706 q 569 674 558 686 q 599 699 581 689 q 639 708 618 708 q 680 698 663 708 q 708 672 697 688 q 731 693 715 685 q 694 764 694 713 q 718 824 694 800 q 778 847 742 847 q 817 838 799 847 q 847 813 836 828 q 877 838 858 828 q 917 847 896 847 q 963 834 943 847 q 993 799 983 821 l 1042 750 q 1065 694 1065 726 q 1042 638 1065 661 q 986 615 1019 615 q 929 636 950 615 l 913 653 q 901 639 907 646 q 889 628 896 632 l 906 613 q 904 613 904 613 q 903 614 904 614 l 906 613 q 924 572 922 594 q 959 559 943 569 q 986 533 975 549 q 1056 572 1008 572 q 1102 558 1082 572 q 1132 522 1122 544 l 1178 476 q 1177 478 1178 478 q 1176 479 1176 478 l 1181 475 q 1204 419 1204 451 q 1181 363 1204 386 q 1125 340 1158 340 q 1069 364 1093 340 l 1054 378 q 1026 351 1043 361 q 986 340 1008 340 q 931 364 954 340 l 915 378 q 886 350 906 363 l 903 333 m 708 619 q 726 578 711 596 q 764 557 740 561 q 726 535 740 551 q 708 494 711 518 q 690 535 706 518 q 653 557 675 551 q 690 578 675 561 q 708 619 706 596 m 569 489 q 553 533 569 514 q 514 557 538 551 q 551 578 536 561 q 569 619 567 596 q 587 578 572 596 q 625 557 601 561 q 585 533 601 551 q 569 489 569 514 m 486 557 q 448 535 463 551 q 431 494 433 518 q 413 535 428 518 q 375 557 397 551 q 413 578 397 561 q 431 619 428 596 q 448 578 433 596 q 486 557 463 561 m 708 208 q 728 159 708 179 q 778 139 749 139 q 825 157 806 139 q 847 203 844 175 q 869 157 850 175 q 917 139 889 139 q 966 159 946 139 q 986 208 986 179 q 966 258 986 238 q 917 278 946 278 q 869 260 889 278 q 847 214 850 242 q 826 257 844 239 q 783 278 808 275 q 829 300 811 281 q 847 347 847 319 q 827 397 847 376 q 778 417 807 417 q 731 399 750 417 q 708 353 711 381 q 686 399 706 381 q 639 417 667 417 q 592 399 611 417 q 569 353 572 381 q 547 399 567 381 q 500 417 528 417 q 453 399 472 417 q 431 353 433 381 q 408 399 428 381 q 361 417 389 417 q 312 397 332 417 q 292 347 292 376 q 310 300 292 319 q 356 278 328 281 q 312 257 329 275 q 292 214 294 239 q 269 260 289 242 q 222 278 250 278 q 173 258 193 278 q 153 208 153 238 q 173 159 153 179 q 222 139 193 139 q 269 157 250 139 q 292 203 289 175 q 314 157 294 175 q 361 139 333 139 q 410 159 390 139 q 431 208 431 179 q 413 256 431 236 q 367 278 394 275 q 410 298 392 281 q 431 342 428 315 q 453 296 433 314 q 500 278 472 278 q 547 296 528 278 q 569 342 567 314 q 592 296 572 314 q 639 278 611 278 q 686 296 667 278 q 708 342 706 314 q 728 298 711 315 q 772 278 746 281 q 726 256 744 275 q 708 208 708 236 m 292 625 q 308 580 292 599 q 347 557 324 561 q 309 535 324 551 q 292 494 294 518 q 269 540 289 522 q 222 558 250 558 q 175 540 194 558 q 153 494 156 522 q 131 540 150 522 q 83 558 111 558 q 34 538 54 558 q 14 489 14 518 q 34 440 14 460 q 83 419 54 419 q 131 438 111 419 q 153 483 150 456 q 175 438 156 456 q 222 419 194 419 q 269 438 250 419 q 292 483 289 456 q 314 438 294 456 q 361 419 333 419 q 408 438 389 419 q 431 483 428 456 q 453 438 433 456 q 500 419 472 419 q 547 438 528 419 q 569 483 567 456 q 592 438 572 456 q 639 419 611 419 q 686 438 667 419 q 708 483 706 456 q 731 438 711 456 q 778 419 750 419 q 825 438 806 419 q 847 483 844 456 q 869 438 850 456 q 917 419 889 419 q 964 438 944 419 q 986 483 983 456 q 1008 438 989 456 q 1056 419 1028 419 q 1105 440 1085 419 q 1125 489 1125 460 q 1105 538 1125 518 q 1056 558 1085 558 q 1006 538 1026 558 q 986 489 986 518 q 966 538 986 518 q 917 558 946 558 q 869 540 889 558 q 847 494 850 522 q 829 535 844 518 q 792 557 814 551 q 831 580 815 561 q 847 625 847 599 q 829 672 847 653 q 783 694 811 692 q 826 715 808 697 q 847 758 844 732 q 869 713 850 731 q 917 694 889 694 q 966 715 946 694 q 986 764 986 735 q 966 813 986 793 q 917 833 946 833 q 869 815 889 833 q 847 769 850 797 q 825 815 844 797 q 778 833 806 833 q 728 813 749 833 q 708 764 708 793 q 726 717 708 736 q 772 694 744 697 q 728 674 746 692 q 708 631 711 656 q 686 676 706 658 q 639 694 667 694 q 592 676 611 694 q 569 631 572 658 q 547 676 567 658 q 500 694 528 694 q 451 674 471 694 q 431 625 431 654 q 413 672 431 653 q 367 694 394 692 q 413 717 394 697 q 431 764 431 736 q 410 813 431 793 q 361 833 390 833 q 314 815 333 833 q 292 769 294 797 q 269 815 289 797 q 222 833 250 833 q 173 813 193 833 q 153 764 153 793 q 173 715 153 735 q 222 694 193 694 q 269 713 250 694 q 292 758 289 731 q 312 715 294 732 q 356 694 329 697 q 310 672 328 692 q 292 625 292 653 z "},"+":{"ha":1065,"x_min":0,"x_max":926,"o":"m 278 764 q 301 824 278 800 q 361 847 325 847 q 401 838 382 847 q 431 813 419 828 q 460 838 442 828 q 500 847 479 847 q 547 833 526 847 q 576 797 567 819 l 622 751 q 622 753 622 753 q 621 754 621 753 l 625 750 q 649 694 649 726 q 610 625 649 647 l 625 611 q 646 572 642 594 q 681 560 665 569 q 708 538 697 550 q 738 563 719 553 q 778 572 757 572 q 824 558 804 572 q 854 522 844 544 l 900 476 q 899 478 900 478 q 899 479 899 478 l 903 475 q 926 419 926 451 q 903 363 926 386 q 847 340 881 340 q 792 364 815 340 l 776 378 q 748 351 765 361 q 708 340 731 340 q 653 364 676 340 l 638 378 q 608 350 628 363 l 625 333 q 649 278 649 310 q 610 208 649 231 l 625 194 q 649 139 649 171 q 626 83 649 106 q 569 60 603 60 q 514 83 538 60 l 499 99 q 431 60 476 60 q 374 82 396 60 l 321 135 q 278 208 278 157 q 288 248 278 229 q 313 278 297 267 q 289 305 299 289 q 278 340 279 321 q 254 349 265 343 q 236 364 243 354 l 221 378 q 192 351 210 361 q 153 340 175 340 q 96 363 118 340 l 43 415 q 0 489 0 438 q 24 549 0 525 q 83 572 47 572 q 123 563 104 572 q 153 538 142 553 q 183 563 164 553 q 222 572 201 572 q 262 563 243 572 q 292 538 281 553 q 314 557 299 549 q 289 587 300 568 q 278 625 278 606 q 288 665 278 646 q 313 694 297 683 q 288 724 297 706 q 278 764 278 743 m 486 557 q 448 535 463 551 q 431 494 433 518 q 413 535 428 518 q 375 557 397 551 q 413 578 397 561 q 431 619 428 596 q 448 578 433 596 q 486 557 463 561 m 431 208 q 413 256 431 236 q 367 278 394 275 q 410 298 392 281 q 431 342 428 315 q 451 298 433 315 q 494 278 468 281 q 449 256 467 275 q 431 208 431 236 m 431 631 q 410 674 428 656 q 367 694 392 692 q 410 715 392 697 q 431 758 428 732 q 451 715 433 732 q 494 694 468 697 q 451 674 468 692 q 431 631 433 656 m 292 347 q 310 300 292 319 q 356 278 328 281 q 310 256 328 275 q 292 208 292 236 q 312 159 292 179 q 361 139 332 139 q 408 157 389 139 q 431 203 428 175 q 453 157 433 175 q 500 139 472 139 q 549 159 529 139 q 569 208 569 179 q 551 256 569 236 q 506 278 533 275 q 551 300 533 281 q 569 347 569 319 q 549 397 569 376 q 500 417 529 417 q 451 397 471 417 q 431 347 431 376 q 410 397 431 376 q 361 417 390 417 q 312 397 332 417 q 292 347 292 376 m 292 764 q 310 717 292 736 q 356 694 328 697 q 310 672 328 692 q 292 625 292 653 q 308 580 292 599 q 347 557 324 561 q 309 535 324 551 q 292 494 294 518 q 269 540 289 522 q 222 558 250 558 q 175 540 194 558 q 153 494 156 522 q 131 540 150 522 q 83 558 111 558 q 34 538 54 558 q 14 489 14 518 q 34 440 14 460 q 83 419 54 419 q 131 438 111 419 q 153 483 150 456 q 175 438 156 456 q 222 419 194 419 q 269 438 250 419 q 292 483 289 456 q 314 438 294 456 q 361 419 333 419 q 408 438 389 419 q 431 483 428 456 q 453 438 433 456 q 500 419 472 419 q 547 438 528 419 q 569 483 567 456 q 592 438 572 456 q 639 419 611 419 q 686 438 667 419 q 708 483 706 456 q 731 438 711 456 q 778 419 750 419 q 827 440 807 419 q 847 489 847 460 q 827 538 847 518 q 778 558 807 558 q 731 540 750 558 q 708 494 711 522 q 686 540 706 522 q 639 558 667 558 q 592 540 611 558 q 569 494 572 522 q 551 535 567 518 q 514 557 536 551 q 553 580 538 561 q 569 625 569 599 q 551 672 569 653 q 506 694 533 692 q 551 717 533 697 q 569 764 569 736 q 549 813 569 793 q 500 833 529 833 q 453 815 472 833 q 431 769 433 797 q 408 815 428 797 q 361 833 389 833 q 312 813 332 833 q 292 764 292 793 z "},",":{"ha":649,"x_min":0,"x_max":510,"o":"m 139 208 q 163 268 139 244 q 222 292 186 292 q 262 282 243 292 q 292 257 281 272 q 322 282 303 272 q 361 292 340 292 q 408 278 388 292 q 438 243 428 265 l 486 194 q 510 139 510 171 q 471 69 510 92 l 486 56 q 510 0 510 32 q 487 -56 510 -33 q 431 -79 464 -79 q 374 -58 394 -79 l 357 -42 q 333 -65 344 -58 l 350 -82 q 371 -139 371 -103 q 348 -195 371 -172 q 292 -218 325 -218 q 236 -194 260 -218 l 221 -179 q 192 -207 210 -196 q 153 -218 175 -218 q 96 -196 118 -218 l 43 -143 q 0 -69 0 -121 q 24 -10 0 -33 q 83 14 47 14 q 123 4 104 14 q 153 -21 142 -6 q 174 -1 161 -8 q 139 69 139 18 q 149 109 139 90 q 174 139 158 128 q 149 169 158 150 q 139 208 139 188 m 356 139 q 312 118 329 136 q 292 75 294 100 q 271 118 289 100 q 228 139 253 136 q 271 159 253 142 q 292 203 289 176 q 312 159 294 176 q 356 139 329 142 m 153 208 q 171 161 153 181 q 217 139 189 142 q 171 117 189 136 q 153 69 153 97 q 171 22 153 42 q 217 0 189 3 q 173 -20 190 -3 q 153 -64 156 -37 q 131 -18 150 -36 q 83 0 111 0 q 34 -20 54 0 q 14 -69 14 -40 q 34 -119 14 -99 q 83 -139 54 -139 q 131 -121 111 -139 q 153 -75 150 -103 q 175 -121 156 -103 q 222 -139 194 -139 q 272 -119 251 -139 q 292 -69 292 -99 q 274 -22 292 -42 q 228 0 256 -3 q 271 20 253 3 q 292 64 289 38 q 314 18 294 36 q 361 0 333 0 q 410 20 390 0 q 431 69 431 40 q 413 117 431 97 q 367 139 394 136 q 413 161 394 142 q 431 208 431 181 q 410 258 431 238 q 361 278 390 278 q 314 260 333 278 q 292 214 294 242 q 269 260 289 242 q 222 278 250 278 q 173 258 193 278 q 153 208 153 238 z "},"-":{"ha":1065,"x_min":0,"x_max":926,"o":"m 0 350 q 24 410 0 386 q 83 433 47 433 q 123 424 104 433 q 153 399 142 414 q 183 424 164 414 q 222 433 201 433 q 262 424 243 433 q 292 399 281 414 q 322 424 303 414 q 361 433 340 433 q 401 424 382 433 q 431 399 419 414 q 460 424 442 414 q 500 433 479 433 q 540 424 521 433 q 569 399 558 414 q 599 424 581 414 q 639 433 618 433 q 679 423 661 433 q 708 394 697 413 q 778 433 731 433 q 824 420 804 433 q 854 385 844 407 l 903 336 q 926 281 926 313 q 903 224 926 247 q 847 201 881 201 q 792 225 815 201 l 776 239 q 748 212 765 222 q 708 201 731 201 q 653 225 676 201 l 638 239 q 609 212 626 222 q 569 201 592 201 q 514 225 538 201 l 499 240 q 431 201 476 201 q 375 225 399 201 l 360 239 q 331 212 349 222 q 292 201 314 201 q 236 225 260 201 l 221 239 q 192 212 210 222 q 153 201 175 201 q 96 224 118 201 l 43 276 q 0 350 0 299 m 14 350 q 34 301 14 321 q 83 281 54 281 q 131 299 111 281 q 153 344 150 317 q 175 299 156 317 q 222 281 194 281 q 269 299 250 281 q 292 344 289 317 q 314 299 294 317 q 361 281 333 281 q 408 299 389 281 q 431 344 428 317 q 453 299 433 317 q 500 281 472 281 q 547 299 528 281 q 569 344 567 317 q 592 299 572 317 q 639 281 611 281 q 686 299 667 281 q 708 344 706 317 q 731 299 711 317 q 778 281 750 281 q 827 301 807 281 q 847 350 847 321 q 827 399 847 379 q 778 419 807 419 q 728 399 749 419 q 708 350 708 379 q 688 399 708 379 q 639 419 668 419 q 592 401 611 419 q 569 356 572 383 q 547 401 567 383 q 500 419 528 419 q 453 401 472 419 q 431 356 433 383 q 408 401 428 383 q 361 419 389 419 q 314 401 333 419 q 292 356 294 383 q 269 401 289 383 q 222 419 250 419 q 175 401 194 419 q 153 356 156 383 q 131 401 150 383 q 83 419 111 419 q 34 399 54 419 q 14 350 14 379 z "},".":{"ha":510,"x_min":0,"x_max":371,"o":"m 0 208 q 24 268 0 244 q 83 292 47 292 q 123 282 104 292 q 153 257 142 272 q 183 282 164 272 q 222 292 201 292 q 269 278 249 292 q 299 243 289 265 l 347 194 q 371 139 371 171 q 332 69 371 92 l 339 63 q 338 64 339 64 q 338 65 338 64 l 347 56 q 371 0 371 32 q 348 -56 371 -33 q 292 -79 325 -79 q 236 -56 260 -79 l 221 -40 q 192 -68 210 -57 q 153 -79 175 -79 q 96 -57 118 -79 l 43 -4 q 0 69 0 18 q 10 109 0 90 q 35 139 19 128 q 10 169 19 150 q 0 208 0 188 m 153 69 q 135 117 153 97 q 89 139 117 136 q 132 159 114 142 q 153 203 150 176 q 173 159 156 176 q 217 139 190 142 q 171 117 189 136 q 153 69 153 97 m 14 208 q 32 161 14 181 q 78 139 50 142 q 32 117 50 136 q 14 69 14 97 q 34 20 14 40 q 83 0 54 0 q 131 18 111 0 q 153 64 150 36 q 175 18 156 36 q 222 0 194 0 q 272 20 251 0 q 292 69 292 40 q 274 117 292 97 q 228 139 256 136 q 274 161 256 142 q 292 208 292 181 q 272 258 292 238 q 222 278 251 278 q 175 260 194 278 q 153 214 156 242 q 131 260 150 242 q 83 278 111 278 q 34 258 54 278 q 14 208 14 238 z "},"/":{"ha":1204,"x_min":0,"x_max":1065,"o":"m 694 903 q 718 963 694 939 q 778 986 742 986 q 817 976 799 986 q 847 951 836 967 q 877 976 858 967 q 917 986 896 986 q 963 973 943 986 q 993 938 983 960 l 1042 889 q 1065 833 1065 865 q 1042 777 1065 800 q 986 754 1019 754 q 929 775 950 754 l 913 792 q 901 778 907 785 q 889 767 896 771 l 906 751 q 904 752 904 751 q 903 753 904 753 l 906 751 q 926 694 926 731 q 903 638 926 661 q 847 615 881 615 q 790 636 811 615 l 774 653 q 763 639 768 646 q 750 628 757 632 l 767 613 q 765 613 765 613 q 764 614 765 614 l 767 613 q 788 556 788 592 q 765 499 788 522 q 708 476 742 476 q 651 497 672 476 l 635 514 q 624 500 629 507 q 611 489 618 493 l 625 475 q 624 476 625 476 q 624 478 624 476 l 628 474 q 649 417 649 453 q 626 360 649 383 q 569 338 603 338 q 513 358 533 338 l 496 375 q 485 361 490 368 q 472 350 479 354 l 489 335 q 510 278 510 314 q 487 222 510 244 q 431 199 464 199 q 374 219 394 199 l 357 236 q 346 222 351 229 q 333 211 340 215 l 350 196 q 371 139 371 175 q 348 83 371 106 q 292 60 325 60 q 235 81 256 60 l 218 97 q 207 83 213 90 q 194 72 201 76 l 208 58 q 208 60 208 60 q 207 61 207 60 l 211 57 q 232 0 232 36 q 209 -56 232 -33 q 153 -79 186 -79 q 96 -57 118 -79 l 43 -4 q 0 69 0 18 q 10 109 0 90 q 35 139 19 128 q 10 169 19 150 q 0 208 0 188 q 24 268 0 244 q 83 292 47 292 q 124 281 107 292 q 153 256 142 271 q 175 276 160 268 q 139 347 139 296 q 163 407 139 383 q 222 431 186 431 q 263 420 246 431 q 292 394 281 410 q 314 415 299 407 q 278 486 278 435 q 301 546 278 522 q 361 569 325 569 q 402 559 385 569 q 431 533 419 549 q 453 554 438 546 q 417 625 417 574 q 440 685 417 661 q 500 708 464 708 q 541 698 524 708 q 569 672 558 688 q 592 693 576 685 q 556 764 556 713 q 579 824 556 800 q 639 847 603 847 q 680 837 663 847 q 708 811 697 826 q 731 832 715 824 q 694 903 694 851 m 708 903 q 726 856 708 875 q 772 833 744 836 q 728 813 746 831 q 708 769 711 794 q 686 815 706 797 q 639 833 667 833 q 590 813 610 833 q 569 764 569 793 q 588 717 569 736 q 633 694 606 697 q 590 674 607 692 q 569 631 572 656 q 547 676 567 658 q 500 694 528 694 q 451 674 471 694 q 431 625 431 654 q 449 578 431 597 q 494 556 467 558 q 451 535 468 553 q 431 492 433 517 q 408 538 428 519 q 361 556 389 556 q 312 535 332 556 q 292 486 292 515 q 310 439 292 458 q 356 417 328 419 q 312 396 329 414 q 292 353 294 378 q 269 399 289 381 q 222 417 250 417 q 173 397 193 417 q 153 347 153 376 q 171 300 153 319 q 217 278 189 281 q 173 257 190 275 q 153 214 156 239 q 131 260 150 242 q 83 278 111 278 q 34 258 54 278 q 14 208 14 238 q 32 161 14 181 q 78 139 50 142 q 32 117 50 136 q 14 69 14 97 q 34 20 14 40 q 83 0 54 0 q 133 20 113 0 q 153 69 153 40 q 135 117 153 97 q 89 139 117 136 q 132 159 114 142 q 153 203 150 176 q 175 157 156 175 q 222 139 194 139 q 272 159 251 139 q 292 208 292 179 q 274 256 292 236 q 228 278 256 275 q 271 298 253 281 q 292 342 289 315 q 314 296 294 314 q 361 278 333 278 q 410 298 390 278 q 431 347 431 318 q 413 394 431 375 q 367 417 394 414 q 410 437 392 419 q 431 481 428 454 q 453 435 433 453 q 500 417 472 417 q 549 437 529 417 q 569 486 569 457 q 551 533 569 514 q 506 556 533 553 q 549 576 531 558 q 569 619 567 593 q 592 574 572 592 q 639 556 611 556 q 688 576 668 556 q 708 625 708 596 q 690 672 708 653 q 644 694 672 692 q 688 715 669 697 q 708 758 706 732 q 731 713 711 731 q 778 694 750 694 q 827 715 807 694 q 847 764 847 735 q 829 811 847 792 q 783 833 811 831 q 826 853 808 836 q 847 897 844 871 q 869 851 850 869 q 917 833 889 833 q 966 853 946 833 q 986 903 986 874 q 966 952 986 932 q 917 972 946 972 q 869 954 889 972 q 847 908 850 936 q 825 954 844 936 q 778 972 806 972 q 728 952 749 972 q 708 903 708 932 z "},":":{"ha":510,"x_min":0,"x_max":371,"o":"m 0 208 q 24 268 0 244 q 83 292 47 292 q 124 281 106 292 q 153 253 142 271 q 222 292 175 292 q 269 278 249 292 q 299 243 289 265 l 347 194 q 371 139 371 171 q 332 69 371 92 l 347 56 q 371 0 371 32 q 348 -56 371 -33 q 292 -79 325 -79 q 236 -56 260 -79 l 221 -40 q 192 -68 210 -57 q 153 -79 175 -79 q 96 -57 118 -79 l 43 -4 q 0 69 0 18 q 10 109 0 90 q 35 139 19 128 q 10 169 19 150 q 0 208 0 188 m 0 764 q 24 824 0 800 q 83 847 47 847 q 124 837 106 847 q 153 808 142 826 q 222 847 175 847 q 269 833 249 847 q 299 797 289 819 l 344 751 q 344 753 344 753 q 343 754 343 753 l 347 750 q 365 725 358 739 q 371 694 371 711 q 332 625 371 647 l 347 611 q 365 586 358 600 q 371 556 371 572 q 348 499 371 522 q 292 476 325 476 q 261 483 275 476 q 236 500 247 489 l 221 514 q 192 487 210 497 q 153 476 175 476 q 96 499 118 476 l 43 551 q 0 625 0 574 q 10 665 0 646 q 35 694 19 683 q 10 724 19 706 q 0 764 0 743 m 153 625 q 135 672 153 653 q 89 694 117 692 q 132 715 114 697 q 153 758 150 732 q 173 715 156 732 q 217 694 190 697 q 171 672 189 692 q 153 625 153 653 m 153 69 q 135 117 153 97 q 89 139 117 136 q 132 159 114 142 q 153 203 150 176 q 173 159 156 176 q 217 139 190 142 q 171 117 189 136 q 153 69 153 97 m 14 208 q 32 161 14 181 q 78 139 50 142 q 32 117 50 136 q 14 69 14 97 q 34 20 14 40 q 83 0 54 0 q 131 18 111 0 q 153 64 150 36 q 175 18 156 36 q 222 0 194 0 q 272 20 251 0 q 292 69 292 40 q 274 117 292 97 q 228 139 256 136 q 274 161 256 142 q 292 208 292 181 q 272 258 292 238 q 222 278 251 278 q 173 258 193 278 q 153 208 153 238 q 133 258 153 238 q 83 278 113 278 q 34 258 54 278 q 14 208 14 238 m 14 764 q 32 717 14 736 q 78 694 50 697 q 32 672 50 692 q 14 625 14 653 q 34 576 14 596 q 83 556 54 556 q 131 574 111 556 q 153 619 150 592 q 175 574 156 592 q 222 556 194 556 q 272 576 251 556 q 292 625 292 596 q 274 672 292 653 q 228 694 256 692 q 274 717 256 697 q 292 764 292 736 q 272 813 292 793 q 222 833 251 833 q 173 813 193 833 q 153 764 153 793 q 133 813 153 793 q 83 833 113 833 q 34 813 54 833 q 14 764 14 793 z "},";":{"ha":649,"x_min":0,"x_max":510,"o":"m 139 764 q 163 824 139 800 q 222 847 186 847 q 262 838 243 847 q 292 813 281 828 q 322 838 303 828 q 361 847 340 847 q 408 834 388 847 q 438 799 428 821 l 486 750 q 503 725 497 739 q 510 694 510 711 q 471 625 510 647 l 478 618 q 477 619 478 619 q 476 621 476 619 l 486 611 q 503 586 497 600 q 510 556 510 572 q 487 499 510 522 q 431 476 464 476 q 400 483 414 476 q 375 500 386 489 l 360 514 q 331 487 349 497 q 292 476 314 476 q 235 499 257 476 l 182 551 q 139 625 139 574 q 149 665 139 646 q 174 694 158 683 q 149 724 158 706 q 139 764 139 743 m 139 208 q 163 268 139 244 q 222 292 186 292 q 262 282 243 292 q 292 257 281 272 q 322 282 303 272 q 361 292 340 292 q 408 278 388 292 q 438 242 428 264 l 483 196 q 483 197 483 197 q 482 199 482 197 l 486 194 q 510 139 510 171 q 471 69 510 92 l 486 56 q 510 0 510 32 q 487 -56 510 -33 q 431 -79 464 -79 q 374 -58 394 -79 l 357 -42 q 333 -65 344 -58 l 350 -82 q 371 -139 371 -103 q 348 -195 371 -172 q 292 -218 325 -218 q 236 -194 260 -218 l 221 -179 q 192 -207 210 -196 q 153 -218 175 -218 q 96 -196 118 -218 l 43 -143 q 0 -69 0 -121 q 24 -10 0 -33 q 83 14 47 14 q 123 4 104 14 q 153 -21 142 -6 q 174 -1 161 -8 q 139 69 139 18 q 149 109 139 90 q 174 139 158 128 q 149 169 158 150 q 139 208 139 188 m 356 694 q 312 674 329 692 q 292 631 294 656 q 271 674 289 656 q 228 694 253 692 q 271 715 253 697 q 292 758 289 732 q 312 715 294 732 q 356 694 329 697 m 356 139 q 312 118 329 136 q 292 75 294 100 q 271 118 289 100 q 228 139 253 136 q 271 159 253 142 q 292 203 289 176 q 312 159 294 176 q 356 139 329 142 m 153 764 q 171 717 153 736 q 217 694 189 697 q 171 672 189 692 q 153 625 153 653 q 173 576 153 596 q 222 556 193 556 q 269 574 250 556 q 292 619 289 592 q 314 574 294 592 q 361 556 333 556 q 410 576 390 556 q 431 625 431 596 q 413 672 431 653 q 367 694 394 692 q 413 717 394 697 q 431 764 431 736 q 410 813 431 793 q 361 833 390 833 q 314 815 333 833 q 292 769 294 797 q 269 815 289 797 q 222 833 250 833 q 173 813 193 833 q 153 764 153 793 m 153 208 q 171 161 153 181 q 217 139 189 142 q 171 117 189 136 q 153 69 153 97 q 171 22 153 42 q 217 0 189 3 q 173 -20 190 -3 q 153 -64 156 -37 q 131 -18 150 -36 q 83 0 111 0 q 34 -20 54 0 q 14 -69 14 -40 q 34 -119 14 -99 q 83 -139 54 -139 q 131 -121 111 -139 q 153 -75 150 -103 q 175 -121 156 -103 q 222 -139 194 -139 q 272 -119 251 -139 q 292 -69 292 -99 q 274 -22 292 -42 q 228 0 256 -3 q 271 20 253 3 q 292 64 289 38 q 314 18 294 36 q 361 0 333 0 q 410 20 390 0 q 431 69 431 40 q 413 117 431 97 q 367 139 394 136 q 413 161 394 142 q 431 208 431 181 q 410 258 431 238 q 361 278 390 278 q 314 260 333 278 q 292 214 294 242 q 269 260 289 242 q 222 278 250 278 q 173 258 193 278 q 153 208 153 238 z "},"<":{"ha":926,"x_min":0,"x_max":788,"o":"m 417 903 q 440 963 417 939 q 500 986 464 986 q 540 976 521 986 q 569 951 558 967 q 599 976 581 967 q 639 986 618 986 q 685 972 665 986 q 715 936 706 958 l 761 890 q 760 892 761 892 q 760 893 760 892 l 764 889 q 788 833 788 865 q 765 777 788 800 q 708 754 742 754 q 651 775 672 754 l 635 792 q 624 778 629 785 q 611 767 618 771 l 628 751 q 649 694 649 731 q 626 638 649 661 q 569 615 603 615 q 513 636 533 615 l 496 653 q 485 639 490 646 q 472 628 479 632 l 489 613 q 510 556 510 592 q 487 499 510 522 q 431 476 464 476 q 374 497 394 476 l 357 514 q 346 500 351 507 q 333 489 340 493 l 350 474 q 363 454 357 465 q 369 431 368 443 q 410 415 393 428 q 438 381 428 401 l 483 335 q 483 336 483 336 q 482 338 482 336 l 486 333 q 507 292 503 314 q 549 276 531 289 q 576 243 567 263 l 625 194 q 646 153 642 175 q 688 137 669 150 q 715 104 706 124 l 764 56 q 788 0 788 32 q 765 -56 788 -33 q 708 -79 742 -79 q 653 -56 676 -79 l 638 -40 q 609 -68 626 -57 q 569 -79 592 -79 q 513 -57 535 -79 l 460 -4 q 431 22 442 6 q 417 60 419 39 q 374 82 389 63 l 321 135 q 292 161 303 144 q 278 199 281 178 q 235 221 250 201 l 182 274 q 153 300 164 283 q 139 338 142 317 q 96 360 111 340 l 43 413 q 0 486 0 435 q 24 546 0 522 q 83 569 47 569 q 124 559 107 569 q 153 533 142 549 q 175 554 160 546 q 139 625 139 574 q 163 685 139 661 q 222 708 186 708 q 263 698 246 708 q 292 672 281 688 q 314 693 299 685 q 278 764 278 713 q 301 824 278 800 q 361 847 325 847 q 402 837 385 847 q 431 811 419 826 q 453 832 438 824 q 417 903 417 851 m 431 903 q 449 856 431 875 q 494 833 467 836 q 451 813 468 831 q 431 769 433 794 q 408 815 428 797 q 361 833 389 833 q 312 813 332 833 q 292 764 292 793 q 310 717 292 736 q 356 694 328 697 q 312 674 329 692 q 292 631 294 656 q 269 676 289 658 q 222 694 250 694 q 173 674 193 694 q 153 625 153 654 q 171 578 153 597 q 217 556 189 558 q 173 535 190 553 q 153 492 156 517 q 131 538 150 519 q 83 556 111 556 q 34 535 54 556 q 14 486 14 515 q 34 437 14 457 q 83 417 54 417 q 131 435 111 417 q 153 481 150 453 q 173 437 156 454 q 217 417 190 419 q 171 394 189 414 q 153 347 153 375 q 173 298 153 318 q 222 278 193 278 q 269 296 250 278 q 292 342 289 314 q 312 298 294 315 q 356 278 329 281 q 310 256 328 275 q 292 208 292 236 q 312 159 292 179 q 361 139 332 139 q 408 157 389 139 q 431 203 428 175 q 451 159 433 176 q 494 139 468 142 q 449 117 467 136 q 431 69 431 97 q 451 20 431 40 q 500 0 471 0 q 547 18 528 0 q 569 64 567 36 q 592 18 572 36 q 639 0 611 0 q 688 20 668 0 q 708 69 708 40 q 688 119 708 99 q 639 139 668 139 q 592 121 611 139 q 569 75 572 103 q 549 118 567 100 q 506 139 531 136 q 551 161 533 142 q 569 208 569 181 q 549 258 569 238 q 500 278 529 278 q 453 260 472 278 q 431 214 433 242 q 410 257 428 239 q 367 278 392 275 q 413 300 394 281 q 431 347 431 319 q 410 397 431 376 q 361 417 390 417 q 314 399 333 417 q 292 353 294 381 q 271 396 289 378 q 228 417 253 414 q 274 439 256 419 q 292 486 292 458 q 274 533 292 514 q 228 556 256 553 q 271 576 253 558 q 292 619 289 593 q 314 574 294 592 q 361 556 333 556 q 410 576 390 556 q 431 625 431 596 q 413 672 431 653 q 367 694 394 692 q 410 715 392 697 q 431 758 428 732 q 453 713 433 731 q 500 694 472 694 q 549 715 529 694 q 569 764 569 735 q 551 811 569 792 q 506 833 533 831 q 549 853 531 836 q 569 897 567 871 q 592 851 572 869 q 639 833 611 833 q 688 853 668 833 q 708 903 708 874 q 688 952 708 932 q 639 972 668 972 q 592 954 611 972 q 569 908 572 936 q 547 954 567 936 q 500 972 528 972 q 451 952 471 972 q 431 903 431 932 z "},"=":{"ha":1065,"x_min":0,"x_max":926,"o":"m 0 628 q 24 688 0 664 q 83 711 47 711 q 123 701 104 711 q 153 676 142 692 q 183 701 164 692 q 222 711 201 711 q 263 701 244 711 q 292 672 281 690 q 361 711 314 711 q 401 701 382 711 q 431 676 419 692 q 460 701 442 692 q 500 711 479 711 q 540 701 521 711 q 569 676 558 692 q 599 701 581 692 q 639 711 618 711 q 678 701 660 711 q 708 676 697 692 q 738 701 719 692 q 778 711 757 711 q 824 698 804 711 q 854 663 844 685 l 903 614 q 926 558 926 590 q 903 502 926 525 q 847 479 881 479 q 792 503 815 479 l 776 517 q 748 490 765 500 q 708 479 731 479 q 653 503 676 479 l 638 517 q 609 490 626 500 q 569 479 592 479 q 539 485 553 479 q 514 503 525 492 l 499 517 q 470 490 488 500 q 431 479 453 479 q 400 485 414 479 q 375 503 386 492 l 360 517 q 331 490 349 500 q 292 479 314 479 q 261 485 275 479 q 236 503 247 492 l 221 517 q 192 490 210 500 q 153 479 175 479 q 96 501 118 479 l 43 554 q 0 628 0 576 m 0 211 q 24 271 0 247 q 83 294 47 294 q 123 285 104 294 q 153 260 142 275 q 183 285 164 275 q 222 294 201 294 q 262 285 243 294 q 292 260 281 275 q 322 285 303 275 q 361 294 340 294 q 401 285 382 294 q 431 260 419 275 q 460 285 442 275 q 500 294 479 294 q 540 285 521 294 q 569 260 558 275 q 599 285 581 275 q 639 294 618 294 q 678 285 660 294 q 708 260 697 275 q 738 285 719 275 q 778 294 757 294 q 824 281 804 294 q 854 244 844 267 l 900 199 q 899 200 900 200 q 899 201 899 200 l 903 197 q 926 142 926 174 q 903 85 926 108 q 847 63 881 63 q 792 86 815 63 l 776 101 q 708 63 754 63 q 653 86 676 63 l 638 100 q 609 73 626 83 q 569 63 592 63 q 514 86 538 63 l 499 100 q 470 73 488 83 q 431 63 453 63 q 375 86 399 63 l 360 100 q 331 73 349 83 q 292 63 314 63 q 236 86 260 63 l 221 100 q 192 73 210 83 q 153 63 175 63 q 96 85 118 63 l 43 138 q 0 211 0 160 m 14 628 q 34 578 14 599 q 83 558 54 558 q 131 576 111 558 q 153 622 150 594 q 175 576 156 594 q 222 558 194 558 q 269 576 250 558 q 292 622 289 594 q 314 576 294 594 q 361 558 333 558 q 408 576 389 558 q 431 622 428 594 q 453 576 433 594 q 500 558 472 558 q 547 576 528 558 q 569 622 567 594 q 592 576 572 594 q 639 558 611 558 q 686 576 667 558 q 708 622 706 594 q 731 576 711 594 q 778 558 750 558 q 827 578 807 558 q 847 628 847 599 q 827 677 847 657 q 778 697 807 697 q 731 679 750 697 q 708 633 711 661 q 686 679 706 661 q 639 697 667 697 q 592 679 611 697 q 569 633 572 661 q 547 679 567 661 q 500 697 528 697 q 453 679 472 697 q 431 633 433 661 q 408 679 428 661 q 361 697 389 697 q 312 677 332 697 q 292 628 292 657 q 272 677 292 657 q 222 697 251 697 q 175 679 194 697 q 153 633 156 661 q 131 679 150 661 q 83 697 111 697 q 34 677 54 697 q 14 628 14 657 m 14 211 q 34 162 14 182 q 83 142 54 142 q 131 160 111 142 q 153 206 150 178 q 175 160 156 178 q 222 142 194 142 q 269 160 250 142 q 292 206 289 178 q 314 160 294 178 q 361 142 333 142 q 408 160 389 142 q 431 206 428 178 q 453 160 433 178 q 500 142 472 142 q 547 160 528 142 q 569 206 567 178 q 592 160 572 178 q 639 142 611 142 q 686 160 667 142 q 708 206 706 178 q 731 160 711 178 q 778 142 750 142 q 827 162 807 142 q 847 211 847 182 q 827 260 847 240 q 778 281 807 281 q 731 263 750 281 q 708 217 711 244 q 686 263 706 244 q 639 281 667 281 q 592 263 611 281 q 569 217 572 244 q 547 263 567 244 q 500 281 528 281 q 453 263 472 281 q 431 217 433 244 q 408 263 428 244 q 361 281 389 281 q 314 263 333 281 q 292 217 294 244 q 269 263 289 244 q 222 281 250 281 q 175 263 194 281 q 153 217 156 244 q 131 263 150 244 q 83 281 111 281 q 34 260 54 281 q 14 211 14 240 z "},">":{"ha":926,"x_min":0,"x_max":788,"o":"m 625 611 q 646 569 642 592 q 688 553 669 567 q 715 521 706 540 l 764 472 q 788 417 788 449 q 765 360 788 383 q 708 338 742 338 q 651 358 672 338 l 635 375 q 624 361 629 368 q 611 350 618 354 l 628 335 q 649 278 649 314 q 626 222 649 244 q 569 199 603 199 q 513 219 533 199 l 496 236 q 485 222 490 229 q 472 211 479 215 l 489 196 q 510 139 510 175 q 487 83 510 106 q 431 60 464 60 q 374 81 394 60 l 357 97 q 346 83 351 90 q 333 72 340 76 l 350 57 q 349 58 349 57 q 347 58 349 58 l 350 57 q 371 0 371 36 q 348 -56 371 -33 q 292 -79 325 -79 q 236 -56 260 -79 l 221 -40 q 192 -68 210 -57 q 153 -79 175 -79 q 96 -57 118 -79 l 43 -4 q 0 69 0 18 q 24 129 0 106 q 83 153 47 153 q 124 142 106 153 q 153 114 142 132 q 174 139 161 128 q 149 169 158 150 q 139 208 139 188 q 163 268 139 244 q 222 292 186 292 q 263 281 246 292 q 292 256 281 271 q 314 276 299 268 q 278 347 278 296 q 301 407 278 383 q 361 431 325 431 q 401 420 383 431 q 431 392 419 410 q 451 417 439 406 q 428 442 438 426 q 417 476 419 457 q 374 499 389 479 l 321 551 q 292 578 303 561 q 278 615 281 594 q 235 638 250 618 l 182 690 q 153 717 164 700 q 139 754 142 733 q 96 776 111 757 l 43 829 q 0 903 0 851 q 24 963 0 939 q 83 986 47 986 q 123 976 104 986 q 153 951 142 967 q 183 976 164 967 q 222 986 201 986 q 269 973 249 986 q 299 938 289 960 l 347 889 q 368 847 364 869 q 410 831 392 844 q 438 797 428 818 l 483 751 q 483 753 483 753 q 482 754 482 753 l 486 750 q 507 708 503 731 q 549 692 531 706 q 576 660 567 679 l 625 611 m 292 69 q 274 117 292 97 q 228 139 256 136 q 271 159 253 142 q 292 203 289 176 q 314 157 294 175 q 361 139 333 139 q 410 159 390 139 q 431 208 431 179 q 413 256 431 236 q 367 278 394 275 q 410 298 392 281 q 431 342 428 315 q 453 296 433 314 q 500 278 472 278 q 549 298 529 278 q 569 347 569 318 q 551 394 569 375 q 506 417 533 414 q 549 437 531 419 q 569 481 567 454 q 592 435 572 453 q 639 417 611 417 q 688 437 668 417 q 708 486 708 457 q 688 535 708 515 q 639 556 668 556 q 592 538 611 556 q 569 492 572 519 q 549 535 567 517 q 506 556 531 553 q 551 578 533 558 q 569 625 569 597 q 549 674 569 654 q 500 694 529 694 q 453 676 472 694 q 431 631 433 658 q 410 674 428 656 q 367 694 392 692 q 413 717 394 697 q 431 764 431 736 q 410 813 431 793 q 361 833 390 833 q 314 815 333 833 q 292 769 294 797 q 271 813 289 794 q 228 833 253 831 q 274 856 256 836 q 292 903 292 875 q 272 952 292 932 q 222 972 251 972 q 175 954 194 972 q 153 908 156 936 q 131 954 150 936 q 83 972 111 972 q 34 952 54 972 q 14 903 14 932 q 34 853 14 874 q 83 833 54 833 q 131 851 111 833 q 153 897 150 869 q 173 853 156 871 q 217 833 190 836 q 171 811 189 831 q 153 764 153 792 q 173 715 153 735 q 222 694 193 694 q 269 713 250 694 q 292 758 289 731 q 312 715 294 732 q 356 694 329 697 q 310 672 328 692 q 292 625 292 653 q 312 576 292 596 q 361 556 332 556 q 408 574 389 556 q 431 619 428 592 q 451 576 433 593 q 494 556 468 558 q 449 533 467 553 q 431 486 431 514 q 449 439 431 458 q 494 417 467 419 q 449 394 467 414 q 431 347 431 375 q 410 397 431 376 q 361 417 390 417 q 312 397 332 417 q 292 347 292 376 q 310 300 292 319 q 356 278 328 281 q 312 257 329 275 q 292 214 294 239 q 269 260 289 242 q 222 278 250 278 q 173 258 193 278 q 153 208 153 238 q 171 161 153 181 q 217 139 189 142 q 171 117 189 136 q 153 69 153 97 q 133 119 153 99 q 83 139 113 139 q 34 119 54 139 q 14 69 14 99 q 34 20 14 40 q 83 0 54 0 q 131 18 111 0 q 153 64 150 36 q 175 18 156 36 q 222 0 194 0 q 272 20 251 0 q 292 69 292 40 z "},"?":{"ha":1065,"x_min":0,"x_max":926,"o":"m 321 -4 q 278 69 278 18 q 301 129 278 106 q 361 153 325 153 q 401 143 382 153 q 431 118 419 133 q 460 143 442 133 q 500 153 479 153 q 547 140 526 153 q 576 104 567 126 l 625 56 q 649 0 649 32 q 626 -56 649 -33 q 569 -79 603 -79 q 514 -56 538 -79 l 499 -40 q 470 -68 488 -57 q 431 -79 453 -79 q 374 -57 396 -79 l 321 -4 m 764 889 q 785 847 781 869 q 826 831 808 844 q 854 797 844 818 l 900 751 q 899 753 900 753 q 899 754 899 753 l 903 750 q 926 694 926 726 q 888 625 926 647 l 897 617 q 896 617 896 617 q 894 618 896 618 l 903 611 q 926 556 926 588 q 903 499 926 522 q 847 476 881 476 q 790 497 811 476 l 774 514 q 763 500 768 507 q 750 489 757 493 l 767 474 q 788 417 788 453 q 765 360 788 383 q 708 338 742 338 q 651 358 672 338 l 635 375 q 624 361 629 368 q 611 350 618 354 l 628 335 q 649 278 649 314 q 626 222 649 244 q 569 199 603 199 q 514 222 538 199 l 499 236 q 470 209 488 219 q 431 199 453 199 q 374 221 396 199 l 321 274 q 278 347 278 296 q 301 407 278 383 q 361 431 325 431 q 402 420 385 431 q 431 394 419 410 q 453 415 438 407 q 417 486 417 435 q 440 546 417 522 q 500 569 464 569 q 541 559 524 569 q 569 533 558 549 q 592 554 576 546 q 556 625 556 574 q 565 665 556 646 q 590 694 575 683 q 567 721 576 706 q 556 754 558 736 q 532 763 543 757 q 514 778 521 768 l 499 792 q 470 765 488 775 q 431 754 453 754 q 374 775 394 754 l 357 792 q 346 778 351 785 q 333 767 340 771 l 347 753 q 347 754 347 754 q 346 756 346 754 l 350 751 q 371 694 371 731 q 348 638 371 661 q 292 615 325 615 q 261 622 275 615 q 236 639 247 628 l 221 653 q 192 626 210 636 q 153 615 175 615 q 96 638 118 615 l 43 690 q 0 764 0 713 q 24 824 0 800 q 83 847 47 847 q 124 837 107 847 q 153 811 142 826 q 175 832 160 824 q 139 903 139 851 q 163 963 139 939 q 222 986 186 986 q 263 976 244 986 q 292 947 281 965 q 361 986 314 986 q 401 976 382 986 q 431 951 419 967 q 460 976 442 967 q 500 986 479 986 q 540 976 521 986 q 569 951 558 967 q 599 976 581 967 q 639 986 618 986 q 685 972 665 986 q 715 936 706 958 l 761 890 q 760 892 761 892 q 760 893 760 892 l 764 889 m 708 631 q 688 674 706 656 q 644 694 669 692 q 688 715 669 697 q 708 758 706 732 q 728 715 711 732 q 772 694 746 697 q 728 674 746 692 q 708 631 711 656 m 569 69 q 549 119 569 99 q 500 139 529 139 q 453 121 472 139 q 431 75 433 103 q 408 121 428 103 q 361 139 389 139 q 312 119 332 139 q 292 69 292 99 q 312 20 292 40 q 361 0 332 0 q 408 18 389 0 q 431 64 428 36 q 453 18 433 36 q 500 0 472 0 q 549 20 529 0 q 569 69 569 40 m 708 486 q 690 533 708 514 q 644 556 672 553 q 688 576 669 558 q 708 619 706 593 q 731 574 711 592 q 778 556 750 556 q 827 576 807 556 q 847 625 847 596 q 829 672 847 653 q 783 694 811 692 q 829 717 811 697 q 847 764 847 736 q 827 813 847 793 q 778 833 807 833 q 731 815 750 833 q 708 769 711 797 q 688 813 706 794 q 644 833 669 831 q 690 856 672 836 q 708 903 708 875 q 688 952 708 932 q 639 972 668 972 q 592 954 611 972 q 569 908 572 936 q 547 954 567 936 q 500 972 528 972 q 453 954 472 972 q 431 908 433 936 q 408 954 428 936 q 361 972 389 972 q 312 952 332 972 q 292 903 292 932 q 272 952 292 932 q 222 972 251 972 q 173 952 193 972 q 153 903 153 932 q 171 856 153 875 q 217 833 189 836 q 173 813 190 831 q 153 769 156 794 q 131 815 150 797 q 83 833 111 833 q 34 813 54 833 q 14 764 14 793 q 34 715 14 735 q 83 694 54 694 q 131 713 111 694 q 153 758 150 731 q 175 713 156 731 q 222 694 194 694 q 272 715 251 694 q 292 764 292 735 q 274 811 292 792 q 228 833 256 831 q 271 853 253 836 q 292 897 289 871 q 314 851 294 869 q 361 833 333 833 q 408 851 389 833 q 431 897 428 869 q 453 851 433 869 q 500 833 472 833 q 547 851 528 833 q 569 897 567 869 q 590 853 572 871 q 633 833 607 836 q 588 811 606 831 q 569 764 569 792 q 588 717 569 736 q 633 694 606 697 q 588 672 606 692 q 569 625 569 653 q 588 578 569 597 q 633 556 606 558 q 590 535 607 553 q 569 492 572 517 q 547 538 567 519 q 500 556 528 556 q 451 535 471 556 q 431 486 431 515 q 449 439 431 458 q 494 417 467 419 q 451 396 468 414 q 431 353 433 378 q 408 399 428 381 q 361 417 389 417 q 312 397 332 417 q 292 347 292 376 q 312 298 292 318 q 361 278 332 278 q 408 296 389 278 q 431 342 428 314 q 453 296 433 314 q 500 278 472 278 q 549 298 529 278 q 569 347 569 318 q 551 394 569 375 q 506 417 533 414 q 549 437 531 419 q 569 481 567 454 q 592 435 572 453 q 639 417 611 417 q 688 437 668 417 q 708 486 708 457 z "},"@":{"ha":1204,"x_min":0,"x_max":1065,"o":"m 460 274 q 417 347 417 296 q 426 387 417 368 q 451 417 436 406 q 426 447 436 428 q 417 486 417 465 q 426 526 417 507 q 451 556 436 544 q 426 585 436 567 q 417 625 417 604 q 440 685 417 661 q 500 708 464 708 q 540 698 522 708 q 569 669 558 688 q 639 708 592 708 q 680 698 663 708 q 708 672 697 688 q 731 693 715 685 q 694 754 697 713 q 671 763 682 757 q 653 778 660 768 l 638 792 q 609 765 626 775 q 569 754 592 754 q 539 760 553 754 q 514 778 525 767 l 499 792 q 470 765 488 775 q 431 754 453 754 q 374 775 394 754 l 357 792 q 346 778 351 785 q 333 767 340 771 l 347 753 q 347 754 347 754 q 346 756 346 754 l 350 751 q 371 694 371 731 q 332 625 371 647 l 339 618 q 338 619 339 619 q 338 621 338 619 l 347 611 q 365 586 358 600 q 371 556 371 572 q 332 486 371 508 l 347 472 q 365 447 358 461 q 371 417 371 433 q 332 347 371 369 l 347 333 q 371 278 371 310 q 332 208 371 231 l 339 201 q 338 203 339 203 q 338 204 338 203 l 347 194 q 368 153 364 175 q 403 140 388 150 q 431 114 419 129 q 500 153 453 153 q 540 143 521 153 q 569 118 558 133 q 599 143 581 133 q 639 153 618 153 q 685 140 665 153 q 715 104 706 126 l 764 56 q 788 0 788 32 q 765 -56 788 -33 q 708 -79 742 -79 q 653 -56 676 -79 l 638 -40 q 609 -68 626 -57 q 569 -79 592 -79 q 514 -56 538 -79 l 499 -40 q 470 -68 488 -57 q 431 -79 453 -79 q 375 -56 399 -79 l 360 -40 q 331 -68 349 -57 q 292 -79 314 -79 q 235 -57 257 -79 l 182 -4 q 153 22 164 6 q 139 60 142 39 q 96 82 111 63 l 43 135 q 0 208 0 157 q 10 248 0 229 q 35 278 19 267 q 10 308 19 289 q 0 347 0 326 q 10 387 0 368 q 35 417 19 406 q 10 447 19 428 q 0 486 0 465 q 10 526 0 507 q 35 556 19 544 q 10 585 19 567 q 0 625 0 604 q 10 665 0 646 q 35 694 19 683 q 10 724 19 706 q 0 764 0 743 q 24 824 0 800 q 83 847 47 847 q 124 837 107 847 q 153 811 142 826 q 175 832 160 824 q 139 903 139 851 q 163 963 139 939 q 222 986 186 986 q 262 976 243 986 q 292 951 281 967 q 322 976 303 967 q 361 986 340 986 q 401 976 382 986 q 431 951 419 967 q 460 976 442 967 q 500 986 479 986 q 540 976 521 986 q 569 951 558 967 q 599 976 581 967 q 639 986 618 986 q 678 976 660 986 q 708 951 697 967 q 738 976 719 967 q 778 986 757 986 q 824 973 804 986 q 854 938 844 960 l 903 889 q 924 847 919 869 q 965 831 947 844 q 993 799 983 818 l 1042 750 q 1065 694 1065 726 q 1026 625 1065 647 l 1033 618 q 1033 619 1033 619 q 1032 621 1032 619 l 1042 611 q 1065 556 1065 588 q 1026 486 1065 508 l 1036 478 q 1035 478 1035 478 q 1033 479 1035 479 l 1042 472 q 1065 417 1065 449 q 1026 347 1065 369 l 1038 336 q 1036 339 1036 338 l 1042 333 q 1065 278 1065 310 q 1042 222 1065 244 q 986 199 1019 199 q 931 222 954 199 l 915 236 q 887 209 904 219 q 847 199 869 199 q 792 222 815 199 l 776 236 q 748 209 765 219 q 708 199 731 199 q 653 222 676 199 l 638 236 q 609 209 626 219 q 569 199 592 199 q 513 221 535 199 l 460 274 m 847 758 q 867 715 850 732 q 911 694 885 697 q 867 674 885 692 q 847 631 850 656 q 826 674 844 656 q 783 694 808 692 q 826 715 808 697 q 847 758 844 732 m 217 556 q 173 535 190 553 q 153 492 156 517 q 132 535 150 517 q 89 556 114 553 q 132 576 114 558 q 153 619 150 593 q 173 576 156 593 q 217 556 190 558 m 772 556 q 728 535 746 553 q 708 492 711 517 q 688 535 706 517 q 644 556 669 553 q 688 576 669 558 q 708 619 706 593 q 728 576 711 593 q 772 556 746 558 m 847 486 q 829 533 847 514 q 783 556 811 553 q 826 576 808 558 q 847 619 844 593 q 867 576 850 593 q 911 556 885 558 q 865 533 883 553 q 847 486 847 514 m 217 694 q 173 674 190 692 q 153 631 156 656 q 132 674 150 656 q 89 694 114 692 q 132 715 114 697 q 153 758 150 732 q 173 715 156 732 q 217 694 190 697 m 633 556 q 590 535 607 553 q 569 492 572 517 q 549 535 567 517 q 506 556 531 553 q 549 576 531 558 q 569 619 567 593 q 590 576 572 593 q 633 556 607 558 m 772 417 q 728 396 746 414 q 708 353 711 378 q 688 396 706 378 q 644 417 669 414 q 688 437 669 419 q 708 481 706 454 q 728 437 711 454 q 772 417 746 419 m 847 481 q 867 437 850 454 q 911 417 885 419 q 867 396 885 414 q 847 353 850 378 q 826 396 844 378 q 783 417 808 414 q 826 437 808 419 q 847 481 844 454 m 217 417 q 173 396 190 414 q 153 353 156 378 q 132 396 150 378 q 89 417 114 414 q 132 437 114 419 q 153 481 150 454 q 173 437 156 454 q 217 417 190 419 m 633 417 q 590 396 607 414 q 569 353 572 378 q 549 396 567 378 q 506 417 531 414 q 549 437 531 419 q 569 481 567 454 q 590 437 572 454 q 633 417 607 419 m 217 278 q 173 257 190 275 q 153 214 156 239 q 132 257 150 239 q 89 278 114 275 q 132 298 114 281 q 153 342 150 315 q 173 298 156 315 q 217 278 190 281 m 708 764 q 726 717 708 736 q 772 694 744 697 q 728 674 746 692 q 708 631 711 656 q 686 676 706 658 q 639 694 667 694 q 590 674 610 694 q 569 625 569 654 q 549 674 569 654 q 500 694 529 694 q 451 674 471 694 q 431 625 431 654 q 449 578 431 597 q 494 556 467 558 q 449 533 467 553 q 431 486 431 514 q 449 439 431 458 q 494 417 467 419 q 449 394 467 414 q 431 347 431 375 q 451 298 431 318 q 500 278 471 278 q 547 296 528 278 q 569 342 567 314 q 592 296 572 314 q 639 278 611 278 q 686 296 667 278 q 708 342 706 314 q 731 296 711 314 q 778 278 750 278 q 825 296 806 278 q 847 342 844 314 q 869 296 850 314 q 917 278 889 278 q 966 298 946 278 q 986 347 986 318 q 968 394 986 375 q 922 417 950 414 q 968 439 950 419 q 986 486 986 458 q 968 533 986 514 q 922 556 950 553 q 968 578 950 558 q 986 625 986 597 q 968 672 986 653 q 922 694 950 692 q 968 717 950 697 q 986 764 986 736 q 966 813 986 793 q 917 833 946 833 q 867 813 888 833 q 847 764 847 793 q 829 811 847 792 q 783 833 811 831 q 829 856 811 836 q 847 903 847 875 q 827 952 847 932 q 778 972 807 972 q 731 954 750 972 q 708 908 711 936 q 686 954 706 936 q 639 972 667 972 q 592 954 611 972 q 569 908 572 936 q 547 954 567 936 q 500 972 528 972 q 453 954 472 972 q 431 908 433 936 q 408 954 428 936 q 361 972 389 972 q 314 954 333 972 q 292 908 294 936 q 269 954 289 936 q 222 972 250 972 q 173 952 193 972 q 153 903 153 932 q 171 856 153 875 q 217 833 189 836 q 173 813 190 831 q 153 769 156 794 q 131 815 150 797 q 83 833 111 833 q 34 813 54 833 q 14 764 14 793 q 32 717 14 736 q 78 694 50 697 q 32 672 50 692 q 14 625 14 653 q 32 578 14 597 q 78 556 50 558 q 32 533 50 553 q 14 486 14 514 q 32 439 14 458 q 78 417 50 419 q 32 394 50 414 q 14 347 14 375 q 32 300 14 319 q 78 278 50 281 q 32 256 50 275 q 14 208 14 236 q 34 159 14 179 q 83 139 54 139 q 131 157 111 139 q 153 203 150 175 q 173 159 156 176 q 217 139 190 142 q 171 117 189 136 q 153 69 153 97 q 173 20 153 40 q 222 0 193 0 q 269 18 250 0 q 292 64 289 36 q 314 18 294 36 q 361 0 333 0 q 408 18 389 0 q 431 64 428 36 q 453 18 433 36 q 500 0 472 0 q 547 18 528 0 q 569 64 567 36 q 592 18 572 36 q 639 0 611 0 q 688 20 668 0 q 708 69 708 40 q 688 119 708 99 q 639 139 668 139 q 592 121 611 139 q 569 75 572 103 q 547 121 567 103 q 500 139 528 139 q 451 119 471 139 q 431 69 431 99 q 410 119 431 99 q 361 139 390 139 q 314 121 333 139 q 292 75 294 103 q 271 118 289 100 q 228 139 253 136 q 274 161 256 142 q 292 208 292 181 q 274 256 292 236 q 228 278 256 275 q 274 300 256 281 q 292 347 292 319 q 274 394 292 375 q 228 417 256 414 q 274 439 256 419 q 292 486 292 458 q 274 533 292 514 q 228 556 256 553 q 274 578 256 558 q 292 625 292 597 q 274 672 292 653 q 228 694 256 692 q 274 717 256 697 q 292 764 292 736 q 274 811 292 792 q 228 833 256 831 q 271 853 253 836 q 292 897 289 871 q 314 851 294 869 q 361 833 333 833 q 408 851 389 833 q 431 897 428 869 q 453 851 433 869 q 500 833 472 833 q 547 851 528 833 q 569 897 567 869 q 592 851 572 869 q 639 833 611 833 q 686 851 667 833 q 708 897 706 869 q 728 853 711 871 q 772 833 746 836 q 726 811 744 831 q 708 764 708 792 z "},"A":{"ha":1065,"x_min":0,"x_max":926,"o":"m 347 472 q 368 431 364 453 q 403 418 388 428 q 431 396 419 408 q 460 421 442 411 q 500 431 479 431 q 541 420 524 431 q 569 394 558 410 q 592 415 576 407 q 556 486 556 435 q 565 526 556 507 q 590 556 575 544 q 567 582 576 567 q 556 615 558 597 q 532 624 543 618 q 514 639 521 629 l 499 653 q 470 626 488 636 q 431 615 453 615 q 374 636 394 615 l 357 653 q 346 639 351 646 q 333 628 340 632 l 350 613 q 371 556 371 592 q 332 486 371 508 l 347 472 m 278 903 q 301 963 278 939 q 361 986 325 986 q 401 976 382 986 q 431 951 419 967 q 460 976 442 967 q 500 986 479 986 q 547 972 526 986 q 576 936 567 958 l 622 890 q 622 892 622 892 q 621 893 621 892 l 625 889 q 646 847 642 869 q 688 831 669 844 q 715 799 706 818 l 764 750 q 785 708 781 731 q 826 692 808 706 q 854 660 844 679 l 903 611 q 926 556 926 588 q 888 486 926 508 l 897 478 q 896 478 896 478 q 894 479 896 479 l 903 472 q 926 417 926 449 q 888 347 926 369 l 903 333 q 926 278 926 310 q 888 208 926 231 l 894 201 q 894 203 894 203 q 893 204 893 203 l 903 194 q 926 139 926 171 q 888 69 926 92 l 903 56 q 926 0 926 32 q 903 -56 926 -33 q 847 -79 881 -79 q 792 -56 815 -79 l 776 -40 q 748 -68 765 -57 q 708 -79 731 -79 q 651 -57 674 -79 l 599 -4 q 556 69 556 18 q 565 109 556 90 q 590 139 575 128 q 567 165 576 150 q 556 199 558 181 q 532 207 543 201 q 514 222 521 213 l 499 236 q 470 209 488 219 q 431 199 453 199 q 374 219 394 199 l 357 236 q 346 222 351 229 q 333 211 340 215 l 347 197 q 347 199 347 199 q 346 200 346 199 l 350 196 q 371 139 371 175 q 332 69 371 92 l 347 56 q 371 0 371 32 q 348 -56 371 -33 q 292 -79 325 -79 q 236 -56 260 -79 l 221 -40 q 192 -68 210 -57 q 153 -79 175 -79 q 96 -57 118 -79 l 43 -4 q 0 69 0 18 q 10 109 0 90 q 35 139 19 128 q 10 169 19 150 q 0 208 0 188 q 10 248 0 229 q 35 278 19 267 q 10 308 19 289 q 0 347 0 326 q 10 387 0 368 q 35 417 19 406 q 10 447 19 428 q 0 486 0 465 q 10 526 0 507 q 35 556 19 544 q 10 585 19 567 q 0 625 0 604 q 24 685 0 661 q 83 708 47 708 q 124 698 107 708 q 153 672 142 688 q 175 693 160 685 q 139 764 139 713 q 163 824 139 800 q 222 847 186 847 q 263 837 244 847 q 292 808 281 826 q 313 833 300 822 q 288 863 297 844 q 278 903 278 882 m 494 833 q 451 813 468 831 q 431 769 433 794 q 410 813 428 794 q 367 833 392 831 q 410 853 392 836 q 431 897 428 871 q 451 853 433 871 q 494 833 468 836 m 217 139 q 173 118 190 136 q 153 75 156 100 q 132 118 150 100 q 89 139 114 136 q 132 159 114 142 q 153 203 150 176 q 173 159 156 176 q 217 139 190 142 m 708 486 q 690 533 708 514 q 644 556 672 553 q 688 576 669 558 q 708 619 706 593 q 728 576 711 593 q 772 556 746 558 q 726 533 744 553 q 708 486 708 514 m 153 486 q 135 533 153 514 q 89 556 117 553 q 132 576 114 558 q 153 619 150 593 q 173 576 156 593 q 217 556 190 558 q 171 533 189 553 q 153 486 153 514 m 708 347 q 690 394 708 375 q 644 417 672 414 q 688 437 669 419 q 708 481 706 454 q 728 437 711 454 q 772 417 746 419 q 726 394 744 414 q 708 347 708 375 m 217 417 q 173 396 190 414 q 153 353 156 378 q 132 396 150 378 q 89 417 114 414 q 132 437 114 419 q 153 481 150 454 q 173 437 156 454 q 217 417 190 419 m 772 278 q 728 257 746 275 q 708 214 711 239 q 688 257 706 239 q 644 278 669 275 q 688 298 669 281 q 708 342 706 315 q 728 298 711 315 q 772 278 746 281 m 217 278 q 173 257 190 275 q 153 214 156 239 q 132 257 150 239 q 89 278 114 275 q 132 298 114 281 q 153 342 150 315 q 173 298 156 315 q 217 278 190 281 m 708 69 q 690 117 708 97 q 644 139 672 136 q 688 159 669 142 q 708 203 706 176 q 728 159 711 176 q 772 139 746 142 q 726 117 744 136 q 708 69 708 97 m 569 625 q 588 578 569 597 q 633 556 606 558 q 588 533 606 553 q 569 486 569 514 q 588 439 569 458 q 633 417 606 419 q 590 396 607 414 q 569 353 572 378 q 547 399 567 381 q 500 417 528 417 q 453 399 472 417 q 431 353 433 381 q 408 399 428 381 q 361 417 389 417 q 312 397 332 417 q 292 347 292 376 q 274 394 292 375 q 228 417 256 414 q 274 439 256 419 q 292 486 292 458 q 274 533 292 514 q 228 556 256 553 q 274 578 256 558 q 292 625 292 597 q 274 672 292 653 q 228 694 256 692 q 271 715 253 697 q 292 758 289 732 q 314 713 294 731 q 361 694 333 694 q 408 713 389 694 q 431 758 428 731 q 453 713 433 731 q 500 694 472 694 q 547 713 528 694 q 569 758 567 731 q 590 715 572 732 q 633 694 607 697 q 588 672 606 692 q 569 625 569 653 m 292 903 q 310 856 292 875 q 356 833 328 836 q 310 811 328 831 q 292 764 292 792 q 272 813 292 793 q 222 833 251 833 q 173 813 193 833 q 153 764 153 793 q 171 717 153 736 q 217 694 189 697 q 173 674 190 692 q 153 631 156 656 q 131 676 150 658 q 83 694 111 694 q 34 674 54 694 q 14 625 14 654 q 32 578 14 597 q 78 556 50 558 q 32 533 50 553 q 14 486 14 514 q 32 439 14 458 q 78 417 50 419 q 32 394 50 414 q 14 347 14 375 q 32 300 14 319 q 78 278 50 281 q 32 256 50 275 q 14 208 14 236 q 32 161 14 181 q 78 139 50 142 q 32 117 50 136 q 14 69 14 97 q 34 20 14 40 q 83 0 54 0 q 131 18 111 0 q 153 64 150 36 q 175 18 156 36 q 222 0 194 0 q 272 20 251 0 q 292 69 292 40 q 274 117 292 97 q 228 139 256 136 q 274 161 256 142 q 292 208 292 181 q 274 256 292 236 q 228 278 256 275 q 271 298 253 281 q 292 342 289 315 q 314 296 294 314 q 361 278 333 278 q 408 296 389 278 q 431 342 428 314 q 453 296 433 314 q 500 278 472 278 q 547 296 528 278 q 569 342 567 314 q 590 298 572 315 q 633 278 607 281 q 588 256 606 275 q 569 208 569 236 q 588 161 569 181 q 633 139 606 142 q 588 117 606 136 q 569 69 569 97 q 590 20 569 40 q 639 0 610 0 q 686 18 667 0 q 708 64 706 36 q 731 18 711 36 q 778 0 750 0 q 827 20 807 0 q 847 69 847 40 q 829 117 847 97 q 783 139 811 136 q 829 161 811 142 q 847 208 847 181 q 829 256 847 236 q 783 278 811 275 q 829 300 811 281 q 847 347 847 319 q 829 394 847 375 q 783 417 811 414 q 829 439 811 419 q 847 486 847 458 q 829 533 847 514 q 783 556 811 553 q 829 578 811 558 q 847 625 847 597 q 827 674 847 654 q 778 694 807 694 q 731 676 750 694 q 708 631 711 658 q 688 674 706 656 q 644 694 669 692 q 690 717 672 697 q 708 764 708 736 q 688 813 708 793 q 639 833 668 833 q 592 815 611 833 q 569 769 572 797 q 549 813 567 794 q 506 833 531 831 q 551 856 533 836 q 569 903 569 875 q 549 952 569 932 q 500 972 529 972 q 453 954 472 972 q 431 908 433 936 q 408 954 428 936 q 361 972 389 972 q 312 952 332 972 q 292 903 292 932 z "},"B":{"ha":1065,"x_min":0,"x_max":926,"o":"m 347 194 q 368 153 364 175 q 403 140 388 150 q 431 118 419 131 q 460 143 442 133 q 500 153 479 153 q 541 142 524 153 q 569 117 558 132 q 592 138 576 129 q 556 208 556 157 q 565 248 556 229 q 590 278 575 267 q 567 304 576 289 q 556 338 558 319 q 532 346 543 340 q 514 361 521 351 l 499 375 q 470 348 488 358 q 431 338 453 338 q 374 358 394 338 l 357 375 q 346 361 351 368 q 333 350 340 354 l 350 335 q 371 278 371 314 q 332 208 371 231 l 343 197 q 342 200 342 199 l 347 194 m 347 611 q 368 569 364 592 q 403 557 388 567 q 431 535 419 547 q 460 560 442 550 q 500 569 479 569 q 540 559 522 569 q 569 531 558 549 q 590 556 578 544 q 565 585 575 567 q 556 625 556 604 q 565 665 556 646 q 590 694 575 683 q 567 721 576 706 q 556 754 558 736 q 532 763 543 757 q 514 778 521 768 l 499 792 q 470 765 488 775 q 431 754 453 754 q 374 775 394 754 l 357 792 q 346 778 351 785 q 333 767 340 771 l 350 751 q 371 694 371 731 q 332 625 371 647 l 339 618 q 338 619 339 619 q 338 621 338 619 l 347 611 m 0 903 q 24 963 0 939 q 83 986 47 986 q 124 976 106 986 q 153 947 142 965 q 222 986 175 986 q 262 976 243 986 q 292 951 281 967 q 322 976 303 967 q 361 986 340 986 q 401 976 382 986 q 431 951 419 967 q 460 976 442 967 q 500 986 479 986 q 540 976 521 986 q 569 951 558 967 q 599 976 581 967 q 639 986 618 986 q 685 973 665 986 q 715 938 706 960 l 764 889 q 785 847 781 869 q 826 831 808 844 q 854 799 844 818 l 903 750 q 926 694 926 726 q 888 625 926 647 l 894 618 q 894 619 894 619 q 893 621 893 619 l 903 611 q 926 556 926 588 q 903 499 926 522 q 847 476 881 476 q 790 497 811 476 l 774 514 q 763 500 768 507 q 750 489 757 493 l 767 474 q 779 454 774 465 q 786 431 785 443 q 827 415 810 428 q 854 382 844 401 l 903 333 q 926 278 926 310 q 888 208 926 231 l 903 194 q 926 139 926 171 q 903 83 926 106 q 847 60 881 60 q 790 81 811 60 l 774 97 q 763 83 768 90 q 750 72 757 76 l 764 58 q 763 60 764 60 q 763 61 763 60 l 767 57 q 788 0 788 36 q 765 -56 788 -33 q 708 -79 742 -79 q 653 -56 676 -79 l 638 -40 q 609 -68 626 -57 q 569 -79 592 -79 q 514 -56 538 -79 l 499 -40 q 470 -68 488 -57 q 431 -79 453 -79 q 375 -56 399 -79 l 360 -40 q 331 -68 349 -57 q 292 -79 314 -79 q 236 -56 260 -79 l 221 -40 q 192 -68 210 -57 q 153 -79 175 -79 q 96 -57 118 -79 l 43 -4 q 0 69 0 18 q 10 109 0 90 q 35 139 19 128 q 10 169 19 150 q 0 208 0 188 q 10 248 0 229 q 35 278 19 267 q 10 308 19 289 q 0 347 0 326 q 10 387 0 368 q 35 417 19 406 q 10 447 19 428 q 0 486 0 465 q 10 526 0 507 q 35 556 19 544 q 10 585 19 567 q 0 625 0 604 q 10 665 0 646 q 35 694 19 683 q 10 724 19 706 q 0 764 0 743 q 10 803 0 785 q 35 833 19 822 q 10 863 19 844 q 0 903 0 882 m 217 556 q 173 535 190 553 q 153 492 156 517 q 132 535 150 517 q 89 556 114 553 q 132 576 114 558 q 153 619 150 593 q 173 576 156 593 q 217 556 190 558 m 217 278 q 173 257 190 275 q 153 214 156 239 q 132 257 150 239 q 89 278 114 275 q 132 298 114 281 q 153 342 150 315 q 173 298 156 315 q 217 278 190 281 m 772 694 q 728 674 746 692 q 708 631 711 656 q 688 674 706 656 q 644 694 669 692 q 688 715 669 697 q 708 758 706 732 q 728 715 711 732 q 772 694 746 697 m 217 694 q 173 674 190 692 q 153 631 156 656 q 132 674 150 656 q 89 694 114 692 q 132 715 114 697 q 153 758 150 732 q 173 715 156 732 q 217 694 190 697 m 217 139 q 173 118 190 136 q 153 75 156 100 q 132 118 150 100 q 89 139 114 136 q 132 159 114 142 q 153 203 150 176 q 173 159 156 176 q 217 139 190 142 m 217 833 q 173 813 190 831 q 153 769 156 794 q 132 813 150 794 q 89 833 114 831 q 132 853 114 836 q 153 897 150 871 q 173 853 156 871 q 217 833 190 836 m 217 417 q 173 396 190 414 q 153 353 156 378 q 132 396 150 378 q 89 417 114 414 q 132 437 114 419 q 153 481 150 454 q 173 437 156 454 q 217 417 190 419 m 772 278 q 728 257 746 275 q 708 214 711 239 q 688 257 706 239 q 644 278 669 275 q 688 298 669 281 q 708 342 706 315 q 728 298 711 315 q 772 278 746 281 m 569 347 q 588 300 569 319 q 633 278 606 281 q 588 256 606 275 q 569 208 569 236 q 588 161 569 181 q 633 139 606 142 q 590 118 607 136 q 569 75 572 100 q 547 121 567 103 q 500 139 528 139 q 453 121 472 139 q 431 75 433 103 q 408 121 428 103 q 361 139 389 139 q 314 121 333 139 q 292 75 294 103 q 271 118 289 100 q 228 139 253 136 q 274 161 256 142 q 292 208 292 181 q 274 256 292 236 q 228 278 256 275 q 274 300 256 281 q 292 347 292 319 q 274 394 292 375 q 228 417 256 414 q 271 437 253 419 q 292 481 289 454 q 314 435 294 453 q 361 417 333 417 q 408 435 389 417 q 431 481 428 453 q 453 435 433 453 q 500 417 472 417 q 547 435 528 417 q 569 481 567 453 q 590 437 572 454 q 633 417 607 419 q 588 394 606 414 q 569 347 569 375 m 569 764 q 588 717 569 736 q 633 694 606 697 q 588 672 606 692 q 569 625 569 653 q 588 578 569 597 q 633 556 606 558 q 588 533 606 553 q 569 486 569 514 q 549 535 569 515 q 500 556 529 556 q 453 538 472 556 q 431 492 433 519 q 408 538 428 519 q 361 556 389 556 q 314 538 333 556 q 292 492 294 519 q 271 535 289 517 q 228 556 253 553 q 274 578 256 558 q 292 625 292 597 q 274 672 292 653 q 228 694 256 692 q 274 717 256 697 q 292 764 292 736 q 274 811 292 792 q 228 833 256 831 q 271 853 253 836 q 292 897 289 871 q 314 851 294 869 q 361 833 333 833 q 408 851 389 833 q 431 897 428 869 q 453 851 433 869 q 500 833 472 833 q 547 851 528 833 q 569 897 567 869 q 590 853 572 871 q 633 833 607 836 q 588 811 606 831 q 569 764 569 792 m 14 903 q 32 856 14 875 q 78 833 50 836 q 32 811 50 831 q 14 764 14 792 q 32 717 14 736 q 78 694 50 697 q 32 672 50 692 q 14 625 14 653 q 32 578 14 597 q 78 556 50 558 q 32 533 50 553 q 14 486 14 514 q 32 439 14 458 q 78 417 50 419 q 32 394 50 414 q 14 347 14 375 q 32 300 14 319 q 78 278 50 281 q 32 256 50 275 q 14 208 14 236 q 32 161 14 181 q 78 139 50 142 q 32 117 50 136 q 14 69 14 97 q 34 20 14 40 q 83 0 54 0 q 131 18 111 0 q 153 64 150 36 q 175 18 156 36 q 222 0 194 0 q 269 18 250 0 q 292 64 289 36 q 314 18 294 36 q 361 0 333 0 q 408 18 389 0 q 431 64 428 36 q 453 18 433 36 q 500 0 472 0 q 547 18 528 0 q 569 64 567 36 q 592 18 572 36 q 639 0 611 0 q 688 20 668 0 q 708 69 708 40 q 690 117 708 97 q 644 139 672 136 q 688 159 669 142 q 708 203 706 176 q 731 157 711 175 q 778 139 750 139 q 827 159 807 139 q 847 208 847 179 q 829 256 847 236 q 783 278 811 275 q 829 300 811 281 q 847 347 847 319 q 827 397 847 376 q 778 417 807 417 q 731 399 750 417 q 708 353 711 381 q 688 396 706 378 q 644 417 669 414 q 690 439 672 419 q 708 486 708 458 q 690 533 708 514 q 644 556 672 553 q 688 576 669 558 q 708 619 706 593 q 731 574 711 592 q 778 556 750 556 q 827 576 807 556 q 847 625 847 596 q 829 672 847 653 q 783 694 811 692 q 829 717 811 697 q 847 764 847 736 q 827 813 847 793 q 778 833 807 833 q 731 815 750 833 q 708 769 711 797 q 688 813 706 794 q 644 833 669 831 q 690 856 672 836 q 708 903 708 875 q 688 952 708 932 q 639 972 668 972 q 592 954 611 972 q 569 908 572 936 q 547 954 567 936 q 500 972 528 972 q 453 954 472 972 q 431 908 433 936 q 408 954 428 936 q 361 972 389 972 q 314 954 333 972 q 292 908 294 936 q 269 954 289 936 q 222 972 250 972 q 173 952 193 972 q 153 903 153 932 q 133 952 153 932 q 83 972 113 972 q 34 952 54 972 q 14 903 14 932 z "},"C":{"ha":1065,"x_min":0,"x_max":926,"o":"m 139 903 q 163 963 139 939 q 222 986 186 986 q 262 976 243 986 q 292 951 281 967 q 322 976 303 967 q 361 986 340 986 q 401 976 382 986 q 431 951 419 967 q 460 976 442 967 q 500 986 479 986 q 540 976 521 986 q 569 951 558 967 q 599 976 581 967 q 639 986 618 986 q 679 976 661 986 q 708 947 697 965 q 778 986 731 986 q 824 973 804 986 q 854 938 844 960 l 903 889 q 926 833 926 865 q 903 777 926 800 q 847 754 881 754 q 792 778 815 754 l 776 792 q 748 765 765 775 q 708 754 731 754 q 653 778 676 754 l 638 792 q 609 765 626 775 q 569 754 592 754 q 539 760 553 754 q 514 778 525 767 l 499 792 q 470 765 488 775 q 431 754 453 754 q 374 775 394 754 l 357 792 q 346 778 351 785 q 333 767 340 771 l 350 751 q 371 694 371 731 q 332 625 371 647 l 347 611 q 365 586 358 600 q 371 556 371 572 q 332 486 371 508 l 347 472 q 365 447 358 461 q 371 417 371 433 q 332 347 371 369 l 347 333 q 371 278 371 310 q 332 208 371 231 l 339 201 q 338 203 339 203 q 338 204 338 203 l 347 194 q 368 153 364 175 q 403 140 388 150 q 431 114 419 129 q 500 153 453 153 q 540 143 521 153 q 569 118 558 133 q 599 143 581 133 q 639 153 618 153 q 679 142 661 153 q 708 114 697 132 q 778 153 731 153 q 824 140 804 153 q 854 104 844 126 l 903 56 q 926 0 926 32 q 903 -56 926 -33 q 847 -79 881 -79 q 792 -56 815 -79 l 776 -40 q 748 -68 765 -57 q 708 -79 731 -79 q 653 -56 676 -79 l 638 -40 q 609 -68 626 -57 q 569 -79 592 -79 q 514 -56 538 -79 l 499 -40 q 470 -68 488 -57 q 431 -79 453 -79 q 375 -56 399 -79 l 360 -40 q 331 -68 349 -57 q 292 -79 314 -79 q 235 -57 257 -79 l 182 -4 q 153 22 164 6 q 139 60 142 39 q 96 82 111 63 l 43 135 q 0 208 0 157 q 10 248 0 229 q 35 278 19 267 q 10 308 19 289 q 0 347 0 326 q 10 387 0 368 q 35 417 19 406 q 10 447 19 428 q 0 486 0 465 q 10 526 0 507 q 35 556 19 544 q 10 585 19 567 q 0 625 0 604 q 10 665 0 646 q 35 694 19 683 q 10 724 19 706 q 0 764 0 743 q 24 824 0 800 q 83 847 47 847 q 124 837 107 847 q 153 811 142 826 q 175 832 160 824 q 139 903 139 851 m 153 625 q 135 672 153 653 q 89 694 117 692 q 132 715 114 697 q 153 758 150 732 q 173 715 156 732 q 217 694 190 697 q 171 672 189 692 q 153 625 153 653 m 217 556 q 173 535 190 553 q 153 492 156 517 q 132 535 150 517 q 89 556 114 553 q 132 576 114 558 q 153 619 150 593 q 173 576 156 593 q 217 556 190 558 m 217 417 q 173 396 190 414 q 153 353 156 378 q 132 396 150 378 q 89 417 114 414 q 132 437 114 419 q 153 481 150 454 q 173 437 156 454 q 217 417 190 419 m 153 208 q 135 256 153 236 q 89 278 117 275 q 132 298 114 281 q 153 342 150 315 q 173 298 156 315 q 217 278 190 281 q 171 256 189 275 q 153 208 153 236 m 153 903 q 171 856 153 875 q 217 833 189 836 q 173 813 190 831 q 153 769 156 794 q 131 815 150 797 q 83 833 111 833 q 34 813 54 833 q 14 764 14 793 q 32 717 14 736 q 78 694 50 697 q 32 672 50 692 q 14 625 14 653 q 32 578 14 597 q 78 556 50 558 q 32 533 50 553 q 14 486 14 514 q 32 439 14 458 q 78 417 50 419 q 32 394 50 414 q 14 347 14 375 q 32 300 14 319 q 78 278 50 281 q 32 256 50 275 q 14 208 14 236 q 34 159 14 179 q 83 139 54 139 q 131 157 111 139 q 153 203 150 175 q 173 159 156 176 q 217 139 190 142 q 171 117 189 136 q 153 69 153 97 q 173 20 153 40 q 222 0 193 0 q 269 18 250 0 q 292 64 289 36 q 314 18 294 36 q 361 0 333 0 q 408 18 389 0 q 431 64 428 36 q 453 18 433 36 q 500 0 472 0 q 547 18 528 0 q 569 64 567 36 q 592 18 572 36 q 639 0 611 0 q 686 18 667 0 q 708 64 706 36 q 731 18 711 36 q 778 0 750 0 q 827 20 807 0 q 847 69 847 40 q 827 119 847 99 q 778 139 807 139 q 728 119 749 139 q 708 69 708 99 q 688 119 708 99 q 639 139 668 139 q 592 121 611 139 q 569 75 572 103 q 547 121 567 103 q 500 139 528 139 q 451 119 471 139 q 431 69 431 99 q 410 119 431 99 q 361 139 390 139 q 314 121 333 139 q 292 75 294 103 q 271 118 289 100 q 228 139 253 136 q 274 161 256 142 q 292 208 292 181 q 274 256 292 236 q 228 278 256 275 q 274 300 256 281 q 292 347 292 319 q 274 394 292 375 q 228 417 256 414 q 274 439 256 419 q 292 486 292 458 q 274 533 292 514 q 228 556 256 553 q 274 578 256 558 q 292 625 292 597 q 274 672 292 653 q 228 694 256 692 q 274 717 256 697 q 292 764 292 736 q 274 811 292 792 q 228 833 256 831 q 271 853 253 836 q 292 897 289 871 q 314 851 294 869 q 361 833 333 833 q 408 851 389 833 q 431 897 428 869 q 453 851 433 869 q 500 833 472 833 q 547 851 528 833 q 569 897 567 869 q 592 851 572 869 q 639 833 611 833 q 686 851 667 833 q 708 897 706 869 q 731 851 711 869 q 778 833 750 833 q 827 853 807 833 q 847 903 847 874 q 827 952 847 932 q 778 972 807 972 q 728 952 749 972 q 708 903 708 932 q 688 952 708 932 q 639 972 668 972 q 592 954 611 972 q 569 908 572 936 q 547 954 567 936 q 500 972 528 972 q 453 954 472 972 q 431 908 433 936 q 408 954 428 936 q 361 972 389 972 q 314 954 333 972 q 292 908 294 936 q 269 954 289 936 q 222 972 250 972 q 173 952 193 972 q 153 903 153 932 z "},"D":{"ha":1065,"x_min":0,"x_max":926,"o":"m 347 194 q 368 153 364 175 q 403 140 388 150 q 431 114 419 129 q 500 153 453 153 q 540 142 522 153 q 569 114 558 132 q 590 139 578 128 q 565 169 575 150 q 556 208 556 188 q 565 248 556 229 q 590 278 575 267 q 565 308 575 289 q 556 347 556 326 q 565 387 556 368 q 590 417 575 406 q 565 447 575 428 q 556 486 556 465 q 565 526 556 507 q 590 556 575 544 q 565 585 575 567 q 556 625 556 604 q 565 665 556 646 q 590 694 575 683 q 567 721 576 706 q 556 754 558 736 q 532 763 543 757 q 514 778 521 768 l 499 792 q 470 765 488 775 q 431 754 453 754 q 374 775 394 754 l 357 792 q 346 778 351 785 q 333 767 340 771 l 350 751 q 371 694 371 731 q 332 625 371 647 l 339 618 q 338 619 339 619 q 338 621 338 619 l 347 611 q 365 586 358 600 q 371 556 371 572 q 332 486 371 508 l 339 479 q 338 481 339 481 q 338 482 338 481 l 347 472 q 365 447 358 461 q 371 417 371 433 q 332 347 371 369 l 347 333 q 371 278 371 310 q 332 208 371 231 l 347 194 m 0 903 q 24 963 0 939 q 83 986 47 986 q 123 976 104 986 q 153 951 142 967 q 183 976 164 967 q 222 986 201 986 q 263 976 244 986 q 292 947 281 965 q 361 986 314 986 q 401 976 382 986 q 431 951 419 967 q 460 976 442 967 q 500 986 479 986 q 540 976 521 986 q 569 951 558 967 q 599 976 581 967 q 639 986 618 986 q 685 973 665 986 q 715 938 706 960 l 764 889 q 785 847 781 869 q 826 831 808 844 q 854 797 844 818 l 900 751 q 899 753 900 753 q 899 754 899 753 l 903 750 q 926 694 926 726 q 888 625 926 647 l 903 611 q 926 556 926 588 q 888 486 926 508 l 903 472 q 926 417 926 449 q 888 347 926 369 l 903 333 q 926 278 926 310 q 888 208 926 231 l 903 194 q 926 139 926 171 q 903 83 926 106 q 847 60 881 60 q 790 81 811 60 l 774 97 q 763 83 768 90 q 750 72 757 76 l 764 58 q 763 60 764 60 q 763 61 763 60 l 767 57 q 788 0 788 36 q 765 -56 788 -33 q 708 -79 742 -79 q 653 -56 676 -79 l 638 -40 q 609 -68 626 -57 q 569 -79 592 -79 q 514 -56 538 -79 l 499 -40 q 470 -68 488 -57 q 431 -79 453 -79 q 375 -56 399 -79 l 360 -40 q 331 -68 349 -57 q 292 -79 314 -79 q 236 -56 260 -79 l 221 -40 q 192 -68 210 -57 q 153 -79 175 -79 q 96 -57 118 -79 l 43 -4 q 0 69 0 18 q 10 109 0 90 q 35 139 19 128 q 10 169 19 150 q 0 208 0 188 q 10 248 0 229 q 35 278 19 267 q 10 308 19 289 q 0 347 0 326 q 10 387 0 368 q 35 417 19 406 q 10 447 19 428 q 0 486 0 465 q 10 526 0 507 q 35 556 19 544 q 10 585 19 567 q 0 625 0 604 q 10 665 0 646 q 35 694 19 683 q 10 724 19 706 q 0 764 0 743 q 10 803 0 785 q 35 833 19 822 q 10 863 19 844 q 0 903 0 882 m 772 556 q 728 535 746 553 q 708 492 711 517 q 688 535 706 517 q 644 556 669 553 q 688 576 669 558 q 708 619 706 593 q 728 576 711 593 q 772 556 746 558 m 217 139 q 173 118 190 136 q 153 75 156 100 q 132 118 150 100 q 89 139 114 136 q 132 159 114 142 q 153 203 150 176 q 173 159 156 176 q 217 139 190 142 m 772 694 q 728 674 746 692 q 708 631 711 656 q 688 674 706 656 q 644 694 669 692 q 688 715 669 697 q 708 758 706 732 q 728 715 711 732 q 772 694 746 697 m 217 694 q 173 674 190 692 q 153 631 156 656 q 132 674 150 656 q 89 694 114 692 q 132 715 114 697 q 153 758 150 732 q 173 715 156 732 q 217 694 190 697 m 217 833 q 173 813 190 831 q 153 769 156 794 q 132 813 150 794 q 89 833 114 831 q 132 853 114 836 q 153 897 150 871 q 173 853 156 871 q 217 833 190 836 m 217 556 q 173 535 190 553 q 153 492 156 517 q 132 535 150 517 q 89 556 114 553 q 132 576 114 558 q 153 619 150 593 q 173 576 156 593 q 217 556 190 558 m 772 417 q 728 396 746 414 q 708 353 711 378 q 688 396 706 378 q 644 417 669 414 q 688 437 669 419 q 708 481 706 454 q 728 437 711 454 q 772 417 746 419 m 217 417 q 173 396 190 414 q 153 353 156 378 q 132 396 150 378 q 89 417 114 414 q 132 437 114 419 q 153 481 150 454 q 173 437 156 454 q 217 417 190 419 m 772 278 q 728 257 746 275 q 708 214 711 239 q 688 257 706 239 q 644 278 669 275 q 688 298 669 281 q 708 342 706 315 q 728 298 711 315 q 772 278 746 281 m 217 278 q 173 257 190 275 q 153 214 156 239 q 132 257 150 239 q 89 278 114 275 q 132 298 114 281 q 153 342 150 315 q 173 298 156 315 q 217 278 190 281 m 569 764 q 588 717 569 736 q 633 694 606 697 q 588 672 606 692 q 569 625 569 653 q 588 578 569 597 q 633 556 606 558 q 588 533 606 553 q 569 486 569 514 q 588 439 569 458 q 633 417 606 419 q 588 394 606 414 q 569 347 569 375 q 588 300 569 319 q 633 278 606 281 q 588 256 606 275 q 569 208 569 236 q 588 161 569 181 q 633 139 606 142 q 588 117 606 136 q 569 69 569 97 q 549 119 569 99 q 500 139 529 139 q 451 119 471 139 q 431 69 431 99 q 410 119 431 99 q 361 139 390 139 q 314 121 333 139 q 292 75 294 103 q 271 118 289 100 q 228 139 253 136 q 274 161 256 142 q 292 208 292 181 q 274 256 292 236 q 228 278 256 275 q 274 300 256 281 q 292 347 292 319 q 274 394 292 375 q 228 417 256 414 q 274 439 256 419 q 292 486 292 458 q 274 533 292 514 q 228 556 256 553 q 274 578 256 558 q 292 625 292 597 q 274 672 292 653 q 228 694 256 692 q 274 717 256 697 q 292 764 292 736 q 274 811 292 792 q 228 833 256 831 q 271 853 253 836 q 292 897 289 871 q 314 851 294 869 q 361 833 333 833 q 408 851 389 833 q 431 897 428 869 q 453 851 433 869 q 500 833 472 833 q 547 851 528 833 q 569 897 567 869 q 590 853 572 871 q 633 833 607 836 q 588 811 606 831 q 569 764 569 792 m 14 903 q 32 856 14 875 q 78 833 50 836 q 32 811 50 831 q 14 764 14 792 q 32 717 14 736 q 78 694 50 697 q 32 672 50 692 q 14 625 14 653 q 32 578 14 597 q 78 556 50 558 q 32 533 50 553 q 14 486 14 514 q 32 439 14 458 q 78 417 50 419 q 32 394 50 414 q 14 347 14 375 q 32 300 14 319 q 78 278 50 281 q 32 256 50 275 q 14 208 14 236 q 32 161 14 181 q 78 139 50 142 q 32 117 50 136 q 14 69 14 97 q 34 20 14 40 q 83 0 54 0 q 131 18 111 0 q 153 64 150 36 q 175 18 156 36 q 222 0 194 0 q 269 18 250 0 q 292 64 289 36 q 314 18 294 36 q 361 0 333 0 q 408 18 389 0 q 431 64 428 36 q 453 18 433 36 q 500 0 472 0 q 547 18 528 0 q 569 64 567 36 q 592 18 572 36 q 639 0 611 0 q 688 20 668 0 q 708 69 708 40 q 690 117 708 97 q 644 139 672 136 q 688 159 669 142 q 708 203 706 176 q 731 157 711 175 q 778 139 750 139 q 827 159 807 139 q 847 208 847 179 q 829 256 847 236 q 783 278 811 275 q 829 300 811 281 q 847 347 847 319 q 829 394 847 375 q 783 417 811 414 q 829 439 811 419 q 847 486 847 458 q 829 533 847 514 q 783 556 811 553 q 829 578 811 558 q 847 625 847 597 q 829 672 847 653 q 783 694 811 692 q 829 717 811 697 q 847 764 847 736 q 827 813 847 793 q 778 833 807 833 q 731 815 750 833 q 708 769 711 797 q 688 813 706 794 q 644 833 669 831 q 690 856 672 836 q 708 903 708 875 q 688 952 708 932 q 639 972 668 972 q 592 954 611 972 q 569 908 572 936 q 547 954 567 936 q 500 972 528 972 q 453 954 472 972 q 431 908 433 936 q 408 954 428 936 q 361 972 389 972 q 312 952 332 972 q 292 903 292 932 q 272 952 292 932 q 222 972 251 972 q 175 954 194 972 q 153 908 156 936 q 131 954 150 936 q 83 972 111 972 q 34 952 54 972 q 14 903 14 932 z "},"E":{"ha":1065,"x_min":0,"x_max":926,"o":"m 0 903 q 24 963 0 939 q 83 986 47 986 q 123 976 104 986 q 153 951 142 967 q 183 976 164 967 q 222 986 201 986 q 262 976 243 986 q 292 951 281 967 q 322 976 303 967 q 361 986 340 986 q 401 976 382 986 q 431 951 419 967 q 460 976 442 967 q 500 986 479 986 q 540 976 521 986 q 569 951 558 967 q 599 976 581 967 q 639 986 618 986 q 678 976 660 986 q 708 951 697 967 q 738 976 719 967 q 778 986 757 986 q 824 972 804 986 q 854 936 844 958 l 900 890 q 899 892 900 892 q 899 893 899 892 l 903 889 q 926 833 926 865 q 903 777 926 800 q 847 754 881 754 q 792 778 815 754 l 776 792 q 748 765 765 775 q 708 754 731 754 q 653 778 676 754 l 638 792 q 609 765 626 775 q 569 754 592 754 q 539 760 553 754 q 514 778 525 767 l 499 792 q 470 765 488 775 q 431 754 453 754 q 374 775 394 754 l 357 792 q 346 778 351 785 q 333 767 340 771 l 350 751 q 371 694 371 731 q 332 625 371 647 l 347 611 q 368 569 364 592 q 403 557 388 567 q 431 535 419 547 q 460 560 442 550 q 500 569 479 569 q 540 560 521 569 q 569 535 558 550 q 599 560 581 550 q 639 569 618 569 q 685 556 665 569 q 715 521 706 543 l 764 472 q 788 417 788 449 q 765 360 788 383 q 708 338 742 338 q 653 361 676 338 l 638 375 q 609 348 626 358 q 569 338 592 338 q 514 361 538 338 l 499 375 q 470 348 488 358 q 431 338 453 338 q 374 358 394 338 l 357 375 q 346 361 351 368 q 333 350 340 354 l 347 336 q 347 338 347 338 q 346 339 346 338 l 350 335 q 371 278 371 314 q 332 208 371 231 l 339 201 q 338 203 339 203 q 338 204 338 203 l 347 194 q 368 153 364 175 q 403 140 388 150 q 431 114 419 129 q 500 153 453 153 q 540 142 522 153 q 569 114 558 132 q 639 153 592 153 q 678 143 660 153 q 708 118 697 133 q 738 143 719 133 q 778 153 757 153 q 824 140 804 153 q 854 104 844 126 l 903 56 q 926 0 926 32 q 903 -56 926 -33 q 847 -79 881 -79 q 792 -56 815 -79 l 776 -40 q 748 -68 765 -57 q 708 -79 731 -79 q 653 -56 676 -79 l 638 -40 q 609 -68 626 -57 q 569 -79 592 -79 q 514 -56 538 -79 l 499 -40 q 470 -68 488 -57 q 431 -79 453 -79 q 375 -56 399 -79 l 360 -40 q 331 -68 349 -57 q 292 -79 314 -79 q 236 -56 260 -79 l 221 -40 q 192 -68 210 -57 q 153 -79 175 -79 q 96 -57 118 -79 l 43 -4 q 0 69 0 18 q 10 109 0 90 q 35 139 19 128 q 10 169 19 150 q 0 208 0 188 q 10 248 0 229 q 35 278 19 267 q 10 308 19 289 q 0 347 0 326 q 10 387 0 368 q 35 417 19 406 q 10 447 19 428 q 0 486 0 465 q 10 526 0 507 q 35 556 19 544 q 10 585 19 567 q 0 625 0 604 q 10 665 0 646 q 35 694 19 683 q 10 724 19 706 q 0 764 0 743 q 10 803 0 785 q 35 833 19 822 q 10 863 19 844 q 0 903 0 882 m 217 556 q 173 535 190 553 q 153 492 156 517 q 132 535 150 517 q 89 556 114 553 q 132 576 114 558 q 153 619 150 593 q 173 576 156 593 q 217 556 190 558 m 217 694 q 173 674 190 692 q 153 631 156 656 q 132 674 150 656 q 89 694 114 692 q 132 715 114 697 q 153 758 150 732 q 173 715 156 732 q 217 694 190 697 m 217 833 q 173 813 190 831 q 153 769 156 794 q 132 813 150 794 q 89 833 114 831 q 132 853 114 836 q 153 897 150 871 q 173 853 156 871 q 217 833 190 836 m 217 417 q 173 396 190 414 q 153 353 156 378 q 132 396 150 378 q 89 417 114 414 q 132 437 114 419 q 153 481 150 454 q 173 437 156 454 q 217 417 190 419 m 217 278 q 173 257 190 275 q 153 214 156 239 q 132 257 150 239 q 89 278 114 275 q 132 298 114 281 q 153 342 150 315 q 173 298 156 315 q 217 278 190 281 m 217 139 q 173 118 190 136 q 153 75 156 100 q 132 118 150 100 q 89 139 114 136 q 132 159 114 142 q 153 203 150 176 q 173 159 156 176 q 217 139 190 142 m 14 903 q 32 856 14 875 q 78 833 50 836 q 32 811 50 831 q 14 764 14 792 q 32 717 14 736 q 78 694 50 697 q 32 672 50 692 q 14 625 14 653 q 32 578 14 597 q 78 556 50 558 q 32 533 50 553 q 14 486 14 514 q 32 439 14 458 q 78 417 50 419 q 32 394 50 414 q 14 347 14 375 q 32 300 14 319 q 78 278 50 281 q 32 256 50 275 q 14 208 14 236 q 32 161 14 181 q 78 139 50 142 q 32 117 50 136 q 14 69 14 97 q 34 20 14 40 q 83 0 54 0 q 131 18 111 0 q 153 64 150 36 q 175 18 156 36 q 222 0 194 0 q 269 18 250 0 q 292 64 289 36 q 314 18 294 36 q 361 0 333 0 q 408 18 389 0 q 431 64 428 36 q 453 18 433 36 q 500 0 472 0 q 547 18 528 0 q 569 64 567 36 q 592 18 572 36 q 639 0 611 0 q 686 18 667 0 q 708 64 706 36 q 731 18 711 36 q 778 0 750 0 q 827 20 807 0 q 847 69 847 40 q 827 119 847 99 q 778 139 807 139 q 731 121 750 139 q 708 75 711 103 q 686 121 706 103 q 639 139 667 139 q 590 119 610 139 q 569 69 569 99 q 549 119 569 99 q 500 139 529 139 q 451 119 471 139 q 431 69 431 99 q 410 119 431 99 q 361 139 390 139 q 314 121 333 139 q 292 75 294 103 q 271 118 289 100 q 228 139 253 136 q 274 161 256 142 q 292 208 292 181 q 274 256 292 236 q 228 278 256 275 q 274 300 256 281 q 292 347 292 319 q 274 394 292 375 q 228 417 256 414 q 271 437 253 419 q 292 481 289 454 q 314 435 294 453 q 361 417 333 417 q 408 435 389 417 q 431 481 428 453 q 453 435 433 453 q 500 417 472 417 q 547 435 528 417 q 569 481 567 453 q 592 435 572 453 q 639 417 611 417 q 688 437 668 417 q 708 486 708 457 q 688 535 708 515 q 639 556 668 556 q 592 538 611 556 q 569 492 572 519 q 547 538 567 519 q 500 556 528 556 q 453 538 472 556 q 431 492 433 519 q 408 538 428 519 q 361 556 389 556 q 314 538 333 556 q 292 492 294 519 q 271 535 289 517 q 228 556 253 553 q 274 578 256 558 q 292 625 292 597 q 274 672 292 653 q 228 694 256 692 q 274 717 256 697 q 292 764 292 736 q 274 811 292 792 q 228 833 256 831 q 271 853 253 836 q 292 897 289 871 q 314 851 294 869 q 361 833 333 833 q 408 851 389 833 q 431 897 428 869 q 453 851 433 869 q 500 833 472 833 q 547 851 528 833 q 569 897 567 869 q 592 851 572 869 q 639 833 611 833 q 686 851 667 833 q 708 897 706 869 q 731 851 711 869 q 778 833 750 833 q 827 853 807 833 q 847 903 847 874 q 827 952 847 932 q 778 972 807 972 q 731 954 750 972 q 708 908 711 936 q 686 954 706 936 q 639 972 667 972 q 592 954 611 972 q 569 908 572 936 q 547 954 567 936 q 500 972 528 972 q 453 954 472 972 q 431 908 433 936 q 408 954 428 936 q 361 972 389 972 q 314 954 333 972 q 292 908 294 936 q 269 954 289 936 q 222 972 250 972 q 175 954 194 972 q 153 908 156 936 q 131 954 150 936 q 83 972 111 972 q 34 952 54 972 q 14 903 14 932 z "},"F":{"ha":1065,"x_min":0,"x_max":926,"o":"m 0 903 q 24 963 0 939 q 83 986 47 986 q 123 976 104 986 q 153 951 142 967 q 183 976 164 967 q 222 986 201 986 q 262 976 243 986 q 292 951 281 967 q 322 976 303 967 q 361 986 340 986 q 401 976 382 986 q 431 951 419 967 q 460 976 442 967 q 500 986 479 986 q 540 976 521 986 q 569 951 558 967 q 599 976 581 967 q 639 986 618 986 q 678 976 660 986 q 708 951 697 967 q 738 976 719 967 q 778 986 757 986 q 824 973 804 986 q 854 938 844 960 l 903 889 q 926 833 926 865 q 903 777 926 800 q 847 754 881 754 q 792 778 815 754 l 776 792 q 748 765 765 775 q 708 754 731 754 q 653 778 676 754 l 638 792 q 609 765 626 775 q 569 754 592 754 q 539 760 553 754 q 514 778 525 767 l 499 792 q 470 765 488 775 q 431 754 453 754 q 374 775 394 754 l 357 792 q 346 778 351 785 q 333 767 340 771 l 350 751 q 371 694 371 731 q 332 625 371 647 l 347 611 q 368 569 364 592 q 403 557 388 567 q 431 535 419 547 q 460 560 442 550 q 500 569 479 569 q 540 560 521 569 q 569 535 558 550 q 599 560 581 550 q 639 569 618 569 q 685 556 665 569 q 715 521 706 543 l 764 472 q 788 417 788 449 q 765 360 788 383 q 708 338 742 338 q 653 361 676 338 l 638 375 q 609 348 626 358 q 569 338 592 338 q 514 361 538 338 l 499 375 q 470 348 488 358 q 431 338 453 338 q 374 358 394 338 l 357 375 q 346 361 351 368 q 333 350 340 354 l 350 335 q 371 278 371 314 q 332 208 371 231 l 347 194 q 371 139 371 171 q 332 69 371 92 l 342 61 q 340 62 340 61 q 339 63 340 63 l 347 56 q 371 0 371 32 q 348 -56 371 -33 q 292 -79 325 -79 q 236 -56 260 -79 l 221 -40 q 192 -68 210 -57 q 153 -79 175 -79 q 96 -57 118 -79 l 43 -4 q 0 69 0 18 q 10 109 0 90 q 35 139 19 128 q 10 169 19 150 q 0 208 0 188 q 10 248 0 229 q 35 278 19 267 q 10 308 19 289 q 0 347 0 326 q 10 387 0 368 q 35 417 19 406 q 10 447 19 428 q 0 486 0 465 q 10 526 0 507 q 35 556 19 544 q 10 585 19 567 q 0 625 0 604 q 10 665 0 646 q 35 694 19 683 q 10 724 19 706 q 0 764 0 743 q 10 803 0 785 q 35 833 19 822 q 10 863 19 844 q 0 903 0 882 m 217 556 q 173 535 190 553 q 153 492 156 517 q 132 535 150 517 q 89 556 114 553 q 132 576 114 558 q 153 619 150 593 q 173 576 156 593 q 217 556 190 558 m 217 694 q 173 674 190 692 q 153 631 156 656 q 132 674 150 656 q 89 694 114 692 q 132 715 114 697 q 153 758 150 732 q 173 715 156 732 q 217 694 190 697 m 153 764 q 135 811 153 792 q 89 833 117 831 q 132 853 114 836 q 153 897 150 871 q 173 853 156 871 q 217 833 190 836 q 171 811 189 831 q 153 764 153 792 m 217 417 q 173 396 190 414 q 153 353 156 378 q 132 396 150 378 q 89 417 114 414 q 132 437 114 419 q 153 481 150 454 q 173 437 156 454 q 217 417 190 419 m 217 278 q 173 257 190 275 q 153 214 156 239 q 132 257 150 239 q 89 278 114 275 q 132 298 114 281 q 153 342 150 315 q 173 298 156 315 q 217 278 190 281 m 217 139 q 173 118 190 136 q 153 75 156 100 q 132 118 150 100 q 89 139 114 136 q 132 159 114 142 q 153 203 150 176 q 173 159 156 176 q 217 139 190 142 m 14 903 q 32 856 14 875 q 78 833 50 836 q 32 811 50 831 q 14 764 14 792 q 32 717 14 736 q 78 694 50 697 q 32 672 50 692 q 14 625 14 653 q 32 578 14 597 q 78 556 50 558 q 32 533 50 553 q 14 486 14 514 q 32 439 14 458 q 78 417 50 419 q 32 394 50 414 q 14 347 14 375 q 32 300 14 319 q 78 278 50 281 q 32 256 50 275 q 14 208 14 236 q 32 161 14 181 q 78 139 50 142 q 32 117 50 136 q 14 69 14 97 q 34 20 14 40 q 83 0 54 0 q 131 18 111 0 q 153 64 150 36 q 175 18 156 36 q 222 0 194 0 q 272 20 251 0 q 292 69 292 40 q 274 117 292 97 q 228 139 256 136 q 274 161 256 142 q 292 208 292 181 q 274 256 292 236 q 228 278 256 275 q 274 300 256 281 q 292 347 292 319 q 274 394 292 375 q 228 417 256 414 q 271 437 253 419 q 292 481 289 454 q 314 435 294 453 q 361 417 333 417 q 408 435 389 417 q 431 481 428 453 q 453 435 433 453 q 500 417 472 417 q 547 435 528 417 q 569 481 567 453 q 592 435 572 453 q 639 417 611 417 q 688 437 668 417 q 708 486 708 457 q 688 535 708 515 q 639 556 668 556 q 592 538 611 556 q 569 492 572 519 q 547 538 567 519 q 500 556 528 556 q 453 538 472 556 q 431 492 433 519 q 408 538 428 519 q 361 556 389 556 q 312 535 332 556 q 292 486 292 515 q 274 533 292 514 q 228 556 256 553 q 274 578 256 558 q 292 625 292 597 q 274 672 292 653 q 228 694 256 692 q 274 717 256 697 q 292 764 292 736 q 274 811 292 792 q 228 833 256 831 q 271 853 253 836 q 292 897 289 871 q 314 851 294 869 q 361 833 333 833 q 408 851 389 833 q 431 897 428 869 q 453 851 433 869 q 500 833 472 833 q 547 851 528 833 q 569 897 567 869 q 592 851 572 869 q 639 833 611 833 q 686 851 667 833 q 708 897 706 869 q 731 851 711 869 q 778 833 750 833 q 827 853 807 833 q 847 903 847 874 q 827 952 847 932 q 778 972 807 972 q 731 954 750 972 q 708 908 711 936 q 686 954 706 936 q 639 972 667 972 q 592 954 611 972 q 569 908 572 936 q 547 954 567 936 q 500 972 528 972 q 453 954 472 972 q 431 908 433 936 q 408 954 428 936 q 361 972 389 972 q 314 954 333 972 q 292 908 294 936 q 269 954 289 936 q 222 972 250 972 q 175 954 194 972 q 153 908 156 936 q 131 954 150 936 q 83 972 111 972 q 34 952 54 972 q 14 903 14 932 z "},"G":{"ha":1065,"x_min":0,"x_max":926,"o":"m 139 903 q 163 963 139 939 q 222 986 186 986 q 263 976 244 986 q 292 947 281 965 q 361 986 314 986 q 401 976 382 986 q 431 951 419 967 q 460 976 442 967 q 500 986 479 986 q 540 976 521 986 q 569 951 558 967 q 599 976 581 967 q 639 986 618 986 q 678 976 660 986 q 708 951 697 967 q 738 976 719 967 q 778 986 757 986 q 824 972 804 986 q 854 936 844 958 l 900 890 q 899 892 900 892 q 899 893 899 892 l 903 889 q 926 833 926 865 q 903 777 926 800 q 847 754 881 754 q 792 778 815 754 l 776 792 q 748 765 765 775 q 708 754 731 754 q 653 778 676 754 l 638 792 q 609 765 626 775 q 569 754 592 754 q 539 760 553 754 q 514 778 525 767 l 499 792 q 470 765 488 775 q 431 754 453 754 q 374 775 394 754 l 357 792 q 346 778 351 785 q 333 767 340 771 l 347 753 q 347 754 347 754 q 346 756 346 754 l 350 751 q 371 694 371 731 q 332 625 371 647 l 342 617 q 340 617 340 617 q 339 618 340 618 l 347 611 q 365 586 358 600 q 371 556 371 572 q 332 486 371 508 l 339 479 q 338 481 339 481 q 338 482 338 481 l 347 472 q 365 447 358 461 q 371 417 371 433 q 332 347 371 369 l 347 333 q 371 278 371 310 q 332 208 371 231 l 342 200 q 340 201 340 200 q 339 201 340 201 l 347 194 q 368 153 364 175 q 403 140 388 150 q 431 114 419 129 q 500 153 453 153 q 541 142 524 153 q 569 117 558 132 q 592 138 576 129 q 556 199 558 157 q 513 221 528 201 l 460 274 q 417 347 417 296 q 440 407 417 383 q 500 431 464 431 q 540 421 521 431 q 569 396 558 411 q 599 421 581 411 q 639 431 618 431 q 678 421 660 431 q 708 396 697 411 q 738 421 719 411 q 778 431 757 431 q 824 417 804 431 q 854 382 844 404 l 903 333 q 926 278 926 310 q 888 208 926 231 l 897 200 q 896 201 896 200 q 894 201 896 201 l 903 194 q 926 139 926 171 q 888 69 926 92 l 897 61 q 896 62 896 61 q 894 63 896 63 l 903 56 q 926 0 926 32 q 903 -56 926 -33 q 847 -79 881 -79 q 792 -56 815 -79 l 776 -40 q 748 -68 765 -57 q 708 -79 731 -79 q 653 -56 676 -79 l 638 -40 q 609 -68 626 -57 q 569 -79 592 -79 q 514 -56 538 -79 l 499 -40 q 470 -68 488 -57 q 431 -79 453 -79 q 375 -56 399 -79 l 360 -40 q 331 -68 349 -57 q 292 -79 314 -79 q 235 -57 257 -79 l 182 -4 q 153 22 164 6 q 139 60 142 39 q 96 82 111 63 l 43 135 q 0 208 0 157 q 10 248 0 229 q 35 278 19 267 q 10 308 19 289 q 0 347 0 326 q 10 387 0 368 q 35 417 19 406 q 10 447 19 428 q 0 486 0 465 q 10 526 0 507 q 35 556 19 544 q 10 585 19 567 q 0 625 0 604 q 10 665 0 646 q 35 694 19 683 q 10 724 19 706 q 0 764 0 743 q 24 824 0 800 q 83 847 47 847 q 124 837 107 847 q 153 811 142 826 q 175 832 160 824 q 139 903 139 851 m 217 417 q 173 396 190 414 q 153 353 156 378 q 132 396 150 378 q 89 417 114 414 q 132 437 114 419 q 153 481 150 454 q 173 437 156 454 q 217 417 190 419 m 217 556 q 173 535 190 553 q 153 492 156 517 q 132 535 150 517 q 89 556 114 553 q 132 576 114 558 q 153 619 150 593 q 173 576 156 593 q 217 556 190 558 m 217 694 q 173 674 190 692 q 153 631 156 656 q 132 674 150 656 q 89 694 114 692 q 132 715 114 697 q 153 758 150 732 q 173 715 156 732 q 217 694 190 697 m 217 278 q 173 257 190 275 q 153 214 156 239 q 132 257 150 239 q 89 278 114 275 q 132 298 114 281 q 153 342 150 315 q 173 298 156 315 q 217 278 190 281 m 708 69 q 690 117 708 97 q 644 139 672 136 q 688 159 669 142 q 708 203 706 176 q 728 159 711 176 q 772 139 746 142 q 726 117 744 136 q 708 69 708 97 m 708 342 q 728 298 711 315 q 772 278 746 281 q 728 257 746 275 q 708 214 711 239 q 688 257 706 239 q 644 278 669 275 q 688 298 669 281 q 708 342 706 315 m 153 903 q 171 856 153 875 q 217 833 189 836 q 173 813 190 831 q 153 769 156 794 q 131 815 150 797 q 83 833 111 833 q 34 813 54 833 q 14 764 14 793 q 32 717 14 736 q 78 694 50 697 q 32 672 50 692 q 14 625 14 653 q 32 578 14 597 q 78 556 50 558 q 32 533 50 553 q 14 486 14 514 q 32 439 14 458 q 78 417 50 419 q 32 394 50 414 q 14 347 14 375 q 32 300 14 319 q 78 278 50 281 q 32 256 50 275 q 14 208 14 236 q 34 159 14 179 q 83 139 54 139 q 131 157 111 139 q 153 203 150 175 q 173 159 156 176 q 217 139 190 142 q 171 117 189 136 q 153 69 153 97 q 173 20 153 40 q 222 0 193 0 q 269 18 250 0 q 292 64 289 36 q 314 18 294 36 q 361 0 333 0 q 408 18 389 0 q 431 64 428 36 q 453 18 433 36 q 500 0 472 0 q 547 18 528 0 q 569 64 567 36 q 592 18 572 36 q 639 0 611 0 q 686 18 667 0 q 708 64 706 36 q 731 18 711 36 q 778 0 750 0 q 827 20 807 0 q 847 69 847 40 q 829 117 847 97 q 783 139 811 136 q 829 161 811 142 q 847 208 847 181 q 829 256 847 236 q 783 278 811 275 q 829 300 811 281 q 847 347 847 319 q 827 397 847 376 q 778 417 807 417 q 731 399 750 417 q 708 353 711 381 q 686 399 706 381 q 639 417 667 417 q 592 399 611 417 q 569 353 572 381 q 547 399 567 381 q 500 417 528 417 q 451 397 471 417 q 431 347 431 376 q 451 298 431 318 q 500 278 471 278 q 547 296 528 278 q 569 342 567 314 q 590 298 572 315 q 633 278 607 281 q 588 256 606 275 q 569 208 569 236 q 588 161 569 181 q 633 139 606 142 q 590 118 607 136 q 569 75 572 100 q 547 121 567 103 q 500 139 528 139 q 451 119 471 139 q 431 69 431 99 q 410 119 431 99 q 361 139 390 139 q 314 121 333 139 q 292 75 294 103 q 271 118 289 100 q 228 139 253 136 q 274 161 256 142 q 292 208 292 181 q 274 256 292 236 q 228 278 256 275 q 274 300 256 281 q 292 347 292 319 q 274 394 292 375 q 228 417 256 414 q 274 439 256 419 q 292 486 292 458 q 274 533 292 514 q 228 556 256 553 q 274 578 256 558 q 292 625 292 597 q 274 672 292 653 q 228 694 256 692 q 274 717 256 697 q 292 764 292 736 q 274 811 292 792 q 228 833 256 831 q 271 853 253 836 q 292 897 289 871 q 314 851 294 869 q 361 833 333 833 q 408 851 389 833 q 431 897 428 869 q 453 851 433 869 q 500 833 472 833 q 547 851 528 833 q 569 897 567 869 q 592 851 572 869 q 639 833 611 833 q 686 851 667 833 q 708 897 706 869 q 731 851 711 869 q 778 833 750 833 q 827 853 807 833 q 847 903 847 874 q 827 952 847 932 q 778 972 807 972 q 731 954 750 972 q 708 908 711 936 q 686 954 706 936 q 639 972 667 972 q 592 954 611 972 q 569 908 572 936 q 547 954 567 936 q 500 972 528 972 q 453 954 472 972 q 431 908 433 936 q 408 954 428 936 q 361 972 389 972 q 312 952 332 972 q 292 903 292 932 q 272 952 292 932 q 222 972 251 972 q 173 952 193 972 q 153 903 153 932 z "},"H":{"ha":1065,"x_min":0,"x_max":926,"o":"m 0 903 q 24 963 0 939 q 83 986 47 986 q 123 976 104 986 q 153 951 142 967 q 183 976 164 967 q 222 986 201 986 q 269 973 249 986 q 299 938 289 960 l 347 889 q 365 864 358 878 q 371 833 371 850 q 332 764 371 786 l 347 750 q 365 725 358 739 q 371 694 371 711 q 332 625 371 647 l 339 618 q 338 619 339 619 q 338 621 338 619 l 347 611 q 368 569 364 592 q 403 556 388 567 q 431 531 419 546 q 500 569 453 569 q 541 559 524 569 q 569 533 558 549 q 592 554 576 546 q 556 625 556 574 q 565 665 556 646 q 590 694 575 683 q 565 724 575 706 q 556 764 556 743 q 565 803 556 785 q 590 833 575 822 q 565 863 575 844 q 556 903 556 882 q 579 963 556 939 q 639 986 603 986 q 678 976 660 986 q 708 951 697 967 q 738 976 719 967 q 778 986 757 986 q 824 973 804 986 q 854 938 844 960 l 903 889 q 901 890 901 889 q 900 890 901 890 l 903 889 q 926 833 926 865 q 888 764 926 786 l 899 753 q 897 756 897 754 l 903 750 q 926 694 926 726 q 888 625 926 647 l 903 611 q 926 556 926 588 q 888 486 926 508 l 897 478 q 896 478 896 478 q 894 479 896 479 l 903 472 q 926 417 926 449 q 888 347 926 369 l 897 339 q 896 340 896 339 q 894 340 896 340 l 903 333 q 926 278 926 310 q 888 208 926 231 l 903 194 q 926 139 926 171 q 888 69 926 92 l 897 61 q 896 62 896 61 q 894 63 896 63 l 903 56 q 926 0 926 32 q 903 -56 926 -33 q 847 -79 881 -79 q 792 -56 815 -79 l 776 -40 q 748 -68 765 -57 q 708 -79 731 -79 q 651 -57 674 -79 l 599 -4 q 556 69 556 18 q 565 109 556 90 q 590 139 575 128 q 565 169 575 150 q 556 208 556 188 q 565 248 556 229 q 590 278 575 267 q 567 304 576 289 q 556 338 558 319 q 532 346 543 340 q 514 361 521 351 l 499 375 q 470 348 488 358 q 431 338 453 338 q 374 358 394 338 l 357 375 q 346 361 351 368 q 333 350 340 354 l 347 336 q 347 338 347 338 q 346 339 346 338 l 350 335 q 371 278 371 314 q 332 208 371 231 l 347 194 q 371 139 371 171 q 332 69 371 92 l 347 56 q 371 0 371 32 q 348 -56 371 -33 q 292 -79 325 -79 q 236 -56 260 -79 l 221 -40 q 192 -68 210 -57 q 153 -79 175 -79 q 96 -57 118 -79 l 43 -4 q 0 69 0 18 q 10 109 0 90 q 35 139 19 128 q 10 169 19 150 q 0 208 0 188 q 10 248 0 229 q 35 278 19 267 q 10 308 19 289 q 0 347 0 326 q 10 387 0 368 q 35 417 19 406 q 10 447 19 428 q 0 486 0 465 q 10 526 0 507 q 35 556 19 544 q 10 585 19 567 q 0 625 0 604 q 10 665 0 646 q 35 694 19 683 q 10 724 19 706 q 0 764 0 743 q 10 803 0 785 q 35 833 19 822 q 10 863 19 844 q 0 903 0 882 m 153 764 q 135 811 153 792 q 89 833 117 831 q 132 853 114 836 q 153 897 150 871 q 173 853 156 871 q 217 833 190 836 q 171 811 189 831 q 153 764 153 792 m 217 139 q 173 118 190 136 q 153 75 156 100 q 132 118 150 100 q 89 139 114 136 q 132 159 114 142 q 153 203 150 176 q 173 159 156 176 q 217 139 190 142 m 217 556 q 173 535 190 553 q 153 492 156 517 q 132 535 150 517 q 89 556 114 553 q 132 576 114 558 q 153 619 150 593 q 173 576 156 593 q 217 556 190 558 m 217 417 q 173 396 190 414 q 153 353 156 378 q 132 396 150 378 q 89 417 114 414 q 132 437 114 419 q 153 481 150 454 q 173 437 156 454 q 217 417 190 419 m 217 278 q 173 257 190 275 q 153 214 156 239 q 132 257 150 239 q 89 278 114 275 q 132 298 114 281 q 153 342 150 315 q 173 298 156 315 q 217 278 190 281 m 217 694 q 173 674 190 692 q 153 631 156 656 q 132 674 150 656 q 89 694 114 692 q 132 715 114 697 q 153 758 150 732 q 173 715 156 732 q 217 694 190 697 m 708 897 q 728 853 711 871 q 772 833 746 836 q 728 813 746 831 q 708 769 711 794 q 688 813 706 794 q 644 833 669 831 q 688 853 669 836 q 708 897 706 871 m 708 758 q 728 715 711 732 q 772 694 746 697 q 728 674 746 692 q 708 631 711 656 q 688 674 706 656 q 644 694 669 692 q 688 715 669 697 q 708 758 706 732 m 708 619 q 728 576 711 593 q 772 556 746 558 q 728 535 746 553 q 708 492 711 517 q 688 535 706 517 q 644 556 669 553 q 688 576 669 558 q 708 619 706 593 m 708 481 q 728 437 711 454 q 772 417 746 419 q 728 396 746 414 q 708 353 711 378 q 688 396 706 378 q 644 417 669 414 q 688 437 669 419 q 708 481 706 454 m 708 342 q 728 298 711 315 q 772 278 746 281 q 728 257 746 275 q 708 214 711 239 q 688 257 706 239 q 644 278 669 275 q 688 298 669 281 q 708 342 706 315 m 708 203 q 728 159 711 176 q 772 139 746 142 q 728 118 746 136 q 708 75 711 100 q 688 118 706 100 q 644 139 669 136 q 688 159 669 142 q 708 203 706 176 m 14 903 q 32 856 14 875 q 78 833 50 836 q 32 811 50 831 q 14 764 14 792 q 32 717 14 736 q 78 694 50 697 q 32 672 50 692 q 14 625 14 653 q 32 578 14 597 q 78 556 50 558 q 32 533 50 553 q 14 486 14 514 q 32 439 14 458 q 78 417 50 419 q 32 394 50 414 q 14 347 14 375 q 32 300 14 319 q 78 278 50 281 q 32 256 50 275 q 14 208 14 236 q 32 161 14 181 q 78 139 50 142 q 32 117 50 136 q 14 69 14 97 q 34 20 14 40 q 83 0 54 0 q 131 18 111 0 q 153 64 150 36 q 175 18 156 36 q 222 0 194 0 q 272 20 251 0 q 292 69 292 40 q 274 117 292 97 q 228 139 256 136 q 274 161 256 142 q 292 208 292 181 q 274 256 292 236 q 228 278 256 275 q 274 300 256 281 q 292 347 292 319 q 274 394 292 375 q 228 417 256 414 q 271 437 253 419 q 292 481 289 454 q 314 435 294 453 q 361 417 333 417 q 408 435 389 417 q 431 481 428 453 q 453 435 433 453 q 500 417 472 417 q 547 435 528 417 q 569 481 567 453 q 590 437 572 454 q 633 417 607 419 q 588 394 606 414 q 569 347 569 375 q 588 300 569 319 q 633 278 606 281 q 588 256 606 275 q 569 208 569 236 q 588 161 569 181 q 633 139 606 142 q 588 117 606 136 q 569 69 569 97 q 590 20 569 40 q 639 0 610 0 q 686 18 667 0 q 708 64 706 36 q 731 18 711 36 q 778 0 750 0 q 827 20 807 0 q 847 69 847 40 q 829 117 847 97 q 783 139 811 136 q 829 161 811 142 q 847 208 847 181 q 829 256 847 236 q 783 278 811 275 q 829 300 811 281 q 847 347 847 319 q 829 394 847 375 q 783 417 811 414 q 829 439 811 419 q 847 486 847 458 q 829 533 847 514 q 783 556 811 553 q 829 578 811 558 q 847 625 847 597 q 829 672 847 653 q 783 694 811 692 q 829 717 811 697 q 847 764 847 736 q 829 811 847 792 q 783 833 811 831 q 829 856 811 836 q 847 903 847 875 q 827 952 847 932 q 778 972 807 972 q 731 954 750 972 q 708 908 711 936 q 686 954 706 936 q 639 972 667 972 q 590 952 610 972 q 569 903 569 932 q 588 856 569 875 q 633 833 606 836 q 588 811 606 831 q 569 764 569 792 q 588 717 569 736 q 633 694 606 697 q 588 672 606 692 q 569 625 569 653 q 588 578 569 597 q 633 556 606 558 q 590 535 607 553 q 569 492 572 517 q 547 538 567 519 q 500 556 528 556 q 451 535 471 556 q 431 486 431 515 q 410 535 431 515 q 361 556 390 556 q 314 538 333 556 q 292 492 294 519 q 271 535 289 517 q 228 556 253 553 q 274 578 256 558 q 292 625 292 597 q 274 672 292 653 q 228 694 256 692 q 274 717 256 697 q 292 764 292 736 q 274 811 292 792 q 228 833 256 831 q 274 856 256 836 q 292 903 292 875 q 272 952 292 932 q 222 972 251 972 q 175 954 194 972 q 153 908 156 936 q 131 954 150 936 q 83 972 111 972 q 34 952 54 972 q 14 903 14 932 z "},"I":{"ha":788,"x_min":0,"x_max":649,"o":"m 43 -4 q 0 69 0 18 q 24 129 0 106 q 83 153 47 153 q 124 142 106 153 q 153 114 142 132 q 174 139 161 128 q 149 169 158 150 q 139 208 139 188 q 149 248 139 229 q 174 278 158 267 q 149 308 158 289 q 139 347 139 326 q 149 387 139 368 q 174 417 158 406 q 149 447 158 428 q 139 486 139 465 q 149 526 139 507 q 174 556 158 544 q 149 585 158 567 q 139 625 139 604 q 149 665 139 646 q 174 694 158 683 q 151 719 160 704 q 139 754 142 735 q 96 776 111 757 l 43 829 q 0 903 0 851 q 24 963 0 939 q 83 986 47 986 q 123 976 104 986 q 153 951 142 967 q 183 976 164 967 q 222 986 201 986 q 263 976 244 986 q 292 947 281 965 q 361 986 314 986 q 401 976 382 986 q 431 951 419 967 q 460 976 442 967 q 500 986 479 986 q 547 973 526 986 q 576 938 567 960 l 625 889 q 649 833 649 865 q 626 777 649 800 q 569 754 603 754 q 513 775 533 754 l 496 792 q 485 778 490 785 q 472 767 479 771 l 489 751 q 510 694 510 731 q 471 625 510 647 l 486 611 q 503 586 497 600 q 510 556 510 572 q 471 486 510 508 l 482 475 q 481 478 481 476 l 486 472 q 503 447 497 461 q 510 417 510 433 q 471 347 510 369 l 486 333 q 510 278 510 310 q 471 208 510 231 l 481 200 q 479 201 479 200 q 478 201 479 201 l 486 194 q 507 153 503 175 q 549 137 531 150 q 576 103 567 124 l 622 57 q 622 58 622 58 q 621 60 621 58 l 625 56 q 649 0 649 32 q 626 -56 649 -33 q 569 -79 603 -79 q 514 -56 538 -79 l 499 -40 q 470 -68 488 -57 q 431 -79 453 -79 q 375 -56 399 -79 l 360 -40 q 331 -68 349 -57 q 292 -79 314 -79 q 236 -56 260 -79 l 221 -40 q 192 -68 210 -57 q 153 -79 175 -79 q 96 -57 118 -79 l 43 -4 m 356 556 q 312 535 329 553 q 292 492 294 517 q 271 535 289 517 q 228 556 253 553 q 271 576 253 558 q 292 619 289 593 q 312 576 294 593 q 356 556 329 558 m 292 625 q 274 672 292 653 q 228 694 256 692 q 271 715 253 697 q 292 758 289 732 q 312 715 294 732 q 356 694 329 697 q 310 672 328 692 q 292 625 292 653 m 356 833 q 312 813 329 831 q 292 769 294 794 q 271 813 289 794 q 228 833 253 831 q 271 853 253 836 q 292 897 289 871 q 312 853 294 871 q 356 833 329 836 m 356 417 q 312 396 329 414 q 292 353 294 378 q 271 396 289 378 q 228 417 253 414 q 271 437 253 419 q 292 481 289 454 q 312 437 294 454 q 356 417 329 419 m 356 278 q 312 257 329 275 q 292 214 294 239 q 271 257 289 239 q 228 278 253 275 q 271 298 253 281 q 292 342 289 315 q 312 298 294 315 q 356 278 329 281 m 356 139 q 312 118 329 136 q 292 75 294 100 q 271 118 289 100 q 228 139 253 136 q 271 159 253 142 q 292 203 289 176 q 312 159 294 176 q 356 139 329 142 m 153 764 q 171 717 153 736 q 217 694 189 697 q 171 672 189 692 q 153 625 153 653 q 171 578 153 597 q 217 556 189 558 q 171 533 189 553 q 153 486 153 514 q 171 439 153 458 q 217 417 189 419 q 171 394 189 414 q 153 347 153 375 q 171 300 153 319 q 217 278 189 281 q 171 256 189 275 q 153 208 153 236 q 171 161 153 181 q 217 139 189 142 q 171 117 189 136 q 153 69 153 97 q 133 119 153 99 q 83 139 113 139 q 34 119 54 139 q 14 69 14 99 q 34 20 14 40 q 83 0 54 0 q 131 18 111 0 q 153 64 150 36 q 175 18 156 36 q 222 0 194 0 q 269 18 250 0 q 292 64 289 36 q 314 18 294 36 q 361 0 333 0 q 408 18 389 0 q 431 64 428 36 q 453 18 433 36 q 500 0 472 0 q 549 20 529 0 q 569 69 569 40 q 549 119 569 99 q 500 139 529 139 q 453 121 472 139 q 431 75 433 103 q 410 118 428 100 q 367 139 392 136 q 413 161 394 142 q 431 208 431 181 q 413 256 431 236 q 367 278 394 275 q 413 300 394 281 q 431 347 431 319 q 413 394 431 375 q 367 417 394 414 q 413 439 394 419 q 431 486 431 458 q 413 533 431 514 q 367 556 394 553 q 413 578 394 558 q 431 625 431 597 q 413 672 431 653 q 367 694 394 692 q 413 717 394 697 q 431 764 431 736 q 413 811 431 792 q 367 833 394 831 q 410 853 392 836 q 431 897 428 871 q 453 851 433 869 q 500 833 472 833 q 549 853 529 833 q 569 903 569 874 q 549 952 569 932 q 500 972 529 972 q 453 954 472 972 q 431 908 433 936 q 408 954 428 936 q 361 972 389 972 q 312 952 332 972 q 292 903 292 932 q 272 952 292 932 q 222 972 251 972 q 175 954 194 972 q 153 908 156 936 q 131 954 150 936 q 83 972 111 972 q 34 952 54 972 q 14 903 14 932 q 34 853 14 874 q 83 833 54 833 q 131 851 111 833 q 153 897 150 869 q 173 853 156 871 q 217 833 190 836 q 171 811 189 831 q 153 764 153 792 z "},"J":{"ha":1204,"x_min":0,"x_max":1065,"o":"m 417 903 q 440 963 417 939 q 500 986 464 986 q 540 976 522 986 q 569 947 558 965 q 639 986 592 986 q 679 976 661 986 q 708 947 697 965 q 778 986 731 986 q 818 976 800 986 q 847 947 836 965 q 917 986 869 986 q 963 972 943 986 q 993 936 983 958 l 1039 890 q 1038 892 1039 892 q 1038 893 1038 892 l 1042 889 q 1065 833 1065 865 q 1042 777 1065 800 q 986 754 1019 754 q 929 775 950 754 l 913 792 q 901 778 907 785 q 889 767 896 771 l 906 751 q 926 694 926 731 q 888 625 926 647 l 894 618 q 894 619 894 619 q 893 621 893 619 l 903 611 q 926 556 926 588 q 888 486 926 508 l 903 472 q 926 417 926 449 q 888 347 926 369 l 899 336 q 897 339 897 338 l 903 333 q 926 278 926 310 q 888 208 926 231 l 894 201 q 894 203 894 203 q 893 204 893 203 l 903 194 q 926 139 926 171 q 903 83 926 106 q 847 60 881 60 q 790 81 811 60 l 774 97 q 763 83 768 90 q 750 72 757 76 l 767 57 q 788 0 788 36 q 765 -56 788 -33 q 708 -79 742 -79 q 653 -56 676 -79 l 638 -40 q 609 -68 626 -57 q 569 -79 592 -79 q 514 -56 538 -79 l 499 -40 q 470 -68 488 -57 q 431 -79 453 -79 q 375 -56 399 -79 l 360 -40 q 331 -68 349 -57 q 292 -79 314 -79 q 236 -56 260 -79 l 221 -40 q 192 -68 210 -57 q 153 -79 175 -79 q 96 -57 118 -79 l 43 -4 q 0 69 0 18 q 24 129 0 106 q 83 153 47 153 q 123 143 104 153 q 153 118 142 133 q 183 143 164 133 q 222 153 201 153 q 262 143 243 153 q 292 118 281 133 q 322 143 303 133 q 361 153 340 153 q 401 143 382 153 q 431 118 419 133 q 460 143 442 133 q 500 153 479 153 q 541 142 524 153 q 569 117 558 132 q 592 138 576 129 q 556 208 556 157 q 565 248 556 229 q 590 278 575 267 q 565 308 575 289 q 556 347 556 326 q 565 387 556 368 q 590 417 575 406 q 565 447 575 428 q 556 486 556 465 q 565 526 556 507 q 590 556 575 544 q 565 585 575 567 q 556 625 556 604 q 565 665 556 646 q 590 694 575 683 q 567 719 576 704 q 556 754 558 735 q 513 776 528 757 l 460 829 q 417 903 417 851 m 708 897 q 728 853 711 871 q 772 833 746 836 q 728 813 746 831 q 708 769 711 794 q 688 813 706 794 q 644 833 669 831 q 688 853 669 836 q 708 897 706 871 m 708 625 q 690 672 708 653 q 644 694 672 692 q 688 715 669 697 q 708 758 706 732 q 728 715 711 732 q 772 694 746 697 q 726 672 744 692 q 708 625 708 653 m 708 486 q 690 533 708 514 q 644 556 672 553 q 688 576 669 558 q 708 619 706 593 q 728 576 711 593 q 772 556 746 558 q 726 533 744 553 q 708 486 708 514 m 708 481 q 728 437 711 454 q 772 417 746 419 q 728 396 746 414 q 708 353 711 378 q 688 396 706 378 q 644 417 669 414 q 688 437 669 419 q 708 481 706 454 m 708 208 q 690 256 708 236 q 644 278 672 275 q 688 298 669 281 q 708 342 706 315 q 728 298 711 315 q 772 278 746 281 q 726 256 744 275 q 708 208 708 236 m 431 903 q 451 853 431 874 q 500 833 471 833 q 547 851 528 833 q 569 897 567 869 q 590 853 572 871 q 633 833 607 836 q 588 811 606 831 q 569 764 569 792 q 588 717 569 736 q 633 694 606 697 q 588 672 606 692 q 569 625 569 653 q 588 578 569 597 q 633 556 606 558 q 588 533 606 553 q 569 486 569 514 q 588 439 569 458 q 633 417 606 419 q 588 394 606 414 q 569 347 569 375 q 588 300 569 319 q 633 278 606 281 q 588 256 606 275 q 569 208 569 236 q 588 161 569 181 q 633 139 606 142 q 590 118 607 136 q 569 75 572 100 q 547 121 567 103 q 500 139 528 139 q 453 121 472 139 q 431 75 433 103 q 408 121 428 103 q 361 139 389 139 q 314 121 333 139 q 292 75 294 103 q 269 121 289 103 q 222 139 250 139 q 175 121 194 139 q 153 75 156 103 q 131 121 150 103 q 83 139 111 139 q 34 119 54 139 q 14 69 14 99 q 34 20 14 40 q 83 0 54 0 q 131 18 111 0 q 153 64 150 36 q 175 18 156 36 q 222 0 194 0 q 269 18 250 0 q 292 64 289 36 q 314 18 294 36 q 361 0 333 0 q 408 18 389 0 q 431 64 428 36 q 453 18 433 36 q 500 0 472 0 q 547 18 528 0 q 569 64 567 36 q 592 18 572 36 q 639 0 611 0 q 688 20 668 0 q 708 69 708 40 q 690 117 708 97 q 644 139 672 136 q 688 159 669 142 q 708 203 706 176 q 731 157 711 175 q 778 139 750 139 q 827 159 807 139 q 847 208 847 179 q 829 256 847 236 q 783 278 811 275 q 829 300 811 281 q 847 347 847 319 q 829 394 847 375 q 783 417 811 414 q 829 439 811 419 q 847 486 847 458 q 829 533 847 514 q 783 556 811 553 q 829 578 811 558 q 847 625 847 597 q 829 672 847 653 q 783 694 811 692 q 829 717 811 697 q 847 764 847 736 q 829 811 847 792 q 783 833 811 831 q 826 853 808 836 q 847 897 844 871 q 869 851 850 869 q 917 833 889 833 q 966 853 946 833 q 986 903 986 874 q 966 952 986 932 q 917 972 946 972 q 867 952 888 972 q 847 903 847 932 q 827 952 847 932 q 778 972 807 972 q 728 952 749 972 q 708 903 708 932 q 688 952 708 932 q 639 972 668 972 q 590 952 610 972 q 569 903 569 932 q 549 952 569 932 q 500 972 529 972 q 451 952 471 972 q 431 903 431 932 z "}}}
